<?xml version="1.0" encoding="utf-8"?>
<!-- Generator: Adobe Illustrator 27.0.0, SVG Export Plug-In . SVG Version: 6.00 Build 0)  -->
<svg version="1.1" id="Layer_1" xmlns="http://www.w3.org/2000/svg" xmlns:xlink="http://www.w3.org/1999/xlink" x="0px" y="0px"
	 viewBox="0 0 154 57" style="enable-background:new 0 0 154 57;" xml:space="preserve">
<style type="text/css">
	.st0{fill:#FFEE02;}
	.st1{fill:none;}
	.st2{fill:#FFFFFF;}
</style>
<path id="Path_4" class="st0" d="M16.3,32.5L15.7,28L1.3,46.8L16.3,32.5z"/>
<g>
	<rect x="0.7" y="-0.4" class="st1" width="154" height="57"/>
	<path id="Subtraction_6" class="st0" d="M42.2,54.6c-10.6,0-20.3-6.4-24.4-16.2c-0.1-0.2-0.1-0.3-0.2-0.4l22.6-22.3l12.5,12.7
		l3.9-4.5L40.3,7.7l-13,13.5l0.1-4.9l-3.9-2l-3,3.4l2.8-1v2.7v6l-7.1,7.4C13.6,18.3,23.2,4.5,37.7,2s28.2,7.1,30.7,21.5
		c0.7,4,0.5,8.2-0.7,12.1l-9.4-9.4L38.1,46.7h8.2l12-12.4l6.7,7.5C60.2,49.7,51.5,54.6,42.2,54.6z M58.7,43.6v2h2v-2H58.7z
		 M55.7,43.6v2h2v-2H55.7z M58.7,40.6v2h2v-2H58.7z M55.7,40.6v2h2v-2H55.7z M40.3,17.3L19.8,38l0.2,0.2l20.1-18.1l9.8,7.9l0.3-0.3
		L40.3,17.3L40.3,17.3z M40.7,29.6v3h3v-3C43.7,29.6,40.7,29.6,40.7,29.6z M36.7,29.6v3h3v-3C39.7,29.6,36.7,29.6,36.7,29.6z
		 M40.7,24.6v3h3v-3H40.7z M36.7,24.6v3h3v-3H36.7z"/>
	<path id="Path_7" class="st0" d="M23.3,25.1v5.5l-0.7-5.3L23.3,25.1z"/>
	<path id="Path_8" class="st0" d="M23.7,30.2l-0.5-3.8L10.8,41.7L23.7,30.2z"/>
	<g>
		<path class="st2" d="M78.8,20.7h11.9V25h-7.3v2.7h6.5v4.4h-6.5v3.1h7.3v4.4H78.8V20.7z"/>
		<path class="st2" d="M106.5,39.6h-5.2l-2.2-3.1L97,39.6h-5.2l4.8-6.9L92,26.2h5.2l1.9,2.7l1.8-2.7h5.2l-4.4,6.4L106.5,39.6z"/>
		<path class="st2" d="M113,39.8c-2,0-3.6-0.7-4.9-2s-2-2.9-2-4.9s0.7-3.7,2-5s3-2,4.9-2c1.1,0,2.2,0.2,3.2,0.7s1.8,1.1,2.4,2
			c0.6,0.8,1,1.8,1.1,2.8h-4.4c-0.1-0.4-0.4-0.7-0.8-1s-0.9-0.4-1.4-0.4c-0.8,0-1.4,0.3-1.9,0.8s-0.8,1.2-0.8,2c0,0.8,0.3,1.4,0.8,2
			s1.1,0.8,1.9,0.8c0.6,0,1-0.1,1.5-0.4c0.4-0.3,0.7-0.6,0.8-1.1h4.4c-0.1,1.1-0.4,2-1,2.9s-1.4,1.5-2.4,2S114.2,39.8,113,39.8z"/>
		<path class="st2" d="M121.9,20.4c0.5-0.5,1.1-0.8,1.8-0.8s1.3,0.3,1.8,0.8s0.8,1.1,0.8,1.8c0,0.7-0.3,1.3-0.8,1.8
			s-1.1,0.8-1.8,0.8c-0.7,0-1.3-0.3-1.8-0.8s-0.8-1.1-0.8-1.8S121.3,20.9,121.9,20.4z M121.5,26.2h4.3v13.3h-4.3V26.2z"/>
		<path class="st2" d="M137.1,30.4H134v3.4c0,0.6,0.2,1.1,0.6,1.4s0.9,0.5,1.6,0.5c0.4,0,0.7,0,1-0.1v4c-0.5,0.1-1.2,0.2-2,0.2
			c-1.6,0-3-0.5-4-1.6s-1.5-2.5-1.5-4.3v-3.5h-2.4v-4.2h2.4v-3.4h4.3v3.4h3.2v4.2H137.1z"/>
		<path class="st2" d="M151.6,32.5c0,0.4,0,0.9-0.1,1.5H142c0.2,0.7,0.5,1.2,1,1.6s1.2,0.6,1.9,0.6c0.6,0,1.1-0.1,1.5-0.3
			s0.6-0.5,0.7-0.9h4.2c-0.2,1.5-0.9,2.6-2,3.5s-2.6,1.3-4.3,1.3c-1.3,0-2.5-0.3-3.6-0.9c-1.1-0.6-1.9-1.5-2.5-2.5
			c-0.6-1.1-0.9-2.2-0.9-3.5c0-1.9,0.7-3.6,2-4.9s3-2,4.9-2c1.2,0,2.3,0.3,3.3,0.9s1.8,1.4,2.4,2.4
			C151.3,30.2,151.6,31.3,151.6,32.5z M142.2,31.3h4.9c-0.1-0.5-0.3-1-0.7-1.3s-1-0.5-1.5-0.5C143.5,29.5,142.6,30.1,142.2,31.3z"/>
	</g>
</g>
</svg>
