<?xml version="1.0" encoding="utf-8"?>
<!-- Generator: Adobe Illustrator 27.0.0, SVG Export Plug-In . SVG Version: 6.00 Build 0)  -->
<svg version="1.1" id="Layer_1" xmlns="http://www.w3.org/2000/svg" xmlns:xlink="http://www.w3.org/1999/xlink" x="0px" y="0px"
	 viewBox="0 0 154 57" style="enable-background:new 0 0 154 57;" xml:space="preserve">
<style type="text/css">
	.st0{clip-path:url(#SVGID_00000102507452972471284100000003845339161078111635_);}
	.st1{fill:#FFFFFF;}
	.st2{fill:#F5841F;}
	.st3{font-family:'Gilroy-Black';}
	.st4{font-size:34.0359px;}
	.st5{font-size:10.9671px;}
</style>
<g>
	<defs>
		<rect id="SVGID_1_" y="-0.1" width="154" height="56"/>
	</defs>
	<clipPath id="SVGID_00000177456482833937007790000013002552737369834882_">
		<use xlink:href="#SVGID_1_"  style="overflow:visible;"/>
	</clipPath>
	<g style="clip-path:url(#SVGID_00000177456482833937007790000013002552737369834882_);">
		<g>
			<polygon class="st1" points="38.8,53.2 45.9,50 49.9,48.4 49.7,35.8 49.7,10.8 38.8,4.2 38.5,4 38.6,4.6 38.8,27.9 26.9,28 
				26.2,28.8 15.6,32.7 15.6,39.3 26.8,40.1 27,35.2 38.8,35.6 38.8,52.6 			"/>
			<path class="st2" d="M12.4,41.7l0-7.3l23.6-9.5l0.2-21.2L4.6,15.5v32.1l31.7,5.8L36,45.2L12.4,41.7z M29.5,14.5v7.8l-17.1,6.2
				l0-6.4L29.5,14.5z"/>
		</g>
		<text transform="matrix(1 0 0 1 54.6587 35.087)" class="st1 st3 st4">Excite</text>
		<text transform="matrix(1 0 0 1 55.3833 47.2823)" class="st1 st3 st5">Hardware  Limited</text>
	</g>
</g>
</svg>
