<?xml version="1.0" encoding="utf-8"?>
<!-- Generator: Adobe Illustrator 27.0.0, SVG Export Plug-In . SVG Version: 6.00 Build 0)  -->
<svg version="1.1" id="Layer_1" xmlns="http://www.w3.org/2000/svg" xmlns:xlink="http://www.w3.org/1999/xlink" x="0px" y="0px"
	 viewBox="0 0 439.4 155.9" style="enable-background:new 0 0 439.4 155.9;" xml:space="preserve">
<style type="text/css">
	.st0{fill:#FFFFFF;}
	.st1{fill:#F5841F;}
	.st2{font-family:'Gilroy-Black';}
	.st3{font-size:90px;}
	.st4{font-size:29px;}
</style>
<g>
	<polygon class="st0" points="113.2,143.3 132,134.7 142.4,130.5 142,97.1 142,31.2 113.2,13.7 112.4,13.2 112.5,14.7 113.2,76.4 
		81.7,76.8 79.7,78.7 51.8,89 51.8,106.6 81.4,108.6 82,95.7 113.2,96.6 113.2,141.7 	"/>
	<path class="st1" d="M43.3,112.8l-0.1-19.4l62.4-25.1l0.4-56.1L22.7,43.5v84.9l83.9,15.3l-1-21.6L43.3,112.8z M88.4,40.8v20.6
		L43.1,77.7l-0.1-17L88.4,40.8z"/>
</g>
<text transform="matrix(1 0 0 1 155.0608 95.3706)" class="st0 st2 st3">Excite</text>
<text transform="matrix(1 0 0 1 156.9767 127.6187)" class="st0 st2 st4">Hardware  Limited</text>
</svg>
