<?xml version="1.0" encoding="utf-8"?>
<!-- Generator: Adobe Illustrator 27.0.0, SVG Export Plug-In . SVG Version: 6.00 Build 0)  -->
<svg version="1.1" xmlns="http://www.w3.org/2000/svg" xmlns:xlink="http://www.w3.org/1999/xlink" x="0px" y="0px"
	 viewBox="0 0 620 630" style="enable-background:new 0 0 620 630;" xml:space="preserve">
<style type="text/css">
	.st0{fill:#F0EFFF;}
	.st1{fill:none;stroke:#D3C6FC;stroke-width:1.0481;stroke-miterlimit:10;}
	.st2{fill:#8F9AF8;}
	.st3{fill:#B8C3FF;}
	.st4{fill:#FFFFFF;}
	.st5{fill:#FFFFFF;stroke:#BBABF8;stroke-width:1.0481;stroke-miterlimit:10;}
	.st6{fill:#DAE0FF;}
	.st7{fill:#FAAF3B;}
	.st8{fill:#E8ECFF;}
	.st9{fill:#BBABF8;}
	.st10{fill:#E6DFFC;}
	.st11{fill:#FF7AA9;}
	.st12{fill:#FDFDFE;}
	.st13{clip-path:url(#SVGID_00000063623741247236720080000006087552501229665703_);}
	.st14{fill:#452828;}
	.st15{fill:#915046;}
	.st16{fill:#994F39;}
	.st17{fill:#AB6955;}
	.st18{fill:#B57A68;}
	.st19{fill:none;stroke:#A15545;stroke-width:1.8647;stroke-linecap:round;stroke-linejoin:round;stroke-miterlimit:10;}
	.st20{fill:#383757;}
	.st21{fill:none;stroke:#474463;stroke-width:1.8647;stroke-linecap:round;stroke-miterlimit:10;}
	.st22{fill:#474463;}
	.st23{fill:#615F7F;}
	.st24{fill:none;stroke:#383757;stroke-width:1.8647;stroke-miterlimit:10;}
	.st25{fill:none;stroke:#383757;stroke-width:1.8647;stroke-linecap:round;stroke-miterlimit:10;}
	.st26{fill:none;stroke:#915046;stroke-width:1.2164;stroke-linecap:round;stroke-miterlimit:10;}
	.st27{fill:#FF7A7A;}
	.st28{fill:none;stroke:#452828;stroke-width:1.8231;stroke-linecap:round;stroke-miterlimit:10;}
</style>
<g id="BACKGROUND">
	<g>
		<circle class="st0" cx="445.8" cy="322.1" r="60.8"/>
		<path class="st0" d="M546.3,591.9c12.9-9.9,24.2-21.4,32.7-35.2c17.2-28.1,19.2-67.6-2.9-92.1c-24.5-27.1-66.7-26.4-103.1-22.8
			c-36.4,3.6-77.8,6.4-104.6-18.5c-21.8-20.3-26.5-52.7-28.7-82.4s-4.1-61.7-22.7-85.1c-25-31.4-75.2-35.2-109-13.6
			c-33.8,21.6-51.5,63.1-51.9,103.2c-0.2,17.2,0.9,37.8-13.3,47.5c-11.3,7.7-26.8,3.9-39-2.4c-12.2-6.3-23.6-15-37.2-16.9
			c-18.1-2.4-36.1,8.5-46.1,23.7c-10,15.2-13.3,34-13.8,52.2c-1.6,51.7,18.1,103.3,52.1,142.2H546.3z"/>
	</g>
</g>
<g id="OBJECTS">
	<g>
		<g>
			<line class="st1" x1="-38.7" y1="591.2" x2="629.7" y2="591.2"/>
			<path class="st2" d="M470.9,584.2H275.1c-7.2,0-13.1,5.9-13.1,13.1h208.9V584.2z"/>
			<path class="st3" d="M534.4,496.4H398.9c-3.8,0-7.2,2.2-8.6,5.7l-37.4,87.6c-1.5,3.6,1.1,7.6,5,7.6h140c3.8,0,7.2-2.2,8.6-5.7
				l35.6-83.5C544.5,502.6,540.4,496.4,534.4,496.4z"/>
			<path class="st4" d="M464.2,548.8c-2.1,8.4-10.6,15.2-19,15.2c-8.4,0-13.6-6.8-11.5-15.2c2.1-8.4,10.6-15.2,19-15.2
				C461.2,533.5,466.3,540.3,464.2,548.8z"/>
		</g>
		<line class="st1" x1="261.7" y1="603.9" x2="499.5" y2="603.9"/>
		<line class="st1" x1="363.2" y1="610.7" x2="489.4" y2="610.7"/>
	</g>
	<g>
		<g>
			<path class="st5" d="M540.2,246.3H279.8c-11.8,0-21.3,9.5-21.3,21.3v110.8c0,11.8,9.5,21.3,21.3,21.3H380l17.9,17.9l17.9-17.9
				h124.3c11.8,0,21.3-9.5,21.3-21.3V267.6C561.5,255.9,552,246.3,540.2,246.3z"/>
			<g>
				<g>
					
						<ellipse transform="matrix(0.9216 -0.3881 0.3881 0.9216 -88.8343 142.0578)" class="st6" cx="307.2" cy="290.9" rx="22.3" ry="22.3"/>
					<polygon class="st7" points="353.6,270.7 357.7,283 370.6,282.9 360.2,290.5 364.3,302.8 353.8,295.3 343.4,302.9 347.3,290.6 
						336.8,283.1 349.7,283 					"/>
					<polygon class="st7" points="394.7,270.7 398.8,283 411.7,282.9 401.3,290.5 405.4,302.8 394.9,295.3 384.5,302.9 388.4,290.6 
						377.9,283.1 390.8,283 					"/>
					<polygon class="st7" points="435.9,270.7 439.9,283 452.8,282.9 442.5,290.5 446.5,302.8 436,295.3 425.7,302.9 429.6,290.6 
						419,283.1 432,283 					"/>
					<polygon class="st8" points="477,270.7 481.1,283 494,282.9 483.6,290.5 487.7,302.8 477.2,295.3 466.8,302.9 470.7,290.6 
						460.2,283.1 473.1,283 					"/>
					<polygon class="st8" points="518.1,270.7 522.2,283 535.1,282.9 524.7,290.5 528.8,302.8 518.3,295.3 507.9,302.9 511.8,290.6 
						501.3,283.1 514.2,283 					"/>
				</g>
				<g>
					<g>
						<rect x="283.8" y="323.1" class="st9" width="19.7" height="5.3"/>
						<rect x="308.3" y="323.1" class="st9" width="29.5" height="5.3"/>
					</g>
					<g>
						<g>
							<rect x="283.8" y="338.7" class="st10" width="42.4" height="5.3"/>
							<rect x="343.5" y="338.7" class="st10" width="99.2" height="5.3"/>
							<rect x="459.9" y="338.7" class="st10" width="76.3" height="5.3"/>
						</g>
						<g>
							<rect x="283.8" y="355.4" class="st10" width="94.8" height="5.3"/>
							<rect x="488.9" y="355.4" class="st10" width="47.4" height="5.3"/>
							<rect x="394.7" y="355.4" class="st10" width="83" height="5.3"/>
						</g>
						<g>
							<rect x="283.8" y="372.1" class="st10" width="121" height="5.3"/>
						</g>
					</g>
				</g>
			</g>
		</g>
		<g>
			<path class="st5" d="M592.6,162.1h-170c-7.7,0-13.9,6.2-13.9,13.9v34c0,7.7,6.2,13.9,13.9,13.9h170c7.7,0,13.9-6.2,13.9-13.9v-34
				C606.5,168.3,600.3,162.1,592.6,162.1z"/>
			<polygon class="st7" points="474.1,182.5 476.7,190.5 485.2,190.4 478.4,195.4 481,203.4 474.2,198.5 467.4,203.5 470,195.5 
				463.1,190.6 471.5,190.5 			"/>
			<polygon class="st7" points="500.9,182.5 503.6,190.5 512,190.4 505.2,195.4 507.9,203.4 501,198.5 494.3,203.5 496.8,195.5 
				489.9,190.6 498.4,190.5 			"/>
			<polygon class="st7" points="527.7,182.5 530.4,190.5 538.8,190.4 532.1,195.4 534.7,203.4 527.9,198.5 521.1,203.5 523.6,195.5 
				516.8,190.6 525.2,190.5 			"/>
			<polygon class="st7" points="554.6,182.5 557.3,190.5 565.7,190.4 558.9,195.4 561.6,203.4 554.7,198.5 547.9,203.5 550.5,195.5 
				543.6,190.6 552,190.5 			"/>
			<polygon class="st8" points="581.4,182.5 584.1,190.5 592.5,190.4 585.7,195.4 588.4,203.4 581.6,198.5 574.8,203.5 577.3,195.5 
				570.5,190.6 578.9,190.5 			"/>
			<g>
				
					<ellipse transform="matrix(0.1595 -0.9872 0.9872 0.1595 181.4797 593.6841)" class="st6" cx="439.4" cy="190.3" rx="12.4" ry="12.4"/>
				<g>
					<rect x="424.5" y="205.2" class="st9" width="11" height="2.9"/>
					<rect x="438.1" y="205.2" class="st9" width="16.4" height="2.9"/>
				</g>
			</g>
		</g>
		<g>
			<path class="st5" d="M155.7,218.6H39c-5.3,0-9.5,4.3-9.5,9.5v23.4c0,5.3,4.3,9.5,9.5,9.5h116.7c5.3,0,9.5-4.3,9.5-9.5v-23.4
				C165.2,222.9,161,218.6,155.7,218.6z"/>
			<polygon class="st7" points="74.3,232.6 76.1,238.1 81.9,238.1 77.3,241.5 79.1,247 74.4,243.7 69.7,247.1 71.5,241.6 
				66.8,238.2 72.6,238.2 			"/>
			<polygon class="st7" points="92.7,232.6 94.6,238.1 100.4,238.1 95.7,241.5 97.5,247 92.8,243.7 88.2,247.1 89.9,241.6 
				85.2,238.2 91,238.2 			"/>
			<polygon class="st7" points="111.2,232.6 113,238.1 118.8,238.1 114.1,241.5 116,247 111.3,243.7 106.6,247.1 108.3,241.6 
				103.6,238.2 109.4,238.2 			"/>
			<polygon class="st7" points="129.6,232.6 131.4,238.1 137.2,238.1 132.6,241.5 134.4,247 129.7,243.7 125,247.1 126.8,241.6 
				122.1,238.2 127.9,238.2 			"/>
			<polygon class="st8" points="148,232.6 149.9,238.1 155.6,238.1 151,241.5 152.8,247 148.1,243.7 143.5,247.1 145.2,241.6 
				140.5,238.2 146.3,238.2 			"/>
			<g>
				
					<ellipse transform="matrix(0.1621 -0.9868 0.9868 0.1621 -192.5192 249.2551)" class="st6" cx="50.5" cy="238" rx="8.5" ry="8.5"/>
				<g>
					<rect x="40.3" y="248.3" class="st9" width="7.5" height="2"/>
					<rect x="49.6" y="248.3" class="st9" width="11.3" height="2"/>
				</g>
			</g>
		</g>
	</g>
	<g>
		<g>
			<circle class="st11" cx="554.5" cy="399.9" r="25.9"/>
			<path class="st4" d="M562.2,390.1c-4.3,0-7.8,3.5-7.8,7.8c0-4.3-3.5-7.8-7.8-7.8s-7.8,3.5-7.8,7.8c0,9.7,15.6,17.9,15.6,17.9
				s15.6-8.1,15.6-17.9C570,393.6,566.6,390.1,562.2,390.1z"/>
		</g>
		<g>
			
				<ellipse transform="matrix(0.1615 -0.9869 0.9869 0.1615 -233.7961 315.9321)" class="st11" cx="69" cy="295.6" rx="25.9" ry="25.9"/>
			<path class="st4" d="M76.8,285.8c-4.3,0-7.8,3.5-7.8,7.8c0-4.3-3.5-7.8-7.8-7.8c-4.3,0-7.8,3.5-7.8,7.8
				c0,9.7,15.6,17.9,15.6,17.9s15.6-8.1,15.6-17.9C84.6,289.3,81.1,285.8,76.8,285.8z"/>
		</g>
		<g>
			<polygon class="st9" points="210.4,113.4 216.7,132.8 237.1,132.8 220.6,144.7 226.9,164.1 210.4,152.1 193.9,164.1 200.2,144.7 
				183.8,132.8 204.1,132.8 			"/>
			<polygon class="st9" points="241.5,159.8 246.3,174.6 261.8,174.6 249.2,183.7 254,198.5 241.5,189.4 228.9,198.5 233.7,183.7 
				221.1,174.6 236.7,174.6 			"/>
			<polygon class="st9" points="221.2,204.6 224,213.2 233,213.2 225.7,218.6 228.5,227.1 221.2,221.8 213.9,227.1 216.6,218.6 
				209.3,213.2 218.4,213.2 			"/>
		</g>
		<g>
			
				<ellipse transform="matrix(0.7071 -0.7071 0.7071 0.7071 -29.4366 494.2961)" class="st9" cx="581.9" cy="282.7" rx="33.5" ry="33.5"/>
			<polygon class="st4" points="565,266.2 565,277.8 588.4,283.2 565,288.6 565,300.2 608.4,283.2 			"/>
		</g>
		<g>
			<path class="st9" d="M383.8,128.7c0,27.1-22,49.1-48.8,49c-27.3-0.1-46.2-20.9-48.8-42.9c-1.7-14.6,2.2-27.5,11.8-38.5
				c9.7-11.1,22.2-16.8,36.9-16.7C361.5,79.5,383.9,101.2,383.8,128.7z"/>
			<g>
				<path class="st12" d="M341.6,147c-4.3,0-8.6,0-13,0c-1.6,0-2.1-0.5-2.1-2.1c0.1-6.7-0.3-13.5,0.2-20.2c0.3-4.3,2-8.2,4.7-11.6
					c1.8-2.3,3.7-4.6,5.8-6.6c0.7-0.7,1-1.4,1-2.4c0-1.2,0.1-2.3,0.1-3.5c0-1.4,0.4-2.6,1.8-3.2c1.4-0.6,2.8-0.3,3.9,0.8
					c1.1,1,1.5,2.4,1.9,3.9c0.9,3.6,0.2,7.1-1.3,10.4c-0.5,1.1-1,2.3-1.5,3.4c-0.4,0.7-0.1,1,0.6,1.1c0.3,0.1,0.7,0,1,0
					c3.9,0,7.8,0,11.6,0c2.1,0,3.5,1,4,2.8c0.6,2-0.2,4.3-2,5.3c-0.8,0.4-0.7,0.6-0.1,1.1c1.4,1,2.4,2.3,2.1,4.1
					c-0.2,1.4-0.9,2.4-2.3,2.8c-0.3,0.1-0.7,0.1-0.7,0.4c-0.1,0.4,0.4,0.4,0.6,0.6c1.9,1.4,2.1,5.1-0.6,6.2
					c-0.5,0.2-0.8,0.3-0.2,0.9c1.2,1.2,1.2,2.6,0.7,4c-0.5,1.4-1.8,1.8-3.2,1.8C350.3,146.9,345.9,147,341.6,147
					C341.6,147,341.6,147,341.6,147z"/>
				<path class="st12" d="M321.3,150.9c-3.6,0-7.1,0-10.7,0c-1.1,0-1.6-0.6-1.7-1.6c-0.1-0.5,0-1,0-1.6c0-7.5,0-15,0-22.5
					c0-1.8,0.5-2.3,2.3-2.3c3.2,0,6.4,0,9.6,0c1.3,0,1.9,0.6,1.9,1.8c0,7.9,0,15.7,0,23.6c0,0,0,0.1,0,0.1c-0.2,0.1-0.2,0.1,0,0.2
					c0.1,0.8,0,1.7-0.9,2c0-0.2-0.1-0.5-0.4-0.4C321.1,150.4,321.4,150.7,321.3,150.9z"/>
			</g>
		</g>
	</g>
	<g>
		<defs>
			<rect id="SVGID_1_" x="-39.1" y="325.1" width="412.5" height="266.9"/>
		</defs>
		<clipPath id="SVGID_00000157288616209711563630000009398917383605900681_">
			<use xlink:href="#SVGID_1_"  style="overflow:visible;"/>
		</clipPath>
		<g style="clip-path:url(#SVGID_00000157288616209711563630000009398917383605900681_);">
			<path class="st14" d="M185.1,366.6c1.6,8.2,1.2,16.7,1.8,25c0.6,8.3,2.5,17,8,23.3c4.7,5.4,11.6,8.7,14.9,15
				c2.5,4.8,2.5,10.6,0.6,15.7c-1.9,5.1-5.4,9.4-9.6,12.8c-14.2,11.9-35.6,13.8-52.5,6.1c-16.9-7.8-29-24.3-33-42.4
				c-4-18.1-0.2-37.5,8.7-53.8c5.1-9.2,12-17.7,21.4-22.4c7.7-3.9,19.4-5.4,27.2-0.7C179.4,349.3,183.6,359.4,185.1,366.6z"/>
			<g>
				<g>
					<g>
						<path class="st15" d="M319.3,553.1c0,0-3,6.5-10.7,2.6l-5,9.5l12.6,6.7l9.1-17.2l-3.6-17c0,0-3.4,1.3-3.3,5
							C318.4,546.4,319.3,553.1,319.3,553.1z"/>
						<path class="st16" d="M330.8,575.4c0.1-4-2.1-7.7-5.6-9.6l-13.2-7l-2.7,5.1L330.8,575.4z"/>
						<path class="st17" d="M334.5,581.3c0.1-4-2.1-7.7-5.6-9.6l-15.1-8l-2.7,5.1L334.5,581.3z"/>
						<polygon class="st7" points="316.8,521.5 321.2,534.7 335.1,534.6 323.9,542.8 328.3,556 317,547.9 305.9,556.2 310,542.9 
							298.8,534.9 312.6,534.7 						"/>
						<path class="st18" d="M308.3,555.6l0.6-4.6l5.3-4.2c1.6-1.3,2.6-3.2,2.6-5.3l0-0.5l-16.3,5.8l-7.1,8.4l-4.6,8.6l24.6,13
							l1.7-3.2c3.3-6.2,0.9-13.9-5.3-17.2L308.3,555.6z"/>
						<path class="st18" d="M330.8,586c0.1-4-2.1-7.7-5.6-9.6l-15.1-8l-2.7,5.1L330.8,586z"/>
						<path class="st19" d="M308.1,555.2c-1.5,2.4-3.5,4.5-5.8,6.1"/>
					</g>
					<polygon class="st18" points="220.2,555.1 295.1,556.3 294.8,566.6 205.7,580.2 					"/>
				</g>
				<path class="st20" d="M151,459h22c10.4,0,19.6,6.6,22.9,16.4l31.9,93.3c0,0-2.2,17.3-15.7,18.8c-5.1,0.6-9.9-2.2-12.3-6.7
					L151,488.3V459z"/>
				<g>
					<path class="st20" d="M206.6,553.6l72.2,2.4L255,586l-45.6,2.7c-6,0.4-10.7-5.3-9.1-11.1l3-11.4L206.6,553.6z"/>
					<path class="st21" d="M220.2,555.1c-5.9,3.6-12.5,9.1-15.6,15.2"/>
					<path class="st21" d="M220.2,555.1c-7.6,0.3-17.1,1.3-22.7,6.6"/>
				</g>
			</g>
			<g>
				<path class="st4" d="M167.3,661.5c-11.8,1.2-24,0.9-35.7-0.2c-18.8-1.8-35.3-10.7-51.5-19.7c-2.3-1.3-4.7-2.6-7-4
					c8.5-13.5,19.4-27.4,31.9-36.3h62.4l20.2,55.3C181.2,659.5,173.9,660.8,167.3,661.5z"/>
				<path class="st22" d="M95,598.4L76.9,473.5l9.1-14.7h83l22.8,61.4c0,0-19.1,59.1-19.1,81l21,60.9l-24.8,9.5l-19.1-58.6l-21,58.1
					l-65.3-27.2L95,598.4z"/>
				<polygon class="st20" points="76.9,473.5 86.1,458.6 98,458.6 101.5,488.3 90.1,564.1 				"/>
				<polygon class="st4" points="165.1,459.2 165.1,529.5 106.3,459.2 				"/>
				<path class="st18" d="M129,476.1c-4.1-1-8.2-2.4-12-4.1l-11.2-13.4h59.4v10.3C156.8,478.8,141.1,479,129,476.1z"/>
				<polygon class="st23" points="105.8,458.6 105.8,502.5 130.9,502.5 117,532 166.9,531.7 				"/>
				<polygon class="st23" points="165.1,458.6 168.9,458.6 198.3,502.5 175.1,502.5 200.2,532 166.9,532 165.5,532 				"/>
				<path class="st24" d="M165.4,532c-5.7,26.8-9.8,53.9-15.5,80.6"/>
				<path class="st24" d="M177.7,618.2c-4.9,1.6-10,2.4-15.1,2.3"/>
				<path class="st24" d="M122.9,619.9c-9.3-0.5-18.5-2.9-26.9-7"/>
			</g>
			<path class="st22" d="M101.5,458.6h-22c-10.4,0-19.6,6.6-22.9,16.4l-31.9,93.3c0,0,0.4,6.9,3.6,12.8c5.1,9.4,17.7,11.8,22.7,2.4
				l50.5-95.5V458.6z"/>
			<g>
				<path class="st15" d="M132,558.9l6,5.2l14.4,3.3l-0.1-0.5c-0.3-2-1.5-3.8-3.3-4.9l-3.6-2.9l1-4l6.1-5l-7.4-6.4L129.6,554
					L132,558.9z"/>
				<polygon class="st7" points="146.1,548.6 156.1,558.2 168.3,551.6 162.3,564.1 172.4,573.7 158.6,571.8 152.6,584.3 
					150.1,570.7 136.4,568.8 148.6,562.3 				"/>
				<path class="st15" d="M155.1,553.7c0,0-3.1-4.8-8.8-0.9l-5-7l10.3-7.2l9.1,12.7l-2,11.6c0,0-2.8-0.7-3.2-3.6
					C155.2,556.4,155.1,553.7,155.1,553.7z"/>
				<path class="st18" d="M132.7,559.9l-6-8l22.3-17.2l2.1,2.9c4.1,5.7,3.9,10.9,0.4,13.7l-4.8,3.8L132.7,559.9z"/>
				<path class="st18" d="M165.4,542.1c0.6-0.2,1.2,0.5,0.9,1.1c-1.1,2.5-3.2,4.3-5.9,5l-13.6,3.3l-1.1-4.6L165.4,542.1z"/>
				<path class="st18" d="M163.5,522.9c0.6-0.5,1.6-0.1,1.6,0.8c0.1,3.3-1.3,6.5-4,8.7l-13.4,10.8l-3.7-4.6L163.5,522.9z"/>
				<path class="st18" d="M166.4,532.4c0.7-0.4,1.6,0.3,1.4,1.1c-0.6,3.2-2.7,6.1-5.7,7.6l-13.4,6.7l-2.6-5.2L166.4,532.4z"/>
			</g>
			<g>
				<path class="st22" d="M48.3,549.4l73.6-0.4l-22.9,32l-57.1,8.6c-7.4,1.1-13.6-5.4-12.3-12.7C31.7,565,36.6,550.4,48.3,549.4z"/>
				<line class="st25" x1="68.3" y1="549.3" x2="44.2" y2="549.8"/>
				<line class="st25" x1="68.3" y1="549.3" x2="43.1" y2="556"/>
			</g>
			<g>
				<path class="st18" d="M120.2,399.9l2.6,64.8c0.1,2.6,2.2,4.7,4.9,4.7h31.9c4,0,5.9-4.8,3.1-7.6c-6.1-6-12.3-16.2-12.3-33.3
					v-27.3L120.2,399.9z"/>
				<path class="st15" d="M135,400.5l15.4,0.7v27.3c0,7.5,1.2,13.7,3.1,18.7C135.7,441.2,129.8,417.6,135,400.5z"/>
			</g>
			<g>
				<g>
					<g>
						<path class="st18" d="M128.1,424.2c-2.2-1.5-4.3-3.2-6.3-5.2c-10.2-9.9-16.3-23.4-17.8-37.6c-1.3-13.2,1.3-26.3,12.3-35.1
							c11.7-9.3,30-10.1,43.3-3.7c12.6,6.2,19.6,18,22.2,31.5c1.3,6.7,1.6,13.5,1.7,20.3c0.2,12.7-1.8,37.2-16.4,40.3
							C151.2,437.9,139.7,432,128.1,424.2z"/>
					</g>
					<path class="st14" d="M177.2,368.4c4.2,6,5.4,13.5,6.5,20.8c2.6-9.3,2.6-19.3,0-28.6c-1.2-4.4-3.1-8.6-6.1-12
						c-3-3.4-7.3-5.7-11.9-5.7c-7.1,0.1-15.6,9.8-8.3,15.7c2.2,1.8,6,1.4,8.7,2.1C170.6,362,174.5,364.6,177.2,368.4z"/>
					<path class="st14" d="M160.2,373.8c-4.8,4.3-10.7,7.2-17,8.5c-6.5,1.4-14.3,1-19.1,6.2c-14.7,15.7-2.3,34.6,5.2,50.4
						c3.8,8,7.7,17.2,5.6,26.2c-2.6,11.5-13.8,17-24.9,17c-17.9,0.1-31.8-13.2-35.4-30.4c-1.9-8.9-0.6-17.7,2.9-26
						c3.2-7.6,8.3-14.4,10.8-22.3c4.1-12.7-1.7-26,2.4-38.9c8.2-25.6,47.5-50.7,71.5-29.8C176.1,346.7,171.6,363.5,160.2,373.8z"/>
					<path class="st14" d="M125.1,379.4c-3.2,3.1-5.3,7.4-5.8,11.8c-0.5,5.1,0.8,10.1,3.4,14.6l3.3-0.6c0.3-5.8,1.8-11.5,3.6-16.9
						c0.8-2.5,1.8-4.9,3-7.3C131.6,376.5,128,376.7,125.1,379.4z"/>
				</g>
				<g>
					<path class="st26" d="M168.5,392.3c0.9,4.3,2.7,8.3,5.1,12c0.8,1.3,1.8,2.7,1.5,4.2c-0.3,1.4-1.7,2.2-3,2.9"/>
					<g>
						<path class="st27" d="M163.5,419.9c0.3,2,2.2,3.3,4.2,2.9c2-0.3,3.3-2.2,2.9-4.2c-0.3-2-2.2-3.3-4.2-2.9
							C164.5,416.1,163.2,418,163.5,419.9z"/>
						<path class="st26" d="M172.6,417.3c-3.8,2.2-8.6,2.6-12.7,0.8"/>
					</g>
					<g>
						<path class="st28" d="M181.2,380.6c-3.3-1.8-6.7-1.4-9.2,1.2"/>
					</g>
					<g>
						<path class="st28" d="M155.8,383.9c-4.6-1.5-9.4-0.7-13.2,2.2"/>
					</g>
					<path class="st14" d="M155,394c0.3,1.8-0.9,3.4-2.6,3.8c-1.8,0.3-3.4-0.9-3.8-2.6c-0.3-1.8,0.9-3.4,2.6-3.8
						C153,391.1,154.7,392.3,155,394z"/>
					
						<ellipse transform="matrix(0.1626 -0.9867 0.9867 0.1626 -238.7541 502.1814)" class="st14" cx="176.5" cy="391.7" rx="3.2" ry="3.2"/>
				</g>
				<g>
					<path class="st18" d="M121.9,398c-2.2-1.9-5.4-2.9-8.1-1.8c-2.2,0.9-3.7,3-4.2,5.3c-0.5,2.3-0.2,4.7,0.6,6.9
						c2.5,7,9.5,12.2,16.9,12.5c1.5,0.1,0.7-12.2,0.5-13.4C126.9,403.9,124.6,400.3,121.9,398z"/>
					<path class="st4" d="M125,417.6c0.3,1.7-0.9,3.4-2.6,3.7c-1.7,0.3-3.4-0.9-3.7-2.6c-0.3-1.7,0.9-3.4,2.6-3.7
						C123,414.7,124.7,415.8,125,417.6z"/>
					<path class="st26" d="M114.4,401.2c1.3-1.1,3.2-1.2,4.7-0.5c1.5,0.7,2.7,2,3.4,3.5c0.7,1.5,1,3.2,1.2,4.8
						c-0.8-0.8-2.2-0.9-3.1-0.2c-0.9,0.7-1.3,2-0.8,3c0.5,1,1.7,1.6,2.8,1.3"/>
				</g>
			</g>
		</g>
	</g>
</g>
</svg>
