<?xml version="1.0" encoding="utf-8"?>
<!-- Generator: Adobe Illustrator 27.0.0, SVG Export Plug-In . SVG Version: 6.00 Build 0)  -->
<svg version="1.1" xmlns="http://www.w3.org/2000/svg" xmlns:xlink="http://www.w3.org/1999/xlink" x="0px" y="0px"
	 viewBox="0 0 415 585" style="enable-background:new 0 0 415 585;" xml:space="preserve">
<style type="text/css">
	.st0{fill:#EBEBEB;}
	.st1{fill:#FFFFFF;}
	.st2{fill:#FAFAFA;}
	.st3{fill:#E0E0E0;}
	.st4{display:none;}
	.st5{display:inline;}
	.st6{fill:#F5F5F5;}
	.st7{fill:#F6851F;}
	.st8{fill:#263238;}
	.st9{opacity:0.3;}
	.st10{fill:#455A64;}
	.st11{opacity:0.2;}
	.st12{fill:none;stroke:#000000;stroke-width:5.000000e-02;stroke-miterlimit:10;}
	.st13{fill:#FFBF9D;}
	.st14{fill:#FF9A6C;}
</style>
<g id="Background_Complete">
	<g>
		<g>
			<g>
				<g>
					<g>
						<g>
							
								<rect x="305.7" y="305.3" transform="matrix(-1 -1.224647e-16 1.224647e-16 -1 675.9547 660.235)" class="st0" width="64.5" height="49.7"/>
						</g>
					</g>
				</g>
				<g>
					<g>
						<g>
							
								<rect x="310.4" y="341.9" transform="matrix(-1 -1.224647e-16 1.224647e-16 -1 628.4688 692.4986)" class="st1" width="7.8" height="8.8"/>
						</g>
					</g>
				</g>
				<g>
					<g>
						<g>
							<rect x="343.2" y="305.4" class="st2" width="7.3" height="10.6"/>
						</g>
					</g>
				</g>
				<g>
					<g>
						<g>
							<rect x="343.2" y="344.2" class="st2" width="7.3" height="10.6"/>
						</g>
					</g>
				</g>
			</g>
		</g>
		<g>
			<g>
				<g>
					<g>
						<path class="st3" d="M321.8,355.3c-0.1,0-0.2-10.9-0.2-24.4c0-13.5,0.1-24.4,0.2-24.4c0.1,0,0.2,10.9,0.2,24.4
							C322,344.4,321.9,355.3,321.8,355.3z"/>
					</g>
				</g>
			</g>
		</g>
	</g>
	<g>
		<g>
			<g>
				<g>
					<g>
						<g>
							
								<rect x="279.4" y="354.8" transform="matrix(-1 -1.224647e-16 1.224647e-16 -1 670.1307 795.4302)" class="st0" width="111.2" height="85.8"/>
						</g>
					</g>
				</g>
				<g>
					<g>
						<g>
							
								<rect x="287.4" y="418" transform="matrix(-1 -1.224647e-16 1.224647e-16 -1 588.1982 851.0982)" class="st1" width="13.4" height="15.2"/>
						</g>
					</g>
				</g>
				<g>
					<g>
						<g>
							<rect x="344.1" y="355" class="st2" width="12.6" height="18.3"/>
						</g>
					</g>
				</g>
				<g>
					<g>
						<g>
							<rect x="344.1" y="422.1" class="st2" width="12.6" height="18.3"/>
						</g>
					</g>
				</g>
			</g>
		</g>
		<g>
			<g>
				<g>
					<g>
						<path class="st3" d="M307.2,441.2c-0.2,0-0.4-18.9-0.4-42.1c0-23.3,0.2-42.1,0.4-42.1c0.2,0,0.4,18.9,0.4,42.1
							C307.6,422.3,307.4,441.2,307.2,441.2z"/>
					</g>
				</g>
			</g>
		</g>
	</g>
	<g>
		<polygon class="st0" points="387.2,176.4 393.1,188.4 406.4,190.4 396.8,199.8 399.1,213 387.2,206.8 375.2,213 377.5,199.8 
			367.9,190.4 381.2,188.4 		"/>
	</g>
	<g>
		<polygon class="st0" points="32.3,332.3 36.1,339.9 44.5,341.1 38.4,347 39.8,355.4 32.3,351.4 24.8,355.4 26.2,347 20.2,341.1 
			28.6,339.9 		"/>
	</g>
	<g>
		<polygon class="st0" points="37,266 45.3,282.9 64,285.6 50.5,298.7 53.7,317.3 37,308.5 20.3,317.3 23.5,298.7 10,285.6 
			28.6,282.9 		"/>
	</g>
	<g>
		<polygon class="st0" points="381.8,230.9 385.4,238.2 393.5,239.3 387.7,245 389,253 381.8,249.2 374.7,253 376,245 370.2,239.3 
			378.3,238.2 		"/>
	</g>
	<g>
		<polygon class="st0" points="269.5,85.6 273.6,93.7 282.6,95 276.1,101.4 277.6,110.4 269.5,106.1 261.5,110.4 263,101.4 
			256.5,95 265.5,93.7 		"/>
	</g>
	<g>
		<polygon class="st0" points="346.1,190.8 348.5,195.6 353.7,196.3 349.9,200.1 350.8,205.3 346.1,202.8 341.4,205.3 342.3,200.1 
			338.5,196.3 343.8,195.6 		"/>
	</g>
	<g>
		<polygon class="st0" points="118.4,442.6 123.6,453 135,454.7 126.7,462.8 128.7,474.2 118.4,468.8 108.2,474.2 110.1,462.8 
			101.8,454.7 113.3,453 		"/>
	</g>
	<g>
		<polygon class="st0" points="132,432.3 134.1,436.6 138.8,437.3 135.4,440.6 136.2,445.3 132,443.1 127.7,445.3 128.5,440.6 
			125.1,437.3 129.9,436.6 		"/>
	</g>
</g>
<g id="Background_Simple" class="st4">
	<g class="st5">
		<path class="st6" d="M419.8,387.8l-1-0.9c-8.6-7.5-20.5-9.8-31-5.7c-1.3,0.5-2.7,1.2-3.9,1.9c-9.1,5.2-15.2,15.3-15.7,25.8
			c-0.3,6.2,1.2,12.8-1.3,18.4c-3.3,7.4-11.9,10.3-19.6,12.5c-7.7,2.2-16.3,5.2-19.5,12.6c-2,4.6-1.4,10.1,0.4,14.8
			c4.8,12.6,17.3,21.1,30.5,23.2c13.1,2.1,26.6-1.7,38.2-8.2c16.2-9.1,29.7-24,34.9-42C436.8,422.3,432.9,401.2,419.8,387.8z"/>
	</g>
	<g class="st5">
		<path class="st6" d="M368,107.6l-1.3,0.5c-10.7,3.9-18.5,13.2-20,24.4c-0.2,1.4-0.3,2.9-0.3,4.3c0.2,10.5,6,20.7,15,26.3
			c5.3,3.3,11.8,5.2,15.5,10.1c4.9,6.4,3.3,15.4,1.5,23.2c-1.8,7.8-3.4,16.8,1.5,23.2c3.1,4,8.1,6.1,13.2,6.8
			c13.3,1.9,26.9-4.9,35.1-15.4s11.4-24.1,11.4-37.4c0-18.6-6.6-37.6-19.8-50.8C406.4,109.4,386.1,102.7,368,107.6z"/>
	</g>
	<g class="st5">
		<path class="st6" d="M-1.3,415.9l0.7-1.2c5.9-9.7,16.6-15.6,27.8-14.9c1.4,0.1,2.9,0.3,4.3,0.6c10.2,2.2,19.1,9.9,22.8,19.8
			c2.2,5.8,2.8,12.5,6.9,17.2c5.4,6,14.5,6.2,22.5,6c8-0.2,17.1,0,22.4,6c3.3,3.8,4.4,9.2,4.1,14.2c-0.7,13.4-10.1,25.4-22,31.4
			c-11.9,6-25.9,6.5-38.9,3.9c-18.2-3.7-35.6-13.8-46-29.4C-7,453.9-9.7,432.7-1.3,415.9z"/>
	</g>
	<g class="st5">
		
			<ellipse transform="matrix(0.2322 -0.9727 0.9727 0.2322 -8.9154 646.7831)" class="st6" cx="405.2" cy="329" rx="25.1" ry="25.1"/>
	</g>
	<g class="st5">
		
			<ellipse transform="matrix(0.7071 -0.7071 0.7071 0.7071 9.6625 214.3858)" class="st6" cx="263.6" cy="95.5" rx="25.1" ry="25.1"/>
	</g>
	<g class="st5">
		
			<ellipse transform="matrix(0.2212 -0.9752 0.9752 0.2212 -331.4903 298.1524)" class="st6" cx="20.9" cy="356.6" rx="25.1" ry="25.1"/>
	</g>
</g>
<g id="Stars">
	<g>
		<polygon class="st7" points="310.4,386.7 314.4,394.8 323.4,396.1 316.9,402.5 318.4,411.5 310.4,407.2 302.3,411.5 303.8,402.5 
			297.3,396.1 306.3,394.8 		"/>
	</g>
	<g>
		<polygon class="st7" points="329.6,379.4 331.5,383.3 335.7,383.9 332.6,386.9 333.4,391.1 329.6,389.1 325.8,391.1 326.5,386.9 
			323.4,383.9 327.7,383.3 		"/>
	</g>
</g>
<g id="Speech_Bubble">
	<g>
		<g>
			<g>
				<g>
					<g>
						<g>
							<g>
								<g>
									<g>
										<g>
											<g>
												<g>
													<g>
														<g>
															<g>
																<path class="st2" d="M304.4,167l3.2-9.9c-2.5-4.9-3.6-10.6-3.1-16.4c1.5-16.9,16.5-29.3,33.4-27.8
																	c16.9,1.5,29.4,16.5,27.9,33.4c-1.5,16.9-16.5,29.3-33.4,27.8c-7.1-0.6-12.9-3.2-17.7-7.7l0,0L304.4,167z"/>
															</g>
															<g>
																<g>
																	<path class="st8" d="M304.4,167c0,0,0.2,0,0.7-0.1c0.5,0,1.1-0.1,2-0.1c1.7-0.1,4.3-0.3,7.6-0.5l0,0l0,0
																		c2.9,2.7,7.3,5.7,13.3,6.9c1.5,0.3,3.1,0.6,4.7,0.7c0.8,0,1.7,0.1,2.5,0.1c0.8,0,1.7-0.1,2.6-0.1
																		c3.5-0.3,7.1-1.3,10.6-3c3.5-1.7,6.8-4.2,9.6-7.4c2.8-3.2,5.1-7.1,6.3-11.4c1.3-4.4,1.6-9.1,0.8-13.8
																		c-0.1-1.2-0.5-2.3-0.8-3.5c-0.1-0.6-0.4-1.1-0.6-1.7c-0.2-0.6-0.4-1.1-0.7-1.7c-1-2.2-2.2-4.4-3.8-6.3
																		c-0.7-1-1.6-1.9-2.4-2.8c-0.4-0.5-0.9-0.8-1.3-1.3c-0.5-0.4-0.9-0.8-1.4-1.2l-1.5-1.1L352,118l-0.8-0.5l-1.5-0.9
																		c-0.5-0.3-1.1-0.5-1.6-0.8c-4.3-2-9-3-13.5-2.9c-4.5,0.1-8.9,1.2-12.7,3c-3.8,1.8-7.1,4.4-9.7,7.3
																		c-2.6,2.9-4.5,6.2-5.7,9.4c-0.1,0.4-0.3,0.8-0.4,1.2c-0.2,0.4-0.3,0.8-0.4,1.2c-0.2,0.8-0.4,1.6-0.6,2.4
																		c-0.2,1.6-0.5,3.2-0.5,4.7c-0.2,6.1,1.4,11.2,3.1,14.7l0,0l0,0c-1,3.2-1.8,5.6-2.4,7.3c-0.3,0.8-0.5,1.5-0.6,1.9
																		C304.5,166.7,304.4,167,304.4,167s0.1-0.2,0.2-0.6c0.1-0.4,0.3-1.1,0.6-1.9c0.5-1.7,1.3-4.2,2.3-7.4l0,0.1
																		c-1.8-3.6-3.5-8.7-3.2-14.8c0-1.5,0.3-3.1,0.5-4.8c0.2-0.8,0.4-1.6,0.6-2.5c0.1-0.4,0.2-0.8,0.4-1.2
																		c0.1-0.4,0.3-0.8,0.4-1.2c1.2-3.3,3.1-6.6,5.7-9.6c2.6-3,5.9-5.6,9.8-7.4c3.9-1.9,8.3-3,12.9-3.1
																		c4.6-0.1,9.3,0.9,13.7,2.9c0.5,0.3,1.1,0.5,1.6,0.8l1.6,0.9l0.8,0.5l0.7,0.5l1.5,1.1c0.5,0.4,0.9,0.8,1.4,1.2
																		c0.5,0.4,1,0.8,1.4,1.3c0.8,0.9,1.7,1.8,2.5,2.9c1.6,2,2.8,4.2,3.8,6.4c0.2,0.6,0.4,1.2,0.7,1.7
																		c0.2,0.6,0.5,1.1,0.6,1.7c0.3,1.2,0.7,2.4,0.8,3.6c0.8,4.8,0.5,9.6-0.8,14c-1.3,4.4-3.6,8.4-6.4,11.6
																		c-2.8,3.2-6.2,5.7-9.8,7.4c-3.5,1.7-7.2,2.7-10.8,3c-0.9,0-1.8,0.1-2.6,0.1c-0.9,0-1.7-0.1-2.5-0.1
																		c-1.7-0.1-3.2-0.4-4.7-0.7c-6.1-1.3-10.5-4.4-13.4-7.1l0.1,0c-3.3,0.2-5.9,0.3-7.6,0.4c-0.8,0-1.5,0.1-1.9,0.1
																		C304.6,166.9,304.4,167,304.4,167z"/>
																</g>
															</g>
														</g>
													</g>
												</g>
											</g>
										</g>
									</g>
								</g>
							</g>
						</g>
					</g>
				</g>
			</g>
		</g>
		<g>
			<g>
				<g>
					<g>
						<polygon class="st7" points="317.6,142.3 322.7,137.9 331.2,146.6 350.3,130.7 354.4,135.8 329.9,155.7 						"/>
					</g>
				</g>
			</g>
		</g>
	</g>
</g>
<g id="Form">
	<g>
		<g>
			<g>
				<g>
					<g>
						<g>
							<g>
								<path class="st3" d="M251.4,386.3L80.4,424.4c-4.2,0.9-8.3-1.7-9.2-5.8L15.6,169.4c-0.9-4.2,1.7-8.3,5.8-9.2l171.1-38.1
									c4.2-0.9,8.3,1.7,9.2,5.8l55.5,249.1C258.2,381.2,255.6,385.4,251.4,386.3z"/>
							</g>
						</g>
					</g>
					<g>
						<g>
							<g>
								<g>
									<path class="st8" d="M251.4,386.3c0,0,0.2-0.1,0.6-0.2c0.4-0.1,0.9-0.3,1.6-0.7c0.7-0.4,1.4-1,2.2-1.9
										c0.7-0.9,1.3-2.1,1.6-3.6c0.1-0.7,0.1-1.6,0-2.4c-0.1-0.8-0.4-1.7-0.6-2.6c-0.4-1.8-0.9-3.8-1.3-6c-1-4.3-2.1-9.3-3.3-14.9
										c-5-22.5-12.3-55-21.3-95.1c-4.5-20.1-9.4-42.1-14.7-65.7c-2.6-11.8-5.4-24-8.2-36.6c-1.4-6.3-2.8-12.7-4.3-19.1
										c-0.7-3.2-1.5-6.5-2.2-9.8c-0.4-1.6-1.4-3-2.6-4.1c-1.3-1-2.9-1.6-4.6-1.6c-0.8,0-1.6,0.2-2.5,0.4
										c-0.8,0.2-1.7,0.4-2.5,0.6c-1.7,0.4-3.3,0.7-5,1.1c-3.4,0.7-6.7,1.5-10.1,2.3c-6.8,1.5-13.7,3-20.6,4.6
										c-13.9,3.1-28.1,6.3-42.5,9.5c-28.9,6.4-58.8,13.1-89.4,19.9c-1.9,0.4-3.6,1.6-4.6,3.2c-1.1,1.6-1.5,3.6-1.2,5.5
										c0.8,3.8,1.7,7.6,2.5,11.4c1.7,7.6,3.4,15.1,5,22.5c3.3,14.9,6.6,29.6,9.8,44.1c6.4,28.9,12.6,56.8,18.6,83.3
										c5.9,26.6,11.5,51.8,16.8,75.4c0.7,3,1.3,5.9,2,8.8c0.3,1.4,0.6,2.9,1,4.3c0.4,1.4,1.2,2.7,2.2,3.6c1.1,1,2.4,1.6,3.8,1.9
										c0.7,0.1,1.4,0.1,2.1,0.1c0.7-0.1,1.4-0.3,2.1-0.4c2.8-0.6,5.6-1.2,8.3-1.8c11-2.4,21.5-4.8,31.5-7
										c40.2-8.9,72.7-16.1,95.1-21.1c11.2-2.5,20-4.4,25.9-5.7c3-0.7,5.2-1.1,6.7-1.5C250.7,386.4,251.4,386.3,251.4,386.3
										s-0.8,0.2-2.3,0.5c-1.5,0.3-3.8,0.9-6.7,1.5c-5.9,1.3-14.6,3.3-25.9,5.8c-22.5,5-54.9,12.3-95.1,21.3
										c-10,2.2-20.6,4.6-31.5,7c-2.7,0.6-5.5,1.2-8.3,1.9c-0.7,0.2-1.4,0.3-2.1,0.4c-0.7,0.1-1.5,0.1-2.2-0.1
										c-1.5-0.3-2.8-0.9-3.9-1.9c-1.1-1-1.9-2.3-2.3-3.8c-0.4-1.4-0.7-2.9-1-4.3c-0.6-2.9-1.3-5.8-2-8.8
										c-5.3-23.6-10.9-48.8-16.8-75.4c-5.9-26.6-12.1-54.4-18.6-83.3c-3.2-14.4-6.5-29.2-9.8-44.1c-1.7-7.5-3.3-15-5-22.5
										c-0.8-3.8-1.7-7.6-2.5-11.4c-0.4-2,0.1-4.1,1.2-5.7c1.1-1.7,2.9-2.9,4.8-3.3c30.6-6.8,60.5-13.5,89.4-19.9
										c14.4-3.2,28.6-6.4,42.5-9.5c6.9-1.5,13.8-3.1,20.6-4.6c3.4-0.8,6.8-1.5,10.1-2.3c1.7-0.4,3.4-0.7,5-1.1
										c0.8-0.2,1.7-0.4,2.5-0.6c0.8-0.2,1.7-0.4,2.6-0.4c1.7,0,3.5,0.6,4.8,1.7c1.3,1.1,2.4,2.6,2.8,4.2c0.7,3.3,1.5,6.5,2.2,9.8
										c1.4,6.5,2.9,12.8,4.3,19.1c2.8,12.6,5.5,24.8,8.1,36.6c5.3,23.6,10.1,45.6,14.6,65.7c8.9,40.2,16.1,72.7,21.1,95.1
										c1.2,5.6,2.4,10.6,3.3,14.9c0.5,2.2,0.9,4.2,1.3,6c0.2,0.9,0.4,1.8,0.6,2.6c0.1,0.8,0.1,1.7,0,2.4
										c-0.2,1.5-0.9,2.7-1.6,3.6c-0.7,0.9-1.5,1.5-2.2,1.9c-0.7,0.4-1.2,0.6-1.6,0.7C251.6,386.2,251.4,386.3,251.4,386.3z"/>
								</g>
							</g>
						</g>
					</g>
				</g>
				<g class="st9">
					<g>
						<g>
							<polygon points="89,415.6 244.9,379.9 240,349.4 231.2,332.3 82,390.8 							"/>
						</g>
					</g>
				</g>
				<g class="st9">
					<g>
						<g>
							<polygon points="154.1,131.2 160,141 161.2,146.1 157.2,147 							"/>
						</g>
					</g>
				</g>
				<g>
					<g>
						<g>
							<polygon class="st1" points="24.5,170.9 78.6,413.5 248.1,375.8 238.5,332.4 194,133.1 							"/>
						</g>
					</g>
					<g>
						<g>
							<g>
								<path class="st8" d="M24.5,170.9C25.7,170.6,91,156,194,132.9l0.1,0l0,0.1c15,67.4,33.8,151.6,54.1,242.6l0,0l0,0.2l-0.2,0
									c-60.6,13.5-118.2,26.3-169.5,37.8l-0.2,0l0-0.2C46.6,270.3,24.9,172.3,24.5,170.9c0.3,1.5,22.2,99.4,54.2,242.6l-0.2-0.1
									c51.4-11.5,108.9-24.3,169.5-37.8l-0.1,0.2l0,0c-20.3-91.1-39-175.2-54-242.7l0.2,0.1C91,156.1,25.7,170.6,24.5,170.9z"/>
							</g>
						</g>
					</g>
				</g>
			</g>
			<g>
				<g>
					<g>
						<g>
							<path class="st8" d="M158.1,149l-85.8,19.1L68,148.7c-0.7-3,1.2-6.1,4.3-6.7l74.8-16.7c3-0.7,6.1,1.2,6.7,4.3L158.1,149z"/>
						</g>
					</g>
				</g>
				<g>
					<g>
						<g>
							<polygon class="st8" points="118.5,121.9 96.6,126.8 103.4,144.9 119.8,141.2 							"/>
						</g>
					</g>
				</g>
				<g>
					<g>
						<g>
							<g>
								<path class="st10" d="M147,125.3c0,0.1-16.7,3.9-37.3,8.5c-20.6,4.6-37.4,8.2-37.4,8.2c0-0.1,16.7-3.9,37.3-8.5
									C130.2,128.9,147,125.2,147,125.3z"/>
							</g>
						</g>
					</g>
				</g>
				<g>
					<g>
						<g>
							<g>
								<path class="st10" d="M73.3,163.7c-0.1,0-1-3.5-1.9-7.8c-1-4.3-1.7-7.9-1.6-7.9c0.1,0,1,3.5,1.9,7.8
									C72.7,160.1,73.4,163.6,73.3,163.7z"/>
							</g>
						</g>
					</g>
				</g>
				<g>
					<g>
						<g>
							<g>
								<path class="st10" d="M154,143.7c-0.1,0-0.9-3.2-1.8-7.1c-0.9-3.9-1.5-7.2-1.4-7.2c0.1,0,0.9,3.2,1.8,7.1
									C153.5,140.5,154.1,143.7,154,143.7z"/>
							</g>
						</g>
					</g>
				</g>
				<g>
					<g>
						<g>
							<g>
								<path class="st10" d="M150.6,148c0,0.1-17.1,4-38.3,8.7c-21.2,4.7-38.4,8.5-38.4,8.4c0-0.1,17.1-4,38.3-8.7
									C133.4,151.6,150.6,147.9,150.6,148z"/>
							</g>
						</g>
					</g>
				</g>
			</g>
		</g>
		<g>
			<g>
				<g>
					<path class="st8" d="M105.4,218.6c0,0.1-11.6,2.8-25.8,6c-14.3,3.2-25.9,5.7-25.9,5.6c0-0.1,11.5-2.8,25.9-6
						C93.8,221,105.4,218.5,105.4,218.6z"/>
				</g>
			</g>
		</g>
		<g>
			<g>
				<g>
					<path class="st8" d="M191.7,208.8c0,0.1-30.2,6.9-67.5,15.2c-37.3,8.3-67.6,15-67.6,14.9c0-0.1,30.2-6.9,67.5-15.2
						C161.4,215.4,191.7,208.7,191.7,208.8z"/>
				</g>
			</g>
		</g>
		<g>
			<g>
				<g>
					<path class="st8" d="M193.6,217.2c0,0.1-30.2,6.9-67.5,15.2c-37.3,8.3-67.6,15-67.6,14.9c0-0.1,30.2-6.9,67.5-15.2
						C163.3,223.8,193.6,217.1,193.6,217.2z"/>
				</g>
			</g>
		</g>
		<g>
			<g>
				<g>
					<path class="st8" d="M195.4,225.5c0,0.1-30.2,6.9-67.5,15.2c-37.3,8.3-67.6,15-67.6,14.9c0-0.1,30.2-6.9,67.5-15.2
						C165.1,232.1,195.4,225.4,195.4,225.5z"/>
				</g>
			</g>
		</g>
		<g>
			<g>
				<g>
					<path class="st8" d="M197.3,233.9c0,0.1-30.2,6.9-67.5,15.2c-37.3,8.3-67.6,15-67.6,14.9c0-0.1,30.2-6.9,67.5-15.2
						C167,240.4,197.3,233.8,197.3,233.9z"/>
				</g>
			</g>
		</g>
		<g>
			<g>
				<g>
					<path class="st8" d="M199.2,242.2c0,0.1-30.2,6.9-67.5,15.2c-37.3,8.3-67.6,15-67.6,14.9c0-0.1,30.2-6.9,67.5-15.2
						C168.8,248.8,199.1,242.1,199.2,242.2z"/>
				</g>
			</g>
		</g>
		<g>
			<g>
				<g>
					<path class="st8" d="M90.2,300.9c0,0,0-0.1-0.1-0.3c-0.1-0.2-0.1-0.5-0.2-0.8c-0.2-0.7-0.4-1.7-0.7-3
						c-0.6-2.6-1.4-6.2-2.4-10.5l0.2,0.1c-4.3,1-9.3,2.1-14.6,3.3c0,0,0.3-0.4,0.1-0.2l0,0l0,0l0,0l0,0l0,0.1l0,0.1l0.1,0.3l0.1,0.5
						c0.1,0.3,0.1,0.7,0.2,1c0.1,0.7,0.3,1.3,0.4,2c0.3,1.3,0.6,2.6,0.8,3.8c0.5,2.5,1.1,4.8,1.5,6.9l-0.2-0.1
						c4.4-0.9,8-1.7,10.6-2.3c1.3-0.3,2.3-0.5,3-0.6c0.3-0.1,0.6-0.1,0.8-0.2C90.1,300.9,90.2,300.9,90.2,300.9c0,0-0.1,0-0.2,0.1
						c-0.2,0-0.5,0.1-0.8,0.2c-0.7,0.2-1.7,0.4-2.9,0.7c-2.6,0.6-6.3,1.4-10.6,2.5l-0.2,0l0-0.2c-0.5-2.1-1-4.4-1.6-6.9
						c-0.3-1.2-0.6-2.5-0.8-3.8c-0.1-0.6-0.3-1.3-0.4-2c-0.1-0.3-0.1-0.7-0.2-1l-0.1-0.5l-0.1-0.3l0-0.1l0-0.1l0,0l0,0l0,0l0,0
						c-0.1,0.2,0.2-0.3,0.1-0.2c5.4-1.2,10.4-2.3,14.6-3.2l0.2,0l0,0.2c0.9,4.4,1.7,8.1,2.3,10.7c0.3,1.3,0.5,2.2,0.6,3
						c0.1,0.3,0.1,0.6,0.2,0.8C90.2,300.8,90.2,300.9,90.2,300.9z"/>
				</g>
			</g>
		</g>
		<g>
			<g>
				<g>
					
						<rect x="96.6" y="276.1" transform="matrix(0.9761 -0.2175 0.2175 0.9761 -57.4422 39.0977)" class="st3" width="104.6" height="8.7"/>
				</g>
			</g>
		</g>
		<g>
			<g>
				<g>
					<path class="st8" d="M95.9,326.3c0,0,0-0.1-0.1-0.3c-0.1-0.2-0.1-0.5-0.2-0.8c-0.2-0.7-0.4-1.7-0.7-3
						c-0.6-2.6-1.4-6.2-2.4-10.5l0.2,0.1c-4.3,1-9.3,2.1-14.6,3.3c0,0,0.3-0.4,0.1-0.2l0,0l0,0l0,0l0,0l0,0.1l0,0.1l0.1,0.3l0.1,0.5
						c0.1,0.3,0.1,0.7,0.2,1c0.1,0.7,0.3,1.3,0.4,2c0.3,1.3,0.6,2.6,0.8,3.8c0.5,2.5,1.1,4.8,1.5,6.9l-0.2-0.1
						c4.4-0.9,8-1.7,10.6-2.3c1.3-0.3,2.3-0.5,3-0.6c0.3-0.1,0.6-0.1,0.8-0.2C95.7,326.3,95.8,326.3,95.9,326.3c0,0-0.1,0-0.2,0.1
						c-0.2,0-0.5,0.1-0.8,0.2c-0.7,0.2-1.7,0.4-2.9,0.7c-2.6,0.6-6.3,1.4-10.6,2.5l-0.2,0l0-0.2c-0.5-2.1-1-4.4-1.6-6.9
						c-0.3-1.2-0.6-2.5-0.8-3.8c-0.1-0.6-0.3-1.3-0.4-2c-0.1-0.3-0.1-0.7-0.2-1l-0.1-0.5l-0.1-0.3l0-0.1l0-0.1l0,0l0,0l0,0l0,0
						c-0.1,0.2,0.2-0.3,0.1-0.2c5.4-1.2,10.4-2.3,14.6-3.2l0.2,0l0,0.2c0.9,4.4,1.7,8.1,2.3,10.7c0.3,1.3,0.5,2.2,0.6,3
						c0.1,0.3,0.1,0.6,0.2,0.8C95.8,326.2,95.9,326.3,95.9,326.3z"/>
				</g>
			</g>
		</g>
		<g>
			<g>
				<g>
					
						<rect x="102.2" y="301.5" transform="matrix(0.9761 -0.2175 0.2175 0.9761 -62.8283 40.9361)" class="st3" width="104.6" height="8.7"/>
				</g>
			</g>
		</g>
		<g>
			<g>
				<g>
					<path class="st8" d="M101.5,351.7c0,0,0-0.1-0.1-0.3c-0.1-0.2-0.1-0.5-0.2-0.8c-0.2-0.7-0.4-1.7-0.7-3
						c-0.6-2.6-1.4-6.2-2.4-10.5l0.2,0.1c-4.3,1-9.3,2.1-14.6,3.3c0,0,0.3-0.4,0.1-0.2l0,0l0,0l0,0l0,0l0,0.1l0,0.1l0.1,0.3l0.1,0.5
						c0.1,0.3,0.1,0.7,0.2,1c0.1,0.7,0.3,1.3,0.4,2c0.3,1.3,0.6,2.6,0.8,3.8c0.5,2.5,1.1,4.8,1.5,6.9l-0.2-0.1
						c4.4-0.9,8-1.7,10.6-2.3c1.3-0.3,2.3-0.5,3-0.6c0.3-0.1,0.6-0.1,0.8-0.2C101.4,351.7,101.5,351.7,101.5,351.7
						c0,0-0.1,0-0.2,0.1c-0.2,0-0.5,0.1-0.8,0.2c-0.7,0.2-1.7,0.4-2.9,0.7c-2.6,0.6-6.3,1.4-10.6,2.5l-0.2,0l0-0.2
						c-0.5-2.1-1-4.4-1.6-6.9c-0.3-1.2-0.6-2.5-0.8-3.8c-0.1-0.6-0.3-1.3-0.4-2c-0.1-0.3-0.1-0.7-0.2-1l-0.1-0.5l-0.1-0.3l0-0.1
						l0-0.1l0,0l0,0l0,0l0,0c-0.1,0.2,0.2-0.3,0.1-0.2c5.4-1.2,10.4-2.3,14.6-3.2l0.2,0l0,0.2c0.9,4.4,1.7,8.1,2.3,10.7
						c0.3,1.3,0.5,2.2,0.6,3c0.1,0.3,0.1,0.6,0.2,0.8C101.5,351.6,101.5,351.7,101.5,351.7z"/>
				</g>
			</g>
		</g>
		<g>
			<g>
				<g>
					
						<rect x="107.9" y="326.9" transform="matrix(0.9761 -0.2175 0.2175 0.9761 -68.2144 42.7744)" class="st3" width="104.6" height="8.7"/>
				</g>
			</g>
		</g>
		<g>
			<g>
				<g>
					<g>
						<g>
							<g>
								<polygon class="st7" points="76.1,295.7 77.7,293.3 82.2,295.8 88.1,286.9 90.4,288.5 82.8,299.7 								"/>
							</g>
						</g>
					</g>
				</g>
			</g>
		</g>
		<g>
			<g>
				<g>
					<g>
						<g>
							<g>
								<polygon class="st7" points="81.6,320.2 83.1,317.8 87.7,320.3 93.6,311.5 95.8,313 88.3,324.2 								"/>
							</g>
						</g>
					</g>
				</g>
			</g>
		</g>
		<g>
			<g>
				<g>
					<g>
						<g>
							<g>
								<polygon class="st7" points="87.2,345.4 88.7,342.9 93.3,345.5 99.2,336.6 101.4,338.2 93.9,349.3 								"/>
							</g>
						</g>
					</g>
				</g>
			</g>
		</g>
		<g>
			<g>
				<g>
					<path class="st8" d="M133.9,376.9c0,0.1-8.6,2.1-19.2,4.5c-10.7,2.4-19.3,4.2-19.3,4.1c0-0.1,8.6-2.1,19.2-4.5
						C125.3,378.7,133.9,376.8,133.9,376.9z"/>
				</g>
			</g>
		</g>
		<g>
			<g>
				<g>
					<path class="st8" d="M153.2,372.3c0,0.1-3.1,0.9-7.1,1.8c-3.9,0.9-7.1,1.5-7.2,1.4c0-0.1,3.1-0.9,7.1-1.8
						C149.9,372.9,153.1,372.2,153.2,372.3z"/>
				</g>
			</g>
		</g>
		<g>
			<g>
				<g>
					<path class="st8" d="M216.8,352.3c0,0.1-7.7,1.9-17.3,4.1c-9.6,2.1-17.4,3.8-17.4,3.7c0-0.1,7.7-1.9,17.3-4.1
						C209,353.8,216.8,352.2,216.8,352.3z"/>
				</g>
			</g>
		</g>
		<g>
			<g>
				<g>
					<path class="st8" d="M208.5,375.8c0,0,0.1-0.2,0.2-0.7c0.1-0.5,0.1-1.2-0.1-2.1c-0.2-0.9-0.7-1.9-1.2-3.1
						c-0.5-1.2-1.2-2.6-1.2-4.3c0-1.7,0.8-3.5,2.3-4.8c1.5-1.3,3.8-1.8,5.9-1.1c1.1,0.3,2.1,0.9,2.8,1.9c0.4,0.5,0.6,1,0.7,1.7
						c0.1,0.7-0.4,1.3-1,1.5c-0.6,0.2-1.2,0.3-1.8,0.4c-0.6,0.1-1.2,0.2-1.8,0.4c-1.2,0.2-2.4,0.5-3.7,0.6c-2.5,0.3-5,0.4-7.3,0
						c-1.1-0.1-2.3-0.1-3.2,0.5c-0.9,0.7-1.3,1.7-1.9,2.6c-0.3,0.4-0.7,0.9-1.2,1.1c-0.5,0.2-1.1,0.2-1.6,0.1c-1-0.3-1.8-1-2.6-1.5
						c-0.4-0.2-0.8-0.4-1.3-0.5c-0.4,0-0.9,0.1-1.2,0.3c-0.7,0.5-1.1,1.3-1.5,2c-0.9,1.4-2.5,2.1-3.8,2.2c-1.3,0.1-2.4-0.5-3.1-1.1
						c-0.7-0.6-1.1-1.3-1.2-1.7c-0.2-0.5-0.2-0.7-0.2-0.7c0,0,0.1,0.2,0.3,0.7c0.2,0.4,0.6,1.1,1.3,1.6c0.7,0.6,1.7,1.1,3,1
						c1.3-0.1,2.7-0.7,3.6-2.1c0.4-0.7,0.8-1.5,1.6-2.1c0.4-0.3,0.9-0.4,1.4-0.4c0.5,0,1,0.3,1.4,0.5c0.8,0.5,1.6,1.2,2.5,1.5
						c0.5,0.1,1,0.1,1.4-0.1c0.4-0.2,0.8-0.6,1.1-1c0.6-0.8,1-1.9,2-2.7c0.5-0.4,1.1-0.6,1.7-0.6c0.6-0.1,1.2,0,1.8,0
						c2.3,0.3,4.8,0.3,7.2,0c1.2-0.2,2.4-0.4,3.6-0.6c0.6-0.1,1.2-0.2,1.8-0.4c0.6-0.1,1.2-0.2,1.7-0.4c0.5-0.2,0.9-0.6,0.8-1.2
						c0-0.5-0.3-1-0.6-1.5c-0.7-0.8-1.7-1.4-2.6-1.7c-2-0.7-4.2-0.2-5.6,1c-1.4,1.2-2.2,3-2.2,4.6c0,1.6,0.6,3,1.1,4.2
						c0.5,1.2,1,2.2,1.2,3.1c0.2,0.9,0.2,1.6,0,2.1C208.6,375.6,208.5,375.8,208.5,375.8z"/>
				</g>
			</g>
		</g>
		<g>
			<g>
				<g>
					<path class="st8" d="M227,364.4c0,0-0.2,0.1-0.5,0.1c-0.3,0.1-0.8,0.2-1.4,0.3c-1.2,0.3-2.9,0.7-5,1.2c-4.2,1-10,2.3-16.4,4
						c-6.4,1.6-12.1,3.2-16.3,4.3c-2,0.6-3.7,1-4.9,1.4c-0.6,0.1-1,0.3-1.3,0.4c-0.3,0.1-0.5,0.1-0.5,0.1c0,0,0.2-0.1,0.5-0.2
						c0.3-0.1,0.8-0.2,1.3-0.4c1.2-0.4,2.8-0.9,4.9-1.5c4.1-1.2,9.9-2.8,16.3-4.4c6.4-1.6,12.2-3,16.4-3.9c2.1-0.5,3.8-0.8,5-1
						c0.6-0.1,1-0.2,1.4-0.3C226.8,364.4,227,364.3,227,364.4z"/>
				</g>
			</g>
		</g>
		<g>
			
				<rect x="85.1" y="176.2" transform="matrix(0.9761 -0.2175 0.2175 0.9761 -36.8801 30.6093)" class="st3" width="71" height="13.3"/>
		</g>
	</g>
</g>
<g id="Character_00000039826182135072414070000016352920049323683971_">
	<g>
		<g>
			<g>
				<g>
					<g>
						<g>
							<g>
								<g>
									<polygon class="st7" points="219.3,379.9 241.7,498.1 262.2,460.3 301,483.1 259.8,367.9 									"/>
								</g>
							</g>
						</g>
					</g>
				</g>
				<g class="st9">
					<g>
						<path d="M226.9,419.6c4.1,0.9,9-0.6,11.9-3.6c2-2.1,3.4-5,6-6.4c2.3-1.3,5.2-1.1,7.7-0.4c2.5,0.7,4.9,1.9,7.5,2.5
							c5,1.3,10.5,0.5,14.9-2.2l-6.5-17.9l-30-3.7L224.1,405L226.9,419.6z"/>
					</g>
				</g>
				<g>
					<g>
						<path class="st8" d="M260.7,455.6c-0.1,0-3.5-12.3-7.4-27.4c-4-15.2-7.1-27.5-7-27.6c0.1,0,3.5,12.2,7.4,27.4
							C257.7,443.3,260.8,455.6,260.7,455.6z"/>
					</g>
				</g>
			</g>
			<g>
				<g>
					<g>
						<g>
							<g>
								<polygon class="st7" points="222.6,386 200.2,504.3 179.8,466.5 141,489.2 182.2,374.1 								"/>
							</g>
						</g>
					</g>
				</g>
			</g>
			<g class="st9">
				<path d="M169.8,408.5c0,0,6.4,5.2,14,2.8c7.6-2.4,12.3-2.9,16.4,0c4.1,2.9,15.2,12.5,15.2,12.5l2.6-13.6l-14.9-20.5l-15.6,3.2
					l-11.1,1.1l-4.1,7.8L169.8,408.5z"/>
			</g>
			<g>
				<path class="st7" d="M353.9,279.3c0,8.5-10.8,15.8-12.4,23.8c-1.6,8.3,5.6,19.2,2.4,26.8c-3.2,7.7-16,10.3-20.6,17.2
					c-4.6,6.9-2.2,19.8-8,25.6c-5.9,5.9-18.7,3.4-25.6,8c-6.9,4.6-9.5,17.4-17.2,20.6c-7.6,3.2-18.5-4-26.8-2.4
					c-8,1.6-15.3,12.4-23.8,12.4c-8.5,0-15.8-10.8-23.8-12.4c-8.3-1.6-19.2,5.6-26.8,2.4c-7.7-3.2-10.3-16-17.2-20.6
					c-6.9-4.6-19.8-2.2-25.6-8c-5.9-5.9-3.4-18.7-8-25.6c-4.6-6.9-17.4-9.5-20.6-17.2c-3.2-7.6,4-18.5,2.4-26.8
					c-1.6-8-12.4-15.3-12.4-23.8s10.8-15.8,12.4-23.8c1.6-8.3-5.6-19.2-2.4-26.8c3.2-7.7,16-10.3,20.6-17.2c4.6-6.9,2.2-19.8,8-25.6
					c5.9-5.9,18.7-3.4,25.6-8c6.9-4.6,9.5-17.4,17.2-20.6c7.6-3.2,18.5,4,26.8,2.4c8-1.6,15.3-12.4,23.8-12.4s15.8,10.8,23.8,12.4
					c8.3,1.6,19.2-5.6,26.8-2.4c7.7,3.2,10.3,16,17.2,20.6c6.9,4.6,19.8,2.2,25.6,8c5.9,5.9,3.4,18.7,8,25.6
					c4.6,6.9,17.4,9.5,20.6,17.2c3.2,7.6-4,18.5-2.4,26.8C343,263.5,353.9,270.8,353.9,279.3z"/>
			</g>
			<g>
				<g>
					<path class="st8" d="M190.8,205.2c0,0-0.1-0.1-0.2-0.4c-0.2-0.3-0.4-0.7-0.6-1.1c-0.5-0.9-1.2-2.3-2.1-4.1
						c-1.7-3.5-4-8.3-6.1-13.8c-2.1-5.5-3.8-10.6-4.9-14.3c-0.5-1.9-0.9-3.4-1.2-4.4c-0.1-0.5-0.2-0.9-0.3-1.2
						c-0.1-0.3-0.1-0.4-0.1-0.4c0,0,0.1,0.1,0.2,0.4c0.1,0.3,0.2,0.7,0.4,1.2c0.3,1.1,0.8,2.6,1.3,4.4c1.2,3.7,2.9,8.7,5,14.2
						c2.1,5.5,4.3,10.4,6,13.9c0.8,1.7,1.5,3.1,2,4.1c0.2,0.4,0.4,0.8,0.5,1.1C190.8,205.1,190.8,205.2,190.8,205.2z"/>
				</g>
			</g>
			<g>
				<g>
					<path class="st8" d="M202.6,200.7c0,0-0.2-0.3-0.3-1c-0.2-0.6-0.4-1.6-0.7-2.7c-0.6-2.3-1.3-5.5-2-9.1
						c-0.7-3.6-1.1-6.9-1.4-9.2c-0.1-1.2-0.2-2.1-0.3-2.8c-0.1-0.7-0.1-1,0-1s0.1,0.4,0.2,1c0.1,0.8,0.3,1.7,0.4,2.8
						c0.4,2.4,0.9,5.6,1.5,9.2c0.7,3.6,1.3,6.8,1.8,9.1c0.2,1.1,0.4,2,0.6,2.8C202.6,200.4,202.6,200.7,202.6,200.7z"/>
				</g>
			</g>
			<g>
				<g>
					<path class="st8" d="M223.3,198.7c-0.1,0-0.5-10-0.7-22.4c-0.3-12.3-0.4-22.4-0.3-22.4c0.1,0,0.5,10,0.7,22.4
						C223.3,188.7,223.5,198.7,223.3,198.7z"/>
				</g>
			</g>
			<g>
				<g>
					<path class="st8" d="M244.2,178.1c0.1,0-1.3,5-3.2,11.2c-1.9,6.1-3.5,11.1-3.7,11c-0.1,0,1.3-5,3.2-11.2
						C242.4,183,244.1,178.1,244.2,178.1z"/>
				</g>
			</g>
			<g>
				<g>
					<path class="st8" d="M252.7,204c0,0,0-0.2,0.1-0.4c0.1-0.3,0.2-0.7,0.4-1.2c0.4-1,0.9-2.5,1.6-4.3c1.4-3.6,3.4-8.6,5.7-14
						c2.3-5.4,4.4-10.3,6-13.9c0.8-1.7,1.4-3.1,1.9-4.2c0.2-0.4,0.4-0.8,0.5-1.1c0.1-0.3,0.2-0.4,0.2-0.4c0,0,0,0.1-0.1,0.4
						c-0.1,0.3-0.3,0.7-0.5,1.2c-0.4,1.1-1,2.5-1.7,4.2c-1.5,3.6-3.6,8.5-5.8,13.9c-2.3,5.4-4.3,10.3-5.8,13.9
						c-0.7,1.7-1.3,3.2-1.7,4.2c-0.2,0.5-0.4,0.8-0.5,1.1C252.8,203.8,252.7,204,252.7,204z"/>
				</g>
			</g>
			<g>
				<g>
					<path class="st8" d="M263.9,209.8c0,0,0.2-0.3,0.5-0.9c0.4-0.6,0.9-1.4,1.6-2.4c1.3-2,3.3-4.7,5.5-7.5c2.2-2.9,4.4-5.4,6-7.2
						c0.8-0.9,1.5-1.6,1.9-2.1c0.5-0.5,0.7-0.7,0.8-0.7c0,0-0.2,0.3-0.6,0.8c-0.5,0.6-1.1,1.3-1.8,2.2c-1.5,1.8-3.6,4.4-5.9,7.2
						c-2.2,2.9-4.2,5.5-5.6,7.4c-0.7,0.9-1.2,1.7-1.7,2.3C264.1,209.5,263.9,209.8,263.9,209.8z"/>
				</g>
			</g>
			<g>
				<g>
					<path class="st8" d="M280.1,223.1c-0.1-0.1,7-6.8,15.8-15c8.8-8.2,16-14.7,16.1-14.6c0.1,0.1-7,6.8-15.8,15
						C287.4,216.6,280.2,223.2,280.1,223.1z"/>
				</g>
			</g>
			<g>
				<g>
					<path class="st8" d="M308.4,225.8c0,0.1-1,0.6-2.7,1.5c-1.7,0.9-4,2.1-6.5,3.5c-2.5,1.4-4.8,2.6-6.6,3.4
						c-0.9,0.4-1.6,0.7-2.1,0.9c-0.5,0.2-0.8,0.3-0.8,0.3c0-0.1,1-0.6,2.7-1.5c1.7-0.9,4-2.1,6.5-3.5c2.5-1.4,4.8-2.6,6.6-3.4
						c0.9-0.4,1.6-0.7,2.1-0.9C308.1,225.9,308.4,225.8,308.4,225.8z"/>
				</g>
			</g>
			<g>
				<g>
					<path class="st8" d="M334.7,236.7c0,0.1-8.4,3.2-18.8,6.9c-10.4,3.7-18.9,6.5-18.9,6.4c0-0.1,8.4-3.2,18.8-6.9
						C326.1,239.5,334.6,236.6,334.7,236.7z"/>
				</g>
			</g>
			<g>
				<g>
					<path class="st8" d="M343,284.4c0,0.1-9.1-0.6-20.4-1.7c-11.3-1.1-20.4-2-20.4-2.2c0-0.1,9.1,0.6,20.4,1.7
						C333.9,283.3,343,284.3,343,284.4z"/>
				</g>
			</g>
			<g>
				<g>
					<path class="st8" d="M336.3,327.2c-0.1,0.1-8.6-3.8-19.1-8.8c-10.5-5-18.9-9.1-18.9-9.2c0.1-0.1,8.6,3.8,19.1,8.8
						C327.9,323,336.4,327.1,336.3,327.2z"/>
				</g>
			</g>
			<g>
				<g>
					<path class="st8" d="M308.2,367.9c-0.1,0.1-6.3-7.1-13.8-16c-7.5-8.9-13.5-16.2-13.4-16.3c0.1-0.1,6.3,7.1,13.8,16
						C302.3,360.6,308.3,367.8,308.2,367.9z"/>
				</g>
			</g>
			<g>
				<g>
					<path class="st8" d="M284.8,373.3c0,0-0.3-0.3-0.7-1c-0.5-0.7-1.1-1.6-1.9-2.8c-1.6-2.4-3.6-5.8-5.8-9.6
						c-2.2-3.8-4.1-7.3-5.4-9.8c-0.7-1.3-1.2-2.3-1.5-3c-0.3-0.7-0.5-1.1-0.5-1.1c0,0,0.3,0.4,0.7,1.1c0.4,0.8,1,1.8,1.7,3
						c1.4,2.5,3.3,6,5.5,9.8c2.2,3.8,4.2,7.2,5.7,9.6c0.7,1.2,1.3,2.2,1.7,2.9C284.6,372.9,284.8,373.3,284.8,373.3z"/>
				</g>
			</g>
			<g>
				<g>
					<path class="st8" d="M270.2,393.8c0,0-0.1-0.1-0.2-0.4c-0.2-0.3-0.4-0.7-0.6-1.1c-0.5-0.9-1.2-2.3-2-4.1
						c-1.6-3.5-3.8-8.3-5.8-13.9c-2-5.5-3.5-10.6-4.5-14.3c-0.5-1.9-0.9-3.4-1.1-4.4c-0.1-0.5-0.2-0.9-0.3-1.2
						c-0.1-0.3-0.1-0.4-0.1-0.4c0,0,0.1,0.1,0.1,0.4c0.1,0.3,0.2,0.7,0.3,1.2c0.3,1.1,0.7,2.6,1.2,4.4c1.1,3.7,2.6,8.7,4.6,14.2
						c2,5.5,4.1,10.4,5.6,13.9c0.8,1.7,1.4,3.1,1.9,4.1c0.2,0.4,0.4,0.8,0.5,1.1C270.2,393.6,270.2,393.8,270.2,393.8z"/>
				</g>
			</g>
			<g>
				<g>
					<path class="st8" d="M240.7,379.4c-0.1,0-0.2-1.2-0.4-3.1c-0.2-1.9-0.5-4.6-1-7.5c-0.5-2.9-1-5.5-1.5-7.4
						c-0.4-1.9-0.7-3-0.6-3.1c0,0,0.1,0.3,0.3,0.8c0.2,0.5,0.4,1.3,0.7,2.2c0.5,1.9,1.1,4.5,1.6,7.4c0.5,2.9,0.8,5.6,0.9,7.5
						c0.1,1,0.1,1.7,0.1,2.3C240.8,379.1,240.7,379.4,240.7,379.4z"/>
				</g>
			</g>
			<g>
				<g>
					<path class="st8" d="M221.4,405.1c0,0,0-0.2,0-0.5c0-0.4,0-0.8,0-1.3c0-1.1,0-2.8,0-4.8c0.1-4.1,0.3-9.7,0.6-15.9
						c0.3-6.2,0.7-11.8,1-15.9c0.2-2,0.3-3.7,0.4-4.8c0.1-0.5,0.1-1,0.1-1.3c0-0.3,0.1-0.5,0.1-0.5c0,0,0,0.2,0,0.5
						c0,0.4,0,0.8-0.1,1.3c-0.1,1.2-0.2,2.8-0.3,4.8c-0.2,4.1-0.6,9.7-0.9,15.9c-0.3,6.2-0.6,11.8-0.7,15.9c-0.1,2-0.1,3.6-0.2,4.8
						c0,0.5,0,1-0.1,1.3C221.4,404.9,221.4,405.1,221.4,405.1z"/>
				</g>
			</g>
			<g>
				<g>
					<path class="st8" d="M205.7,360.2c0.1,0,0,0.9-0.3,2.3c-0.2,1.4-0.6,3.3-1.1,5.4c-0.5,2.1-1,4-1.4,5.3
						c-0.4,1.4-0.7,2.2-0.8,2.2c-0.1,0,0.1-0.9,0.5-2.2c0.4-1.5,0.8-3.3,1.3-5.4c0.5-2,0.9-3.8,1.2-5.4
						C205.5,361,205.7,360.2,205.7,360.2z"/>
				</g>
			</g>
			<g>
				<g>
					<path class="st8" d="M177.4,346.5c0.1,0.1-1.6,2.6-3.9,5.5c-2.3,3-4.2,5.3-4.3,5.3c-0.1-0.1,1.6-2.6,3.9-5.5
						C175.4,348.8,177.3,346.5,177.4,346.5z"/>
				</g>
			</g>
			<g>
				<g>
					<path class="st8" d="M162.5,336.5c0.1,0.1-5.4,6.6-12.4,14.5c-6.9,7.9-12.6,14.3-12.7,14.2c-0.1-0.1,5.4-6.6,12.4-14.5
						C156.7,342.8,162.4,336.5,162.5,336.5z"/>
				</g>
			</g>
			<g>
				<g>
					<path class="st8" d="M155,325.5c0.1,0.1-3,2.8-6.9,6c-3.9,3.2-7.1,5.7-7.2,5.6s3-2.8,6.9-6C151.8,327.9,155,325.4,155,325.5z"
						/>
				</g>
			</g>
			<g>
				<g>
					<path class="st8" d="M146.3,308.8c0.1,0.1-7.7,3.9-17.2,8.6c-9.6,4.6-17.4,8.3-17.4,8.1c-0.1-0.1,7.7-3.9,17.2-8.6
						C138.5,312.3,146.3,308.7,146.3,308.8z"/>
				</g>
			</g>
			<g>
				<g>
					<path class="st8" d="M142.8,300.5c0,0-0.3,0.1-0.8,0.2c-0.5,0.1-1.3,0.3-2.2,0.5c-1.9,0.3-4.5,0.7-7.4,1
						c-2.9,0.3-5.6,0.4-7.5,0.5c-1,0-1.7,0-2.3,0c-0.5,0-0.8,0-0.8-0.1c0-0.1,1.2-0.1,3.1-0.2c1.9-0.1,4.5-0.3,7.4-0.6
						c2.9-0.3,5.5-0.6,7.4-0.9C141.7,300.6,142.8,300.4,142.8,300.5z"/>
				</g>
			</g>
			<g>
				<g>
					<path class="st8" d="M140,281.2c0,0-0.6,0-1.6,0c-1.1-0.1-2.5-0.1-4.2-0.2c-3.6-0.2-8.5-0.3-14-0.3c-5.5,0-10.4,0.2-14,0.5
						c-1.7,0.1-3.2,0.2-4.2,0.3c-1,0.1-1.6,0.1-1.6,0.1c0,0,0.5-0.1,1.5-0.2c1-0.1,2.4-0.3,4.2-0.4c3.6-0.3,8.5-0.6,14-0.6
						c5.5,0,10.4,0.2,14,0.4c1.8,0.1,3.2,0.3,4.2,0.4C139.5,281.1,140,281.2,140,281.2z"/>
				</g>
			</g>
			<g>
				<g>
					<path class="st8" d="M141.8,264.4c0,0.1-5.8-1.4-12.9-3.4c-7.1-2-12.8-3.7-12.8-3.8c0-0.1,5.8,1.4,12.9,3.4
						C136.1,262.5,141.8,264.2,141.8,264.4z"/>
				</g>
			</g>
			<g>
				<g>
					<path class="st8" d="M145.5,250.2c0,0-0.1,0-0.4-0.1c-0.3-0.1-0.7-0.2-1.2-0.4c-1-0.3-2.5-0.8-4.3-1.5
						c-3.6-1.3-8.5-3.3-13.8-5.9c-5.2-2.6-9.8-5.3-13.1-7.3c-1.6-1-2.9-1.9-3.8-2.5c-0.4-0.3-0.7-0.5-1-0.7
						c-0.2-0.2-0.3-0.3-0.3-0.3s0.1,0.1,0.4,0.2c0.3,0.2,0.6,0.4,1.1,0.6c0.9,0.6,2.2,1.4,3.9,2.4c3.3,2,7.9,4.6,13.1,7.2
						c5.2,2.6,10.1,4.6,13.7,6c1.8,0.7,3.2,1.2,4.2,1.6c0.5,0.2,0.8,0.3,1.2,0.4C145.4,250.1,145.5,250.2,145.5,250.2z"/>
				</g>
			</g>
			<g>
				<g>
					<path class="st8" d="M153.9,236c-0.1,0.1-4.6-2.9-10.1-6.8c-5.5-3.9-9.9-7.1-9.8-7.2c0.1-0.1,4.6,2.9,10.1,6.8
						C149.6,232.6,154,235.9,153.9,236z"/>
				</g>
			</g>
			<g>
				<g>
					<path class="st8" d="M136.1,192.6c0,0,0.1,0.1,0.3,0.2c0.2,0.2,0.5,0.5,0.9,0.8c0.8,0.7,1.9,1.7,3.3,2.9
						c2.8,2.5,6.6,5.9,10.8,9.6c4.2,3.7,8,7.1,10.9,9.6c1.3,1.2,2.4,2.2,3.3,2.9c0.3,0.3,0.6,0.6,0.9,0.8c0.2,0.2,0.3,0.3,0.3,0.3
						c0,0-0.1-0.1-0.3-0.2c-0.3-0.2-0.6-0.4-0.9-0.7c-0.8-0.7-2-1.6-3.4-2.8c-2.8-2.4-6.7-5.7-10.9-9.5c-4.2-3.8-8-7.2-10.7-9.7
						c-1.4-1.3-2.4-2.3-3.2-3c-0.3-0.3-0.6-0.6-0.8-0.8C136.2,192.7,136.1,192.6,136.1,192.6z"/>
				</g>
			</g>
			<g>
				<g>
					<path class="st8" d="M164,193.4c0,0,0.2,0.2,0.6,0.6c0.4,0.4,0.9,1,1.5,1.8c1.2,1.5,2.9,3.7,4.6,6.2c1.7,2.5,3.2,4.8,4.1,6.6
						c0.5,0.9,0.9,1.6,1.1,2.1c0.3,0.5,0.4,0.8,0.4,0.8c-0.1,0-0.7-1-1.8-2.7c-1.1-1.7-2.5-4-4.2-6.5c-1.7-2.5-3.3-4.7-4.5-6.3
						C164.7,194.4,163.9,193.5,164,193.4z"/>
				</g>
			</g>
			<g class="st11">
				<path d="M128.3,185.8l38.8,34l9.6-7.7l-22.5-34.5c0,0-1.7,1.3-6.2,2.6C143.7,181.4,130.9,181.7,128.3,185.8z"/>
			</g>
			<g class="st11">
				<path d="M171.5,157.1l19,47.4l12.1-3.8l-4-41.1c0,0-2.1,0.5-6.7-0.1C187.4,158.9,176.5,154.7,171.5,157.1z"/>
			</g>
			<g class="st9">
				<path d="M222.1,147.2l1.3,51.5l11.4,0.5l11.5-39.5c-0.2,0-3.2-0.5-6.7-2.8C235.6,154.4,227.6,146.7,222.1,147.2z"/>
			</g>
			<g class="st11">
				<path d="M271.6,156.9l-18.8,47.5l10.3,4.9l25.9-32c-0.2-0.1-2.7-2.1-4.9-5.8C281.5,167.5,277.3,158.5,271.6,156.9z"/>
			</g>
			<g class="st11">
				<path d="M315.8,186.5l-35.1,36.6l7.8,10.5l34.3-22.9c0,0-1.4-2.3-2.3-6.7C319.7,199.6,319.6,191.5,315.8,186.5z"/>
			</g>
			<g class="st11">
				<path d="M343.5,227.8l-47.2,19.4l3.9,12.1l41.1-4.5c0,0-0.3-1.3,0.3-5.9C342.1,244.5,346.8,234.4,343.5,227.8z"/>
			</g>
			<g class="st11">
				<path d="M353.9,279.3l-51.5,1.8l-0.4,11.4l39.3,11.5c0-0.2,0.4-2.4,1.6-4.7C345.7,293.7,353.9,286,353.9,279.3z"/>
			</g>
			<g class="st11">
				<path d="M344.4,328L297,309.5l-4.8,10.3l32.3,25.6c0.1-0.2,2-1.9,5.6-4.3C334,338.6,343.4,334.5,344.4,328z"/>
			</g>
			<g class="st11">
				<g>
					<path d="M274.7,327.2l-11.7,9.9c0.9,0.9,16.5,27.5,26.2,44c0.1-0.1,0.3-0.2,0.4-0.3c6.3-4.3,17.6-2.5,24-6.7L274.7,327.2z"/>
				</g>
				<g>
					<path d="M253.1,345.8l-17.5,6l8.3,47.6c0.5-0.2,1.1-0.3,1.6-0.5c8.3-1.6,19.2,5.6,26.8,2.4c1-0.4,2-1.1,2.9-1.8L253.1,345.8z"
						/>
				</g>
				<g>
					<path d="M221.1,411.3l2.8-62.1l-15.2-3.8l-11.3,53.5c0.1,0,0.3,0,0.4,0.1C205.8,400.5,212.9,410.9,221.1,411.3z"/>
				</g>
				<g>
					<path d="M183,338.6c0,0-20,26.8-30.5,41.3c0.5,0.2,1,0.5,1.4,0.8c6.9,4.6,9.5,17.4,17.2,20.6c0.4,0.1,0.7,0.3,1.1,0.4l28-52.9
						L183,338.6z"/>
				</g>
				<g>
					<path d="M162.5,317.1l-42.7,29.3c0.2,0.2,0.3,0.4,0.5,0.6c4.6,6.9,2.2,19.8,8,25.6c0.5,0.5,1.2,1,1.8,1.4
						c15.1-17,42.2-47.5,43.2-48.6L162.5,317.1z"/>
				</g>
				<g>
					<path d="M152.7,296.1l-50.5,8.2c0.8,8.1-5.6,18.3-2.6,25.6c0.2,0.4,0.4,0.9,0.7,1.3c17.7-8.8,54.6-27.1,56.1-27.2L152.7,296.1z
						"/>
				</g>
				<g>
					<path d="M150,268l-47.7-13.8c0,0.4-0.1,0.8-0.2,1.2c-1.6,8-12.4,15.3-12.4,23.8c0,0.6,0.1,1.1,0.1,1.7H148L150,268z"/>
				</g>
				<g>
					<path d="M99.8,228.3c17.8,9.6,52.7,28.9,52.7,28.9l8.6-16.3l-40.3-30.4c-0.2,0.3-0.3,0.6-0.5,0.9
						C115.8,218.2,103.3,220.9,99.8,228.3z"/>
				</g>
			</g>
			<g>
				<g>
					<path class="st8" d="M353.9,279.3c0,0,0-0.2-0.1-0.6c0-0.4,0-0.9-0.2-1.7c-0.3-1.5-1.1-3.5-2.7-6c-1.5-2.5-3.9-5.2-6.3-8.7
						c-1.2-1.8-2.4-3.7-3.1-6.1c-0.7-2.4-0.5-5.1,0-7.8c0.5-2.7,1.3-5.5,2-8.5c0.7-3,1.4-6.2,0.7-9.5c-0.4-1.6-1.1-3.2-2.2-4.5
						c-1.1-1.3-2.5-2.5-4-3.5c-3-2.1-6.4-3.8-9.6-6c-1.6-1.1-3.2-2.3-4.6-3.9c-1.3-1.6-2.2-3.5-2.8-5.5c-1.1-4.1-1.4-8.4-2.3-12.7
						c-0.4-2.2-1-4.4-2.2-6.3c-1.1-2-3-3.5-5.1-4.4c-2.1-0.9-4.5-1.4-6.8-1.8c-2.4-0.4-4.8-0.7-7.2-1.1c-2.4-0.4-4.9-1-7.2-2.3
						c-2.3-1.2-4-3.2-5.5-5.3c-1.5-2.1-2.8-4.4-4.1-6.7c-1.4-2.2-2.8-4.5-4.6-6.4c-1.8-1.9-4.3-3.3-7-3.5c-2.7-0.2-5.5,0.3-8.2,1
						c-2.7,0.7-5.4,1.4-8.2,2c-2.8,0.5-5.8,0.7-8.6-0.2c-2.8-1-5.2-2.7-7.6-4.4c-2.4-1.7-4.7-3.6-7.2-5.2c-2.5-1.5-5.4-2.7-8.4-2.4
						l-0.6,0c-0.2,0-0.4,0.1-0.5,0.1c-0.4,0.1-0.7,0.2-1.1,0.3c-0.7,0.3-1.4,0.5-2.1,0.8c-1.4,0.6-2.7,1.4-4,2.3
						c-2.5,1.7-4.9,3.7-7.5,5.5c-1.3,0.9-2.7,1.7-4.1,2.4c-1.5,0.7-3,1.1-4.6,1.2c-3.2,0.2-6.4-0.6-9.5-1.4c-3.1-0.8-6.2-1.7-9.5-2
						c-1.6-0.1-3.2-0.1-4.8,0.3c-1.6,0.4-3,1.3-4.2,2.3c-2.5,2.1-4.2,5-5.9,7.9c-1.7,2.9-3.3,5.8-5.6,8.4c-1.1,1.3-2.5,2.4-4,3.2
						c-1.5,0.8-3.2,1.3-4.9,1.7c-3.4,0.7-6.8,1.1-10.2,1.7c-3.3,0.6-6.8,1.6-9.3,4c-1.2,1.2-2,2.8-2.6,4.4c-0.6,1.6-1,3.3-1.3,5
						c-0.6,3.4-0.9,7-1.7,10.5c-0.4,1.7-1,3.5-1.9,5c-0.9,1.6-2.2,2.9-3.6,4c-2.8,2.3-6,3.9-9.1,5.8c-1.5,0.9-3,1.9-4.4,3.1
						c-1.4,1.2-2.6,2.5-3.5,4c-0.9,1.6-1.3,3.3-1.2,5.1c0,1.8,0.3,3.6,0.6,5.4c0.8,3.6,1.9,7.1,2.5,10.7c0.3,1.8,0.4,3.7,0.2,5.6
						c-0.2,1.9-1,3.7-1.9,5.3c-1.9,3.3-4.3,6.1-6.4,9.2c-1.1,1.5-2.1,3.1-2.9,4.8c-0.8,1.7-1.3,3.5-1.4,5.3c0,1.8,0.6,3.6,1.3,5.3
						c0.8,1.7,1.8,3.3,2.9,4.8c2.1,3,4.6,5.9,6.4,9.2c0.9,1.6,1.6,3.4,1.9,5.3c0.3,1.9,0.1,3.8-0.2,5.6c-0.6,3.7-1.7,7.2-2.5,10.7
						c-0.4,1.8-0.6,3.6-0.6,5.4c0,1.8,0.4,3.6,1.2,5.1c0.8,1.6,2.1,2.9,3.5,4c1.4,1.1,2.9,2.1,4.4,3.1c3.1,1.9,6.3,3.6,9.1,5.8
						c1.4,1.1,2.7,2.5,3.6,4c0.9,1.6,1.5,3.3,1.9,5c0.8,3.5,1.1,7,1.7,10.5c0.3,1.7,0.7,3.4,1.3,5c0.6,1.6,1.4,3.1,2.6,4.4
						c2.5,2.4,5.9,3.4,9.3,4c3.4,0.6,6.8,0.9,10.2,1.7c1.7,0.4,3.3,0.9,4.9,1.7c1.5,0.8,2.9,1.9,4,3.2c2.3,2.6,3.9,5.5,5.6,8.4
						c1.7,2.8,3.4,5.7,5.9,7.9c1.2,1,2.6,1.9,4.2,2.3c1.6,0.4,3.2,0.5,4.8,0.3c3.2-0.3,6.3-1.2,9.5-2c3.1-0.8,6.3-1.5,9.5-1.4
						c1.6,0.1,3.2,0.5,4.6,1.2c1.4,0.7,2.8,1.5,4.1,2.4c2.6,1.8,5,3.8,7.5,5.5c1.3,0.8,2.6,1.7,4,2.3c0.7,0.4,1.4,0.6,2.1,0.8
						c0.4,0.1,0.7,0.2,1.1,0.3c0.2,0,0.4,0.1,0.5,0.1l0.6,0c3,0.3,5.9-0.9,8.4-2.4c2.5-1.5,4.9-3.4,7.2-5.2c2.4-1.7,4.8-3.4,7.6-4.4
						c2.8-0.9,5.8-0.7,8.6-0.2c2.8,0.5,5.5,1.3,8.2,2c2.7,0.6,5.5,1.2,8.2,1c2.7-0.2,5.2-1.6,7-3.5c1.9-1.9,3.3-4.2,4.6-6.4
						c1.4-2.3,2.6-4.5,4.1-6.7c1.5-2.1,3.2-4.1,5.5-5.3c2.2-1.2,4.7-1.8,7.2-2.2c2.4-0.4,4.9-0.7,7.2-1.1c2.4-0.4,4.7-0.9,6.8-1.8
						c2.1-0.9,4-2.4,5.1-4.4c1.2-1.9,1.8-4.1,2.2-6.3c0.9-4.3,1.1-8.7,2.3-12.7c0.6-2,1.5-4,2.8-5.5c1.3-1.6,2.9-2.8,4.6-3.9
						c3.3-2.2,6.7-3.9,9.6-6c1.5-1.1,2.9-2.2,4-3.5c1.1-1.3,1.9-2.9,2.2-4.5c0.4-1.6,0.3-3.3,0.1-4.9c-0.2-1.6-0.5-3.1-0.8-4.6
						c-0.7-3-1.5-5.8-2-8.5c-0.5-2.7-0.6-5.4,0-7.8c0.7-2.4,1.9-4.4,3.1-6.1c2.4-3.5,4.7-6.2,6.3-8.7c1.6-2.4,2.4-4.5,2.7-6
						c0.2-0.7,0.2-1.3,0.2-1.7C353.8,279.4,353.9,279.3,353.9,279.3s0,0.2,0,0.6c0,0.4,0,0.9-0.2,1.7c-0.3,1.5-1.1,3.6-2.6,6
						c-1.5,2.5-3.8,5.2-6.2,8.7c-1.2,1.8-2.4,3.7-3,6.1c-0.6,2.3-0.5,5,0,7.7c0.5,2.7,1.3,5.5,2,8.5c0.3,1.5,0.7,3,0.9,4.6
						c0.2,1.6,0.3,3.3-0.1,4.9c-0.4,1.7-1.1,3.2-2.3,4.6c-1.1,1.4-2.5,2.5-4,3.6c-3,2.1-6.4,3.8-9.6,6c-1.6,1.1-3.2,2.3-4.5,3.8
						c-1.3,1.5-2.2,3.4-2.7,5.4c-1.1,4-1.4,8.4-2.2,12.7c-0.4,2.2-1,4.4-2.2,6.4c-1.1,2-3,3.6-5.2,4.5c-2.2,1-4.5,1.5-6.9,1.9
						c-2.4,0.4-4.8,0.7-7.2,1.1c-2.4,0.4-4.9,1-7,2.2c-2.2,1.2-3.9,3.1-5.4,5.2c-1.5,2.1-2.7,4.4-4.1,6.6c-1.4,2.3-2.8,4.5-4.7,6.5
						c-1.9,1.9-4.5,3.4-7.3,3.6c-2.8,0.2-5.6-0.3-8.3-1c-2.7-0.7-5.4-1.4-8.2-2c-2.8-0.5-5.7-0.7-8.4,0.2c-2.7,0.9-5.1,2.6-7.5,4.3
						c-2.4,1.7-4.7,3.6-7.3,5.2c-0.7,0.4-1.3,0.8-2,1.1c-0.3,0.2-0.7,0.3-1,0.5l-1.1,0.4c-1.5,0.4-3,0.7-4.6,0.5l-0.6,0
						c-0.2,0-0.4-0.1-0.6-0.1c-0.4-0.1-0.8-0.2-1.1-0.3c-0.7-0.3-1.5-0.5-2.2-0.8c-1.4-0.6-2.7-1.5-4-2.3c-2.6-1.7-5-3.7-7.5-5.5
						c-1.3-0.9-2.6-1.7-4-2.3c-1.4-0.6-2.9-1-4.5-1.1c-3.1-0.2-6.3,0.6-9.4,1.3c-3.1,0.8-6.2,1.7-9.5,2c-1.6,0.1-3.3,0.1-4.9-0.3
						c-1.6-0.4-3.1-1.3-4.4-2.4c-2.5-2.2-4.3-5.1-6-8c-1.7-2.9-3.3-5.8-5.5-8.3c-1.1-1.2-2.4-2.3-3.9-3.1c-1.5-0.7-3.1-1.2-4.8-1.6
						c-3.3-0.7-6.7-1-10.1-1.7c-1.7-0.3-3.4-0.7-5-1.3c-1.6-0.6-3.2-1.5-4.5-2.8c-1.3-1.3-2.1-2.9-2.7-4.5c-0.6-1.7-1-3.4-1.3-5.1
						c-0.6-3.5-0.9-7-1.7-10.4c-0.4-1.7-1-3.4-1.9-4.9c-0.9-1.5-2.1-2.8-3.5-3.9c-2.8-2.2-6-3.9-9-5.8c-1.5-1-3.1-1.9-4.5-3.1
						c-1.4-1.2-2.7-2.5-3.6-4.2c-0.9-1.6-1.3-3.5-1.3-5.4c0-1.9,0.3-3.7,0.6-5.5c0.8-3.6,1.9-7.1,2.5-10.7c0.3-1.8,0.4-3.6,0.2-5.4
						c-0.2-1.8-0.9-3.5-1.8-5.1c-1.8-3.2-4.2-6.1-6.4-9.1c-1.1-1.5-2.1-3.1-2.9-4.8c-0.8-1.7-1.4-3.6-1.4-5.5c0-1.9,0.6-3.8,1.4-5.5
						c0.8-1.7,1.8-3.3,2.9-4.8c2.2-3.1,4.6-5.9,6.4-9.1c0.9-1.6,1.6-3.3,1.8-5.1c0.2-1.8,0.1-3.6-0.2-5.4c-0.6-3.6-1.7-7.1-2.5-10.7
						c-0.4-1.8-0.6-3.6-0.6-5.5c0-1.8,0.4-3.7,1.3-5.4c0.9-1.6,2.2-3,3.6-4.2c1.4-1.2,2.9-2.2,4.5-3.1c3.1-1.9,6.3-3.6,9-5.8
						c1.4-1.1,2.6-2.4,3.5-3.9c0.9-1.5,1.5-3.2,1.9-4.9c0.8-3.4,1.1-7,1.7-10.4c0.3-1.7,0.7-3.5,1.3-5.1c0.6-1.6,1.5-3.2,2.7-4.5
						c1.3-1.3,2.9-2.1,4.5-2.8c1.6-0.6,3.3-1,5-1.3c3.4-0.6,6.8-0.9,10.1-1.7c1.6-0.4,3.3-0.9,4.8-1.6c1.5-0.8,2.8-1.9,3.9-3.1
						c2.2-2.5,3.8-5.5,5.5-8.3c1.7-2.8,3.4-5.8,6-8c1.3-1.1,2.7-2,4.4-2.4c1.6-0.4,3.3-0.5,4.9-0.3c3.3,0.3,6.4,1.2,9.5,2
						c3.1,0.8,6.2,1.5,9.4,1.3c1.6-0.1,3.1-0.5,4.5-1.1c1.4-0.7,2.8-1.4,4-2.3c2.6-1.7,5-3.7,7.5-5.5c1.3-0.9,2.6-1.7,4-2.3
						c0.7-0.4,1.4-0.6,2.2-0.8c0.4-0.1,0.8-0.2,1.1-0.3c0.2,0,0.4-0.1,0.6-0.1l0.6,0c1.5-0.2,3.1,0.1,4.6,0.5l1.1,0.4
						c0.4,0.1,0.7,0.3,1,0.5c0.7,0.3,1.3,0.7,2,1.1c2.6,1.6,4.9,3.4,7.3,5.2c2.4,1.7,4.8,3.4,7.5,4.3c2.7,0.9,5.7,0.7,8.4,0.2
						c2.8-0.5,5.5-1.3,8.2-2c2.7-0.6,5.5-1.2,8.3-1c2.8,0.2,5.4,1.6,7.3,3.6c1.9,2,3.3,4.2,4.7,6.5c1.4,2.3,2.6,4.5,4.1,6.6
						c1.5,2.1,3.2,4,5.4,5.2c2.2,1.2,4.6,1.8,7,2.2c2.4,0.4,4.8,0.7,7.2,1.1c2.4,0.4,4.7,0.9,6.9,1.9c2.2,0.9,4.1,2.5,5.2,4.5
						c1.2,2,1.8,4.2,2.2,6.4c0.9,4.4,1.1,8.7,2.2,12.7c0.6,2,1.4,3.9,2.7,5.4c1.3,1.5,2.9,2.8,4.5,3.8c3.2,2.2,6.6,3.9,9.6,6
						c1.5,1.1,2.9,2.2,4,3.6c1.1,1.4,1.9,3,2.3,4.6c0.4,1.7,0.3,3.3,0.1,4.9c-0.2,1.6-0.5,3.1-0.9,4.6c-0.7,3-1.5,5.8-2,8.5
						c-0.5,2.7-0.6,5.3,0,7.7c0.6,2.3,1.9,4.3,3,6.1c2.4,3.5,4.7,6.3,6.2,8.7c1.6,2.4,2.4,4.6,2.6,6c0.2,0.7,0.2,1.3,0.2,1.7
						C353.9,279.1,353.9,279.3,353.9,279.3z"/>
				</g>
			</g>
			<g>
				<path class="st12" d="M263.4,261.4"/>
			</g>
			<g>
				<g>
					<path class="st8" d="M197,401.9c0.1,0-3.2,13.4-7.4,29.8c-4.2,16.4-7.7,29.7-7.8,29.7s3.2-13.4,7.4-29.8
						C193.3,415.1,196.8,401.8,197,401.9z"/>
				</g>
			</g>
		</g>
		<g>
			<g>
				<circle class="st1" cx="221.7" cy="279.3" r="81"/>
			</g>
			<g>
				<path class="st10" d="M171.9,251.2c-1.1,1.1-7.3,12.3-7.8,21.5c-0.6,9.2,0.8,61,0.8,61l0.2,3.4c14.6,17,67.6,42.4,115.3-0.1l0,0
					l2.7-31.8l-7.9-67.4l-27.4-6.7l-6.4-10.4l-42.8,10l-3.8,9L171.9,251.2z"/>
			</g>
			<g>
				<g>
					<g>
						<g>
							<g>
								<g>
									<g>
										<g>
											<g>
												<g>
													<g>
														<path class="st8" d="M238.4,193.6c1.9-7,3.7-14,4.4-21.3c0.7-7.2,0-14.7-2.8-21.3c-0.4-1-4-7.7-5.1-7.6
															c-0.8,0.1,1.6,6.5,1.2,7.1c-3.4,6.7-4.1,14.5-3.1,21.9C234,179.9,235.9,186.6,238.4,193.6"/>
													</g>
												</g>
											</g>
										</g>
									</g>
								</g>
							</g>
						</g>
						<g>
							<g>
								<g>
									<path class="st13" d="M237.7,166c-0.3-18.2-11.2-33.1-29.4-32.3l-1.7,0.2c-16.8,1.8-29.5,16.2-29.1,33.1
										c0.4,15.7,1,33.1,2,41.5c2,17.3,19.7,18.2,19.7,18.2c0,0,0.8,11.4,0.8,11.4l7.5,8.1l34.5-21.4L237.7,166z"/>
								</g>
							</g>
						</g>
						<g>
							<g>
								<g>
									<g>
										<g>
											<g>
												<g>
													<g>
														<g>
															<g>
																<path class="st14" d="M199.3,226.8c0,0,11-0.5,21.9-9.1c0,0-3.6,15.7-21.1,16L199.3,226.8z"/>
															</g>
														</g>
													</g>
												</g>
											</g>
										</g>
									</g>
								</g>
							</g>
						</g>
						<g>
							<g>
								<g>
									<g>
										<g>
											<g>
												<g>
													<g>
														<g>
															<g>
																<g>
																	<g>
																		<g>
																			<g>
																				<g>
																					<g>
																						<path class="st8" d="M187.6,181.1c0.1,1.3,1.3,2.3,2.7,2.2c1.4-0.1,2.4-1.2,2.3-2.5c-0.1-1.3-1.3-2.3-2.6-2.2
																							C188.5,178.7,187.5,179.8,187.6,181.1z"/>
																					</g>
																				</g>
																			</g>
																		</g>
																	</g>
																</g>
															</g>
														</g>
													</g>
												</g>
											</g>
										</g>
									</g>
								</g>
							</g>
						</g>
						<g>
							<g>
								<g>
									<g>
										<g>
											<g>
												<g>
													<g>
														<g>
															<g>
																<g>
																	<g>
																		<g>
																			<g>
																				<g>
																					<g>
																						<g>
																							<path class="st8" d="M182.1,173.8c0.3,0.3,2.1-1.3,4.7-1.6c2.7-0.3,4.8,0.9,5,0.5c0.1-0.2-0.2-0.7-1.2-1.2
																								c-0.9-0.5-2.4-1-4.1-0.8c-1.7,0.2-3,0.9-3.7,1.7C182.1,173,181.9,173.6,182.1,173.8z"/>
																						</g>
																					</g>
																				</g>
																			</g>
																		</g>
																	</g>
																</g>
															</g>
														</g>
													</g>
												</g>
											</g>
										</g>
									</g>
								</g>
							</g>
						</g>
						<g>
							<g>
								<g>
									<g>
										<g>
											<g>
												<g>
													<g>
														<g>
															<g>
																<g>
																	<g>
																		<g>
																			<g>
																				<g>
																					<g>
																						<path class="st8" d="M211.1,179.1c0.1,1.3,1.3,2.3,2.7,2.2c1.4-0.1,2.4-1.2,2.3-2.5c-0.1-1.3-1.3-2.3-2.6-2.2
																							C212.1,176.7,211,177.8,211.1,179.1z"/>
																					</g>
																				</g>
																			</g>
																		</g>
																	</g>
																</g>
															</g>
														</g>
													</g>
												</g>
											</g>
										</g>
									</g>
								</g>
							</g>
						</g>
						<g>
							<g>
								<g>
									<g>
										<g>
											<g>
												<g>
													<g>
														<g>
															<g>
																<g>
																	<g>
																		<g>
																			<g>
																				<g>
																					<g>
																						<g>
																							<path class="st8" d="M208.3,172.1c0.3,0.3,2.1-1.3,4.7-1.6c2.7-0.3,4.8,0.9,5,0.5c0.1-0.2-0.2-0.7-1.2-1.2
																								c-0.9-0.5-2.4-1-4.1-0.8c-1.7,0.2-3,0.9-3.7,1.7C208.3,171.4,208.1,172,208.3,172.1z"/>
																						</g>
																					</g>
																				</g>
																			</g>
																		</g>
																	</g>
																</g>
															</g>
														</g>
													</g>
												</g>
											</g>
										</g>
									</g>
								</g>
							</g>
						</g>
						<g>
							<g>
								<g>
									<g>
										<g>
											<g>
												<g>
													<g>
														<g>
															<g>
																<g>
																	<g>
																		<g>
																			<g>
																				<g>
																					<g>
																						<path class="st8" d="M200.9,193.6c0-0.2-1.7-0.3-4.4-0.3c-0.7,0-1.3-0.1-1.5-0.5c-0.2-0.5,0-1.2,0.2-2.1
																							c0.5-1.7,1-3.5,1.5-5.4c2-7.7,3.4-14,3.1-14c-0.3-0.1-2.2,6.1-4.2,13.8c-0.5,1.9-0.9,3.7-1.4,5.4
																							c-0.2,0.8-0.5,1.7-0.1,2.7c0.2,0.5,0.8,0.8,1.2,0.9c0.5,0.1,0.8,0.1,1.2,0
																							C199.2,193.9,200.9,193.7,200.9,193.6z"/>
																					</g>
																				</g>
																			</g>
																		</g>
																	</g>
																</g>
															</g>
														</g>
													</g>
												</g>
											</g>
										</g>
									</g>
								</g>
							</g>
						</g>
						<g>
							<g>
								<g>
									<g>
										<g>
											<g>
												<g>
													<g>
														<g>
															<g>
																<g>
																	<g>
																		<g>
																			<g>
																				<g>
																					<g>
																						<path class="st8" d="M208.9,194.6c-0.4,0-0.1,2.9-2.4,5.2c-2.3,2.3-5.4,2.3-5.4,2.7c0,0.2,0.7,0.5,2.1,0.4
																							c1.3-0.1,3.1-0.7,4.5-2.1c1.4-1.4,1.9-3.2,1.8-4.4C209.5,195.3,209.1,194.6,208.9,194.6z"/>
																					</g>
																				</g>
																			</g>
																		</g>
																	</g>
																</g>
															</g>
														</g>
													</g>
												</g>
											</g>
										</g>
									</g>
								</g>
							</g>
						</g>
						<g>
							<g>
								<g>
									<g>
										<g>
											<g>
												<g>
													<g>
														<g>
															<g>
																<g>
																	<g>
																		<path class="st8" d="M207.3,161.3c0.3,0.7,3,0.1,6.1,0.1c3.2,0,5.8,0.6,6.1-0.1c0.2-0.3-0.4-1-1.5-1.6
																			c-1.1-0.6-2.8-1.1-4.7-1.1c-1.9,0-3.6,0.5-4.7,1.1C207.7,160.3,207.1,160.9,207.3,161.3z"/>
																	</g>
																</g>
															</g>
														</g>
													</g>
												</g>
											</g>
										</g>
									</g>
								</g>
							</g>
						</g>
						<g>
							<g>
								<g>
									<g>
										<g>
											<g>
												<g>
													<g>
														<g>
															<g>
																<g>
																	<g>
																		<path class="st8" d="M182.2,164.8c0.5,0.6,2.3-0.3,4.5-0.5c2.2-0.3,4.1,0,4.5-0.7c0.2-0.3-0.2-0.9-1.1-1.4
																			c-0.9-0.5-2.3-0.8-3.8-0.6c-1.5,0.2-2.8,0.9-3.5,1.6C182.2,163.9,182,164.5,182.2,164.8z"/>
																	</g>
																</g>
															</g>
														</g>
													</g>
												</g>
											</g>
										</g>
									</g>
								</g>
							</g>
						</g>
						<g>
							<g>
								<g>
									<g>
										<g>
											<g>
												<g>
													<g>
														<path class="st13" d="M237.7,178.9c0.3-0.2,11.5-4.8,12.4,7.1c0.9,11.9-11.3,10.3-11.3,10
															C238.7,195.7,237.7,178.9,237.7,178.9z"/>
													</g>
												</g>
											</g>
										</g>
									</g>
								</g>
							</g>
						</g>
						<g>
							<g>
								<g>
									<g>
										<g>
											<g>
												<g>
													<g>
														<g>
															<path class="st14" d="M242.1,191.3c0,0,0.2,0.1,0.6,0.3c0.4,0.1,0.9,0.2,1.6-0.1c1.2-0.6,2.1-2.6,2-4.8
																c0-1.1-0.4-2.1-0.8-2.9c-0.4-0.8-1-1.4-1.7-1.5c-0.6-0.1-1.1,0.3-1.2,0.7c-0.1,0.3,0,0.6-0.1,0.6
																c0,0-0.3-0.2-0.2-0.7c0-0.2,0.2-0.5,0.4-0.8c0.3-0.3,0.7-0.4,1.1-0.4c0.9,0,1.8,0.8,2.3,1.7c0.5,0.9,0.9,2,1,3.3
																c0.1,2.4-1,4.7-2.6,5.4c-0.8,0.3-1.5,0.1-1.9-0.2C242.1,191.6,242,191.3,242.1,191.3z"/>
														</g>
													</g>
												</g>
											</g>
										</g>
									</g>
								</g>
							</g>
						</g>
						<g>
							<g>
								<g>
									<g>
										<g>
											<g>
												<g>
													<g>
														<path class="st8" d="M184,146.7c-2-0.9,3.4-7.6,8-10c6.9-3.7,17.7-6.4,24.5-5c8.1,1.7,14.9,5.3,19.4,12.2
															c4.5,7,6.5,15.3,6.8,23.6c0.1,2.5,0,5.2-1.2,7.4c-1.5,2.7-4.6,4.6-4.2,8.2c0.1,1.3-0.2,2.7-1,3.7
															c-2,2.5-4.8,0.5-6.2-1.7c-2.9-4.5-3.6-10-4.1-15.4c-0.4-3.8-0.8-7.7,0-11.4c0.5-2,1.3-4,1.6-6c0.3-2,0.1-4.3-1.2-5.9
															c-0.2-0.3-0.6-0.6-1-0.9c-3.6-2.7-8.3-3.3-12.5-1.6c-6.6,2.8-17.8,7.1-20.9,5c-4.5-3-5.7-5.1-5.7-5.1L184,146.7z"/>
													</g>
												</g>
											</g>
										</g>
									</g>
								</g>
							</g>
						</g>
					</g>
				</g>
			</g>
			<g>
				<path class="st10" d="M171.9,251.2c-0.7,1-10.4,4.2-14.1,10.4c-3.7,6.2-7.4,33.8-7.4,33.8l-2.4,18.2
					c4.6,7.3,10.9,17.1,17.5,23.9L171.9,251.2z"/>
			</g>
			<g class="st9">
				<g>
					<path d="M245.1,277.9c0.4,3.7,0.8,7.5,2.1,11c1.3,3.5,3.5,6.8,6.8,8.6c1.4,0.8,2.9,1.3,4.1,2.3c1.2,1.1,1.9,2.8,3,4.1
						c1.3,1.5,3.2,2.3,5,2.9c5.5,1.9,10.8,2.9,16.6,2.6c0.2-1.9,0.2-8.9,0.4-10.8L245.1,277.9z"/>
				</g>
			</g>
			<g>
				<g>
					<g>
						<path class="st10" d="M275.2,237.8c0,0,12.3,3.6,15.9,8.9c3.6,5.2,10,25.5,11.3,29.3c1.3,3.8,0.2,12.5-2.3,18.8
							c-2.5,6.3-6.7,11.7-14.1,12.5c-7.4,0.8-19-3.4-21.6-6.2c-2.6-2.8-3.7-9-3.7-9c3.3-0.6,6.5-1.4,9.7-2.4"/>
					</g>
					<g>
						<g>
							<path class="st8" d="M270.3,289.6c0,0,0,0-0.2,0.1c-0.1,0-0.3,0.1-0.5,0.2c-0.4,0.1-1,0.3-1.8,0.6c-1.6,0.5-4,1.1-7.2,1.7
								l0.1-0.1c0.3,1.4,0.7,2.9,1.3,4.5c0.3,0.8,0.6,1.6,1.1,2.4c0.4,0.8,0.9,1.6,1.6,2.2c0.7,0.6,1.6,1.2,2.5,1.6
								c0.9,0.5,1.9,0.9,2.9,1.3c2,0.8,4.2,1.5,6.5,2.1c2.3,0.5,4.8,0.9,7.3,0.9c0.6,0,1.3-0.1,1.9-0.1c0.6-0.1,1.3-0.2,1.9-0.3
								c1.3-0.3,2.5-0.8,3.7-1.4c2.4-1.3,4.3-3.3,5.9-5.7c1.5-2.4,2.7-5.1,3.5-7.9c0.6-2.2,1.1-4.4,1.4-6.5c0.3-2.2,0.5-4.4,0.3-6.5
								c-0.1-1.1-0.3-2.1-0.6-3.1c-0.3-1-0.7-2-1-3c-0.7-2-1.3-3.9-1.9-5.7c-1.3-3.7-2.5-7.3-3.8-10.5c-1.3-3.3-2.5-6.3-4-8.9
								c-0.7-1.3-1.7-2.3-2.8-3.1c-1-0.8-2.1-1.5-3.1-2.1c-2.1-1.2-3.9-2-5.4-2.6c-1.5-0.6-2.8-1.1-3.6-1.4
								c-0.4-0.1-0.7-0.2-0.9-0.3c-0.2-0.1-0.3-0.1-0.3-0.1c0,0,0.1,0,0.3,0.1c0.2,0.1,0.6,0.2,1,0.3c0.8,0.3,2.1,0.7,3.6,1.3
								c1.5,0.6,3.4,1.4,5.5,2.6c1,0.6,2.1,1.2,3.2,2.1c1.1,0.8,2.1,1.9,2.9,3.2c1.5,2.6,2.7,5.6,4,8.9c1.3,3.3,2.5,6.8,3.8,10.5
								c0.6,1.9,1.3,3.8,1.9,5.7c0.3,1,0.7,2,1,3c0.4,1,0.6,2.1,0.7,3.2c0.1,2.2,0,4.4-0.3,6.6c-0.3,2.2-0.8,4.4-1.4,6.6
								c-0.8,2.9-2,5.6-3.5,8c-1.5,2.4-3.6,4.5-6,5.9c-1.2,0.7-2.5,1.2-3.8,1.5c-0.7,0.2-1.3,0.2-2,0.3c-0.7,0-1.3,0.1-2,0.1
								c-2.6,0-5.1-0.4-7.4-1c-2.3-0.6-4.5-1.3-6.6-2.1c-1-0.4-2-0.9-2.9-1.4c-0.9-0.5-1.8-1-2.5-1.7c-0.7-0.7-1.3-1.5-1.7-2.3
								c-0.4-0.8-0.8-1.7-1.1-2.5c-0.6-1.6-1-3.2-1.2-4.6l0-0.1l0.1,0c3.1-0.5,5.6-1.2,7.2-1.6c0.8-0.2,1.4-0.4,1.9-0.5
								c0.2-0.1,0.3-0.1,0.5-0.1C270.3,289.6,270.3,289.6,270.3,289.6z"/>
						</g>
					</g>
				</g>
				<g>
					<g>
						<path class="st8" d="M292.9,283c-0.1,0-0.4-1.5-1.4-3.8c-1-2.3-2.8-5.3-5.5-7.9c-1.4-1.3-2.9-2.3-4.3-3.1
							c-0.4-0.2-0.7-0.3-1.1-0.5c-0.4-0.2-0.7-0.2-1.1-0.3c-0.7-0.3-1.4-0.3-2-0.4c-0.2,0-0.3,0-0.4-0.1c-0.1,0-0.3,0-0.4,0
							c-0.3,0-0.5,0-0.8,0c-0.5,0-0.9,0.1-1.3,0.1c-0.7,0.1-1.1,0.1-1.1,0.1c0,0,0.4-0.1,1.1-0.3c0.3-0.1,0.8-0.2,1.3-0.2
							c0.3,0,0.5,0,0.8,0c0.1,0,0.3,0,0.4,0c0.2,0,0.3,0,0.5,0.1c0.6,0.1,1.3,0.1,2,0.4c0.4,0.1,0.7,0.2,1.1,0.3
							c0.4,0.2,0.7,0.3,1.1,0.5c1.5,0.7,3.1,1.8,4.4,3.1c2.8,2.7,4.6,5.8,5.5,8.1c0.2,0.6,0.5,1.1,0.6,1.6c0.1,0.5,0.3,0.9,0.3,1.2
							C292.8,282.6,292.9,283,292.9,283z"/>
					</g>
				</g>
				<g>
					<g>
						<path class="st8" d="M299.6,272c-0.1,0-0.4-1.6-1.9-3.7c-1.4-2.1-4-4.8-7.8-5.9c-3.8-1.1-7.4-0.8-10-0.5
							c-1.2,0.1-2.2,0.3-3.1,0.4c-0.7,0.1-1.1,0.1-1.1,0.1c0,0,0.4-0.1,1.1-0.3c0.7-0.1,1.8-0.3,3-0.5c2.6-0.3,6.3-0.8,10.2,0.4
							c1.9,0.6,3.6,1.6,5,2.7c1.3,1.1,2.3,2.4,3,3.5c0.7,1.1,1.1,2.1,1.3,2.8C299.5,271.6,299.6,272,299.6,272z"/>
					</g>
				</g>
				<g>
					<g>
						<path class="st8" d="M290.3,258.8c0,0.2-3.2-0.9-7.3-0.7c-4.1,0.1-7.2,1.4-7.2,1.3c0,0,0.7-0.4,2-0.8c1.3-0.4,3.1-0.8,5.2-0.9
							c2.1-0.1,3.9,0.2,5.3,0.5C289.6,258.4,290.3,258.7,290.3,258.8z"/>
					</g>
				</g>
				<g>
					<g>
						<path class="st8" d="M270.4,240.9c0.1,0-0.1,1.3-0.2,3.3c-0.1,2-0.2,4.8,0.1,7.9c0.3,2.9,0.8,5.6,1.3,7.5l-0.3,0.1
							c-0.4-1-0.7-1.9-0.8-2.5s-0.3-0.9-0.2-0.9c0,0,0.2,0.3,0.4,0.9c0.2,0.6,0.6,1.4,1,2.4l-0.3,0.1c-0.6-1.9-1.1-4.6-1.4-7.6
							c-0.3-3.1-0.2-5.9,0.1-7.9c0.1-1,0.2-1.8,0.4-2.4C270.3,241.2,270.4,240.9,270.4,240.9z"/>
					</g>
				</g>
				<g>
					<g>
						<path class="st13" d="M253,218c0,0-6.4,0-7.2,7.7c-0.6,5.9,0,11.6,0,14.2s-1.1,11.7-1.1,11.7s-4.4,3.9-4.3,8.5
							c0.1,4.7,3.4,6.1,3.4,6.1s-2,4.4,1.8,8.5c0,0-1.9,4.3-0.3,7.2c1.2,2.2,3.8,3,3.8,3s-1.9,4.2,2.6,6c2.7,1,6.6,0.8,6.6,0.8
							l4.8-0.1l4.2,2.3c0,0,7.2-3.1,7.4-7.4s0.2-4.2,0.2-4.2s-2-7-2.2-9.2c-0.2-2.2,1.7-7.6,0.6-9.9c-1.1-2.4-5-3.8-4.6-7.2
							s-0.4-5.2-2-7c-1.7-1.8-9-5.5-9-5.5s-1.9-5.3-1.9-9C255.8,230.6,259.5,219.4,253,218z"/>
					</g>
					<g>
						<g>
							<path class="st14" d="M257.3,244.7c0,0.1-0.6,0.5-1.8,1.1c-1.1,0.7-2.7,1.5-4.4,2.5c-1.7,0.9-3.3,1.8-4.5,2.4
								c-1.2,0.6-1.9,0.9-1.9,0.9c0-0.1,0.6-0.5,1.8-1.1c1.1-0.7,2.7-1.5,4.4-2.5c1.7-0.9,3.3-1.8,4.5-2.4
								C256.6,245,257.3,244.7,257.3,244.7z"/>
						</g>
					</g>
					<g>
						<g>
							<path class="st14" d="M261.5,259.1c0,0-0.2,0.2-0.6,0.5c-0.4,0.3-0.9,0.7-1.7,1.2c-1.4,0.9-3.5,2.1-6,3
								c-2.5,0.9-4.8,1.5-6.5,1.7c-0.8,0.1-1.5,0.2-2,0.2c-0.5,0-0.7,0-0.7,0c0-0.1,1-0.2,2.7-0.6c1.7-0.3,3.9-0.9,6.4-1.9
								c2.4-0.9,4.5-2,6-2.9C260.6,259.7,261.5,259.1,261.5,259.1z"/>
						</g>
					</g>
					<g>
						<g>
							<path class="st14" d="M267,254.6c0.1,0-0.1,0.9-0.9,1.5c-0.8,0.7-1.6,0.9-1.6,0.7c0-0.1,0.6-0.5,1.3-1.1
								C266.5,255.1,266.9,254.5,267,254.6z"/>
						</g>
					</g>
					<g>
						<g>
							<path class="st14" d="M264.4,271.8c0,0.1-1,0.5-2.7,1c-1.7,0.5-4,1.1-6.7,1.5c-2.7,0.4-5.1,0.6-6.8,0.6c-1.8,0-2.8,0-2.8-0.1
								c0-0.1,1.1-0.1,2.8-0.2c1.7-0.1,4.1-0.4,6.8-0.8c2.6-0.4,5-1,6.7-1.4C263.3,272,264.4,271.7,264.4,271.8z"/>
						</g>
					</g>
					<g>
						<g>
							<path class="st14" d="M270.2,270.7c-0.1,0,0.2-0.5,0.5-1.4c0.3-0.8,0.5-2.1,0.3-3.4c-0.2-1.3-0.7-2.5-1.1-3.2
								c-0.5-0.8-0.9-1.2-0.8-1.2c0,0,0.5,0.3,1.1,1c0.6,0.7,1.2,1.9,1.3,3.3c0.2,1.4-0.1,2.7-0.5,3.6
								C270.6,270.3,270.2,270.7,270.2,270.7z"/>
						</g>
					</g>
					<g>
						<g>
							<path class="st14" d="M264.7,284.7c0,0.1-0.8,0.3-2.3,0.5c-1.4,0.2-3.4,0.4-5.6,0.4c-2.2,0-4.2-0.2-5.6-0.5
								c-1.4-0.2-2.3-0.5-2.3-0.5c0-0.1,0.9,0.1,2.3,0.2c1.4,0.2,3.4,0.3,5.6,0.3c2.2,0,4.1-0.1,5.6-0.3
								C263.8,284.7,264.7,284.6,264.7,284.7z"/>
						</g>
					</g>
					<g>
						<g>
							<path class="st14" d="M253.4,234.4c0,0-0.3,0.3-0.9,0.5c-0.6,0.2-1.5,0.4-2.4,0.3c-1-0.1-1.8-0.5-2.3-0.8
								c-0.5-0.3-0.8-0.7-0.7-0.7c0.1-0.1,1.3,0.9,3.1,1.1C251.9,234.9,253.3,234.3,253.4,234.4z"/>
						</g>
					</g>
					<g>
						<g>
							<path class="st14" d="M271.5,271.3c0,0,0.1,0.2,0.1,0.7c0,0.4,0,1.1-0.2,1.9c-0.2,0.8-0.5,1.7-0.7,2.7
								c-0.3,1-0.5,2.1-0.3,3.2c0.2,1.1,1,2,1.1,3.2c0.2,1.1-0.3,2.1-0.7,2.8c-0.4,0.7-0.9,1.2-1.2,1.5c-0.3,0.3-0.5,0.5-0.5,0.5
								c-0.1-0.1,0.6-0.8,1.4-2.1c0.4-0.7,0.7-1.6,0.6-2.5c-0.1-1-1-1.9-1.2-3.2c-0.2-1.3,0.1-2.4,0.4-3.4c0.3-1,0.6-1.9,0.8-2.6
								C271.5,272.2,271.5,271.3,271.5,271.3z"/>
						</g>
					</g>
				</g>
				<g>
					<g>
						<path class="st8" d="M273.9,276.9c0,0,0.1,0.3,0.3,0.8c0.2,0.5,0.4,1.3,0.6,2.4c0.2,1,0.4,2.2,0.4,3.6c0,1.4-0.1,2.9-0.8,4.4
							c-0.7,1.4-1.8,2.6-2.7,3.5c-1,0.9-2,1.6-2.8,2.2c-0.8,0.6-1.6,1-2.1,1.3c-0.5,0.3-0.8,0.4-0.8,0.4c0-0.1,1-0.7,2.7-1.9
							c0.8-0.6,1.8-1.3,2.7-2.3c1-0.9,1.9-2,2.6-3.4c0.7-1.4,0.8-2.8,0.8-4.2c0-1.3-0.2-2.5-0.3-3.5
							C274.2,278.1,273.9,276.9,273.9,276.9z"/>
					</g>
				</g>
			</g>
			<g>
				<g>
					<path class="st8" d="M206.6,247.2c0,0-0.4-0.3-1-0.8c-0.7-0.6-1.6-1.3-2.7-2.2c-0.6-0.5-1.2-1-1.9-1.6
						c-0.3-0.3-0.7-0.6-1.1-0.8c-0.4-0.2-0.8-0.2-1.2,0c-0.8,0.4-1.3,1.4-1.9,2.2c-0.6,0.9-1.3,1.7-2,2.6c-1.1,1.4-2.1,2.8-3.1,4.1
						l-0.6,0.8l0.2-0.9c0.6-3.2,1.5-5.9,2.2-7.8c0.4-0.9,0.7-1.7,0.9-2.2c0.2-0.5,0.4-0.8,0.4-0.7c0,0-0.1,0.3-0.3,0.8
						c-0.2,0.5-0.5,1.2-0.8,2.2c-0.6,1.9-1.5,4.6-2,7.8l-0.4-0.2c1-1.3,2-2.7,3.1-4.1c0.7-0.9,1.3-1.8,2-2.6
						c0.3-0.4,0.6-0.8,0.9-1.3c0.3-0.4,0.7-0.8,1.2-1.1c0.5-0.3,1.1-0.2,1.6,0.1c0.4,0.2,0.8,0.5,1.1,0.8c0.6,0.6,1.3,1.1,1.8,1.6
						c1.1,0.9,1.9,1.7,2.6,2.3C206.3,246.8,206.6,247.1,206.6,247.2z"/>
				</g>
			</g>
			<g>
				<g>
					<path class="st8" d="M244.3,239.6c0,0-0.1,0.1-0.3,0.3c-0.3,0.2-0.6,0.5-1.1,0.8c-1,0.7-2.3,1.7-3.9,3c-3.4,2.5-8,5.9-13.1,9.7
						l-0.2,0.1l-0.1-0.2c-0.1-0.2-0.2-0.3-0.3-0.5c-2.4-3.8-4.7-7.4-6.6-10.4l0.2,0.1c-3.2,1.3-5.6,2.6-7.3,3.6
						c-0.8,0.5-1.5,0.9-1.9,1.2c-0.4,0.3-0.7,0.4-0.7,0.4c0,0,0.2-0.2,0.6-0.5c0.4-0.3,1.1-0.8,1.9-1.3c1.7-1.1,4.1-2.5,7.3-3.8
						l0.2-0.1l0.1,0.1c1.9,3,4.2,6.6,6.6,10.4c0.1,0.2,0.2,0.3,0.3,0.5l-0.3-0.1c5.1-3.7,9.8-7.1,13.2-9.5c1.7-1.2,3-2.1,4-2.8
						c0.4-0.3,0.8-0.6,1.1-0.8C244.1,239.7,244.3,239.6,244.3,239.6z"/>
				</g>
			</g>
			<g>
				<g>
					<path class="st8" d="M164.2,275.1c0,0,0,0.2,0,0.6c0,0.5,0,1.1,0,1.8c0,1.6,0.1,3.9,0.1,6.6c0.1,5.6,0.3,13.3,0.6,21.9
						c0.3,8.6,0.5,16.3,0.5,21.9c0,2.8,0,5.1,0,6.6c0,0.7,0,1.3,0,1.8c0,0.4,0,0.6,0,0.6c0,0,0-0.2,0-0.6c0-0.5,0-1.1,0-1.8
						c0-1.6-0.1-3.9-0.1-6.6c-0.1-5.6-0.3-13.3-0.6-21.9c-0.3-8.6-0.5-16.3-0.5-21.9c0-2.8,0-5.1,0-6.6c0-0.7,0-1.3,0-1.8
						C164.2,275.3,164.2,275.1,164.2,275.1z"/>
				</g>
			</g>
			<g>
				<g>
					<path class="st8" d="M206.9,355.7c0,0,0-0.1,0-0.3c0-0.2-0.1-0.4-0.1-0.8c-0.1-0.7-0.2-1.7-0.3-2.9c-0.2-2.5-0.5-6.2-0.8-10.8
						c-0.3-4.5-0.5-10-0.7-16c-0.1-6-0.2-12.6,0-19.6c0.2-6.9,0.5-13.6,0.9-19.6c0.4-6,0.9-11.4,1.4-15.9c0.5-4.5,0.9-8.2,1.3-10.7
						c0.2-1.2,0.3-2.2,0.4-2.9c0-0.3,0.1-0.6,0.1-0.8c0-0.2,0-0.3,0.1-0.3c0,0,0,0.1,0,0.3c0,0.2,0,0.4-0.1,0.8
						c-0.1,0.7-0.2,1.7-0.3,2.9c-0.3,2.5-0.7,6.2-1.1,10.7c-0.4,4.5-0.9,9.9-1.3,15.9c-0.4,6-0.7,12.6-0.8,19.6
						c-0.1,6.9-0.1,13.6,0,19.6c0.1,6,0.3,11.4,0.6,16c0.2,4.5,0.5,8.2,0.7,10.8c0.1,1.2,0.2,2.2,0.2,2.9c0,0.3,0,0.6,0,0.8
						C206.9,355.6,206.9,355.7,206.9,355.7z"/>
				</g>
			</g>
			<g>
				<g>
					<path class="st8" d="M180.3,209.6c0,0-0.3,0.2-0.9,0.6c-0.6,0.4-1.6,1-2.8,1.8c-1.2,0.8-2.6,1.9-4.4,3.2
						c-0.9,0.6-1.7,1.4-2.7,2.2c-0.5,0.4-1,0.8-1.5,1.2c-0.5,0.4-1,0.9-1.5,1.4c-4.1,3.8-8.7,8.8-12.9,15.5c-0.5,0.8-1,1.7-1.6,2.6
						c-0.6,0.9-1,1.8-1.5,2.7c-0.5,0.9-1,1.9-1.5,2.8c-0.5,1-0.9,2-1.4,3c-0.2,0.5-0.5,1-0.7,1.5c-0.2,0.5-0.4,1.1-0.6,1.6
						c-0.4,1.1-0.8,2.2-1.2,3.3c-0.7,2.3-1.5,4.5-2,7c-1.2,4.8-1.9,10-2.2,15.4c-0.3,5.4,0,11.1,0.9,16.8
						c1.9,11.5,6.4,23.4,14.1,34.1c7.6,10.7,18.3,19.9,31.2,26c12.9,6.1,27.9,8.8,43,7.2c15.1-1.6,29.2-7.5,40.5-16.2
						c2.8-2.1,5.5-4.5,8-7c0.6-0.6,1.2-1.3,1.8-1.9c0.6-0.6,1.2-1.3,1.8-1.9c0.6-0.7,1.1-1.3,1.7-2c0.5-0.7,1.1-1.4,1.6-2
						c4.2-5.4,7.6-11.3,10.2-17.3c2.6-6,4.4-12.2,5.5-18.3c0.6-3.1,0.9-6.1,1.1-9.1c0.1-1.5,0.1-3,0.1-4.5c0-1.5-0.1-2.9-0.2-4.4
						c0-0.7-0.1-1.5-0.1-2.2c0-0.7-0.2-1.4-0.2-2.1c-0.2-1.4-0.3-2.8-0.5-4.2c-0.2-1.4-0.5-2.7-0.8-4.1c-0.3-1.4-0.5-2.7-0.9-4
						c-0.4-1.3-0.7-2.6-1.1-3.9c-0.2-0.6-0.4-1.3-0.6-1.9c-0.2-0.6-0.5-1.2-0.7-1.8c-0.5-1.2-0.9-2.4-1.4-3.6
						c-0.5-1.1-1.1-2.3-1.6-3.4c-4.3-8.9-9.8-16.2-15.4-21.7c-5.6-5.6-11.2-9.5-15.9-12.4c-1.2-0.7-2.3-1.3-3.4-2
						c-0.5-0.3-1.1-0.6-1.6-0.8c-0.5-0.2-1-0.5-1.5-0.7c-1-0.5-1.9-0.9-2.7-1.3c-0.8-0.4-1.6-0.6-2.3-0.9c-1.4-0.5-2.4-0.9-3.1-1.2
						c-0.7-0.3-1.1-0.4-1.1-0.4s0.4,0.1,1.1,0.4c0.7,0.3,1.8,0.7,3.1,1.2c0.7,0.3,1.5,0.5,2.3,0.9c0.8,0.4,1.7,0.8,2.7,1.3
						c0.5,0.2,1,0.5,1.5,0.7c0.5,0.2,1.1,0.5,1.6,0.8c1.1,0.6,2.2,1.3,3.4,1.9c4.7,2.9,10.4,6.8,16,12.4
						c5.6,5.6,11.2,12.8,15.5,21.8c0.5,1.1,1.1,2.3,1.6,3.4c0.5,1.2,0.9,2.4,1.4,3.6c0.2,0.6,0.5,1.2,0.7,1.8
						c0.2,0.6,0.5,1.2,0.6,1.9c0.4,1.3,0.7,2.6,1.1,3.9c0.4,1.3,0.7,2.6,0.9,4c0.3,1.4,0.6,2.7,0.8,4.1c0.2,1.4,0.3,2.8,0.5,4.2
						c0.1,0.7,0.2,1.4,0.2,2.2c0,0.7,0.1,1.5,0.1,2.2c0.1,1.5,0.1,2.9,0.2,4.4c0,1.5,0,3-0.1,4.5c-0.2,3-0.5,6.1-1.1,9.2
						c-1.1,6.1-2.8,12.4-5.5,18.4c-2.7,6-6,11.9-10.3,17.4c-0.5,0.7-1.1,1.4-1.6,2c-0.6,0.7-1.1,1.3-1.7,2c-0.6,0.7-1.2,1.3-1.8,1.9
						c-0.6,0.6-1.2,1.3-1.8,1.9c-2.5,2.4-5.2,4.8-8,7c-11.4,8.7-25.6,14.7-40.7,16.3c-15.1,1.6-30.3-1.1-43.2-7.3
						c-13-6.1-23.8-15.5-31.4-26.2c-7.7-10.7-12.3-22.7-14.1-34.3c-0.9-5.8-1.2-11.5-0.9-16.9c0.3-5.4,1-10.6,2.2-15.4
						c0.5-2.4,1.3-4.7,2-7c0.4-1.1,0.8-2.2,1.2-3.3c0.2-0.5,0.4-1.1,0.6-1.6c0.2-0.5,0.5-1,0.7-1.5c0.5-1,0.9-2,1.4-3
						c0.5-1,1-1.9,1.5-2.8c0.5-0.9,1-1.9,1.5-2.7c0.5-0.9,1.1-1.7,1.6-2.6c4.3-6.7,8.9-11.7,13-15.5c0.5-0.5,1-1,1.5-1.4
						c0.5-0.4,1-0.8,1.5-1.2c1-0.8,1.8-1.5,2.7-2.2c1.7-1.2,3.2-2.4,4.4-3.1c1.2-0.8,2.2-1.4,2.8-1.8
						C180,209.8,180.3,209.6,180.3,209.6z"/>
				</g>
			</g>
		</g>
	</g>
</g>
</svg>
