<?xml version="1.0" encoding="utf-8"?>
<!-- Generator: Adobe Illustrator 27.0.0, SVG Export Plug-In . SVG Version: 6.00 Build 0)  -->
<svg version="1.1" xmlns="http://www.w3.org/2000/svg" xmlns:xlink="http://www.w3.org/1999/xlink" x="0px" y="0px"
	 viewBox="0 0 415 585" style="enable-background:new 0 0 415 585;" xml:space="preserve">
<style type="text/css">
	.st0{fill:#ECECEC;}
	.st1{fill:#D3BBA3;}
	.st2{fill:#FFFFFF;}
	.st3{fill:#F7F1EB;}
	.st4{fill:#F6851F;}
	.st5{fill:#8B865C;}
	.st6{fill:#EFBC73;}
	.st7{fill:#363E44;}
	.st8{fill:#F2E6DC;}
	.st9{fill:#D87355;}
	.st10{fill:#E6D0BE;}
	.st11{fill:#E0AA63;}
	.st12{fill:#776E42;}
	.st13{fill:#E2A18D;}
	.st14{fill:#B77250;}
	.st15{fill:#BC8271;}
	.st16{fill:#373E44;}
	.st17{fill:#84524D;}
	.st18{clip-path:url(#SVGID_00000175280964773869593730000011852366716594506168_);fill:#363E44;}
</style>
<g id="Background">
</g>
<g id="Illustration">
	<g>
		<circle class="st0" cx="208.3" cy="292.5" r="200.4"/>
		<g>
			<path class="st1" d="M357.6,353.4H34.7c-0.3,0-0.5-0.2-0.5-0.5v-229c0-0.3,0.2-0.5,0.5-0.5h322.9c0.3,0,0.5,0.2,0.5,0.5v229
				C358.1,353.1,357.8,353.4,357.6,353.4z M35.2,352.4h321.9v-228H35.2V352.4z"/>
			
				<rect x="101.6" y="77.3" transform="matrix(-1.836970e-16 1 -1 -1.836970e-16 424.7295 32.4487)" class="st2" width="189.1" height="302.6"/>
		</g>
		<g>
			<g>
				<g>
					<path class="st0" d="M209.4,233.7v-4.5l-1-0.9v-3.5l-2.3-2v3.7l-1.4,1.2l-2.3-2l2-1.8l-3.6-3.1l-7.8,6.8h-2.4l-3.5,3
						c-0.1,3.6-0.1,9,0.1,9c0.2,0,6,0,6,0v-1.8h4.5v2.7h2.2v2.9l2.8,2.5l8.1-7.1v-5.1H209.4z"/>
				</g>
				<path class="st0" d="M72.6,206c0-0.6-0.5-9.2,0-9.2c0.5,0-6,0-6,0v-4.8h8.2l3,2.6v-5.1L84,184h6.2v-3.8h8.2v-11.3l-3.1-2.7
					l-6.5,5.7l-2.9-2.5l6.5-5.7l1.6,1.4l3.6-3.1l4.6,4l2.5-2.2v-4.8H92.9l2.9-2.5H78.9l-4.8-4.1h-6.6l-14.3,12.4h5.9l3.9-3.4l4,3.5
					l-4.2,3.7v6.2l-4.9,4.3v16.9L72.6,206z"/>
				<path class="st0" d="M76.3,206h8.3l11.6,10.1h4.8v6.8l-3.5,3.1v7.4c0,0-2.8,1.8-2.8,2.4c0,0.6,0,16.8,0,16.8l3.2,2.8v2.8
					l-14.1-12.3v-9.7l-4.2-3.7v-5.3l-6.3-5.5v-10.5L76.3,206z"/>
				<path class="st0" d="M111.5,197.2v13.1c0,0,10.8-1.3,10.8,0c0,1.3,6.5,5.7,6.5,5.7v6.1c0,0,0,6,0,6.6c0,0.6,4.6,4,4.6,4v6.1h6.1
					l5.8-5.1v-8.6l3.9-3.4v-7.9l5.8-5.1l-2.8-2.4h-4.2l-3.5-3.1v-9.2l5.4,4.7l-3.3,2.9l3,2.6l5.6-4.9v-2.1h5.1l4.7,4.1v3.3l3.9,3.4
					l8.2-7.2l2.4,2.1v6.2h4.4l-2.2-1.9v-2.7l2.4,2.1l1.8,1.6l4.7-4.1l-4.1-3.5l7-6.1l-6.5-5.7l10.8-9.4l-7.5-6.5l7.2-6.3v4l6.4,5.6
					V171l-3.7-3.2l7.5-6.5h-4.1v-2.8h-31.8l-5.8-5l-7,6.1l1.8,1.6l-6.8,5.9l-2.7-2.4l-4,3.5l-6-5.3l-10,8.7l2.7,2.4v2.1l1.8-1.6
					v-3.3h3.5v1.2l-5.7,5l-2.3-2l-6.6,5.8v1.8l-1.4,1.2h-3.2v1.5l-1.7,1.5l2.6,2.2h2.9v-2.6l2.4-2.1l2,1.8c0,0,1.1-2,1.7-1.4
					c0.6,0.5,2.6,2,2.6,2.3c0,0.3,0.3,1.6,0,1.6c-0.3,0,1.2-1,1.2-1v-1.7l-1.9-1.6l0.8-0.7l2,1.8v2.2l1.6,1.4v-1.2l1.4-1.2l3.4-2.9
					V182h2.2v2c0,0,1.4-0.1,1.5,0c0.2,0.1,1.5,1.3,1.5,1.3v1.3H143v-1h-2.3l-2.2,1.9v1.2l1.5,1.3h3.4v2.4h-6.3l-1.8-1.5l-2.6,2.2
					l-2.3-2v-1.8H126l-2.1,1.8h-4.5l-5.6,4.9v1.2L111.5,197.2z"/>
			</g>
		</g>
		<g>
			
				<rect x="144.4" y="284.4" transform="matrix(-1 -1.224647e-16 1.224647e-16 -1 354.5827 581.91)" class="st1" width="65.8" height="13.2"/>
			<polygon class="st1" points="145.9,300.2 145.9,281.7 134.1,290.7 			"/>
			<path class="st3" d="M214.4,301.5c-8.8,0-17.7-1.9-25.9-5.8c-14.9-6.9-26.1-19.2-31.7-34.6c-5.6-15.4-4.9-32.1,2.1-46.9
				c6.9-14.9,19.2-26.1,34.6-31.7c15.4-5.6,32.1-4.9,46.9,2.1c14.9,6.9,26.1,19.2,31.7,34.6c5.6,15.4,4.9,32.1-2.1,46.9
				c-6.9,14.9-19.2,26.1-34.6,31.7C228.5,300.3,221.4,301.5,214.4,301.5z M214.4,179.6c-7,0-13.9,1.2-20.7,3.7
				c-15.2,5.5-27.3,16.6-34.1,31.2c-6.8,14.6-7.5,31-2,46.2c5.5,15.2,16.6,27.3,31.2,34.1c14.6,6.8,31,7.5,46.2,2l0.2,0.5l-0.2-0.5
				c15.2-5.5,27.3-16.6,34.1-31.2c6.8-14.6,7.5-31,2-46.2c-5.5-15.2-16.6-27.3-31.2-34.1C231.8,181.6,223.1,179.6,214.4,179.6z
				 M214.4,282.3c-17.2,0-33.4-10.6-39.7-27.7c-7.9-21.8,3.4-46.1,25.2-54c21.8-7.9,46.1,3.4,54,25.2c7.9,21.8-3.4,46.1-25.2,54
				C224.1,281.4,219.2,282.3,214.4,282.3z M214.4,198.9c-4.7,0-9.4,0.8-14,2.5c-21.3,7.8-32.4,31.4-24.6,52.8
				c6.1,16.7,21.9,27.1,38.7,27.1c4.7,0,9.4-0.8,14-2.5c21.3-7.8,32.4-31.4,24.6-52.8C247,209.3,231.2,198.9,214.4,198.9z"/>
			<path class="st2" d="M234.4,295.1c-14.7,5.3-30.6,4.6-44.7-2c-14.2-6.6-24.9-18.3-30.2-33c-5.3-14.7-4.6-30.6,2-44.7
				c6.6-14.2,18.3-24.9,33-30.2c14.7-5.3,30.6-4.6,44.7,2c14.2,6.6,24.9,18.3,30.2,33c5.3,14.7,4.6,30.6-2,44.7
				C260.8,279,249.1,289.7,234.4,295.1z M199.3,198.7c-22.8,8.3-34.7,33.6-26.4,56.5c8.3,22.8,33.6,34.7,56.5,26.4
				c22.8-8.3,34.7-33.6,26.4-56.5C247.5,202.2,222.2,190.4,199.3,198.7z"/>
			<g>
				<path class="st4" d="M173,255.2c-1.4-3.7-2.2-7.5-2.5-11.3l-14.5,0.1c0.4,5.4,1.5,10.9,3.4,16.1c4.4,12.1,12.5,22.2,23.2,29.1
					l7.1-12.6C182.3,271.6,176.3,264.2,173,255.2z"/>
				<path class="st5" d="M218.3,196.2c16.5,1.5,31.5,12.3,37.6,28.8c4.6,12.7,3,26.1-3.2,37l12,8.2c1-1.7,2-3.5,2.8-5.4
					c6.6-14.2,7.3-30,2-44.7c-5.3-14.7-16.1-26.4-30.2-33c-6.6-3.1-13.7-4.9-20.7-5.4L218.3,196.2z"/>
				<path class="st6" d="M170.4,236.9c1.2-16.8,12.1-32.1,28.9-38.2c3.9-1.4,8-2.3,12-2.5l0.1-14.5c-5.7,0.3-11.5,1.5-17,3.5
					c-14.7,5.3-26.4,16.1-33,30.2c-3.2,6.9-5,14.2-5.4,21.6L170.4,236.9z"/>
				<path class="st6" d="M248.7,267.8c-4.9,6.1-11.4,10.9-19.2,13.7c-11.4,4.2-23.4,3.3-33.7-1.5l-7.1,12.6c0.3,0.2,0.7,0.3,1,0.5
					c14.2,6.6,30,7.3,44.7,2c10.5-3.8,19.6-10.4,26.2-19.1L248.7,267.8z"/>
			</g>
			<polygon class="st6" points="274.2,300.6 274.2,282.1 285.9,291 			"/>
			<path class="st1" d="M248.7,267.8c-4.9,6.1-11.4,10.9-19.2,13.7c-2.3,0.8-6.2,2.3-16.5,2.7c0.1,4.9,10,8.9,10.4,13.7
				c3.7-0.6,7.4-1.5,11-2.9c10.5-3.8,19.6-10.4,26.2-19.1L248.7,267.8z"/>
			<polygon class="st6" points="275.6,297.9 211.7,298.6 209.9,284.2 275.6,284.7 			"/>
			<g>
				<g>
					<g>
						<g>
							<path class="st7" d="M201.3,249.5c-0.2,0-0.4-0.2-0.5-0.4l-6.5-28.5l-7.9,0.1c0,0,0,0,0,0c-0.3,0-0.5-0.2-0.5-0.5
								c0-0.3,0.2-0.5,0.5-0.5l8.3-0.1c0,0,0,0,0,0c0.2,0,0.4,0.2,0.5,0.4l6.5,28.4l29.1-2.5l0-18.3l-8.7,0h0
								c-0.3,0-0.5-0.2-0.5-0.5c0-0.3,0.2-0.5,0.5-0.5l9.2,0h0c0.1,0,0.3,0.1,0.3,0.1c0.1,0.1,0.1,0.2,0.1,0.3l0,19.2
								c0,0.3-0.2,0.5-0.4,0.5L201.3,249.5C201.3,249.5,201.3,249.5,201.3,249.5z"/>
							<path class="st7" d="M223.5,247.6c-0.3,0-0.5-0.2-0.5-0.4l-1.4-19.4l-25.3,0l0,0c-0.3,0-0.5-0.2-0.5-0.5
								c0-0.3,0.2-0.5,0.5-0.5l25.8,0l0,0c0.3,0,0.5,0.2,0.5,0.4l1.4,19.9C224,247.4,223.8,247.6,223.5,247.6
								C223.5,247.6,223.5,247.6,223.5,247.6z"/>
							<path class="st7" d="M198.7,262.7c-2.9,0-5.3-2.4-5.3-5.3c0-2.9,2.4-5.3,5.3-5.3c0,0,0,0,0,0c1.4,0,2.8,0.6,3.8,1.6
								c1,1,1.6,2.3,1.6,3.8v0C204,260.3,201.6,262.7,198.7,262.7C198.7,262.7,198.7,262.7,198.7,262.7z M198.7,253
								C198.7,253,198.7,253,198.7,253c-2.4,0-4.4,2-4.4,4.4c0,2.4,2,4.4,4.4,4.4c0,0,0,0,0,0c1.2,0,2.3-0.5,3.1-1.3
								c0.8-0.8,1.3-1.9,1.3-3.1c0,0,0,0,0,0c0-1.2-0.5-2.3-1.3-3.1C201,253.5,199.9,253,198.7,253z"/>
							<path class="st7" d="M233.7,262.7c-1.4,0-2.8-0.6-3.8-1.6c-1-1-1.6-2.3-1.6-3.8c0-2.9,2.4-5.3,5.3-5.3c0,0,0,0,0,0
								c2.9,0,5.3,2.4,5.3,5.3c0,1.4-0.6,2.8-1.6,3.8C236.4,262.1,235.1,262.7,233.7,262.7C233.7,262.7,233.7,262.7,233.7,262.7z
								 M233.7,253C233.7,253,233.7,253,233.7,253c-1.2,0-2.3,0.5-3.1,1.3c-0.8,0.8-1.3,1.9-1.3,3.1c0,1.2,0.5,2.3,1.3,3.1
								c0.8,0.8,1.9,1.3,3.1,1.3c0,0,0,0,0,0c1.2,0,2.3-0.5,3.1-1.3c0.8-0.8,1.3-1.9,1.3-3.1C238,254.9,236.1,253,233.7,253z"/>
							<path class="st7" d="M203.5,257.8c-0.3,0-0.5-0.2-0.5-0.5c0-0.3,0.2-0.5,0.5-0.5l25.3,0h0c0.3,0,0.5,0.2,0.5,0.5
								c0,0.3-0.2,0.5-0.5,0.5L203.5,257.8L203.5,257.8z"/>
							<path class="st7" d="M200.1,253.2c0,0-0.1,0-0.1,0c-0.3-0.1-0.4-0.3-0.3-0.6l1.2-3.8c0.1-0.3,0.3-0.4,0.6-0.3
								c0.3,0.1,0.4,0.3,0.3,0.6l-1.2,3.8C200.5,253.1,200.3,253.2,200.1,253.2z"/>
						</g>
						<path class="st7" d="M216.2,248.2c-0.2,0-0.4-0.2-0.5-0.4l-2.9-20.4c0-0.3,0.1-0.5,0.4-0.5c0.3,0,0.5,0.1,0.5,0.4l2.9,20.4
							C216.7,247.9,216.5,248.2,216.2,248.2C216.2,248.2,216.2,248.2,216.2,248.2z"/>
						<path class="st7" d="M208.3,248.9c-0.2,0-0.4-0.2-0.5-0.4l-3.9-21.1c0-0.3,0.1-0.5,0.4-0.6c0.3,0,0.5,0.1,0.6,0.4l3.9,21.1
							C208.9,248.6,208.7,248.8,208.3,248.9C208.4,248.9,208.4,248.9,208.3,248.9z"/>
						<path class="st7" d="M198.9,239.2c-0.3,0-0.5-0.2-0.5-0.5c0-0.3,0.2-0.5,0.5-0.5l32.3-1.5c0.3,0,0.5,0.2,0.5,0.5
							c0,0.3-0.2,0.5-0.5,0.5L198.9,239.2C198.9,239.2,198.9,239.2,198.9,239.2z"/>
					</g>
				</g>
			</g>
		</g>
		<g>
			<path class="st5" d="M142.4,182.1c-0.9,0-1.7,0-2.6,0c-0.3,0-0.5-0.2-0.5-0.5c0-0.3,0.2-0.5,0.5-0.5c0.8,0,1.7,0,2.5,0
				c0.7,0,1.5,0,2.3,0c0,0,0,0,0,0c0.3,0,0.5,0.2,0.5,0.5c0,0.3-0.2,0.5-0.5,0.5C143.9,182,143.2,182.1,142.4,182.1z M149.5,181.9
				c-0.3,0-0.5-0.2-0.5-0.5c0-0.3,0.2-0.5,0.5-0.5c1.6-0.1,3.2-0.2,4.8-0.3c0.3,0,0.5,0.2,0.5,0.4c0,0.3-0.2,0.5-0.4,0.5
				C152.8,181.7,151.1,181.8,149.5,181.9C149.5,181.9,149.5,181.9,149.5,181.9z M135,181.9C135,181.9,135,181.9,135,181.9
				c-1.6-0.1-3.3-0.2-4.9-0.3c-0.3,0-0.5-0.3-0.4-0.5c0-0.3,0.2-0.5,0.5-0.4c1.6,0.1,3.2,0.2,4.8,0.3c0.3,0,0.5,0.2,0.5,0.5
				C135.5,181.7,135.3,181.9,135,181.9z M159.2,181.2c-0.2,0-0.5-0.2-0.5-0.4c0-0.3,0.2-0.5,0.4-0.5c1.6-0.2,3.2-0.3,4.8-0.5
				c0.3,0,0.5,0.2,0.5,0.4c0,0.3-0.2,0.5-0.4,0.5C162.4,180.9,160.8,181.1,159.2,181.2C159.2,181.2,159.2,181.2,159.2,181.2z
				 M125.5,180.8c0,0-0.1,0-0.1,0c-1.6-0.3-3.1-0.7-4.7-1.2c-0.3-0.1-0.4-0.3-0.3-0.6c0.1-0.3,0.3-0.4,0.6-0.3
				c1.5,0.4,3.1,0.8,4.7,1.2c0.3,0.1,0.4,0.3,0.4,0.6C125.9,180.6,125.7,180.8,125.5,180.8z M168.7,180.1c-0.2,0-0.4-0.2-0.5-0.4
				c0-0.3,0.1-0.5,0.4-0.5c1.3-0.2,2.6-0.4,3.8-0.6c0.3,0,0.5,0.1,0.6,0.4c0,0.3-0.1,0.5-0.4,0.6
				C171.4,179.7,170.1,179.9,168.7,180.1C168.8,180.1,168.8,180.1,168.7,180.1z M116.1,178.2c0,0-0.1,0-0.1,0
				c-1.5-0.5-3.1-1-4.6-1.6c-0.3-0.1-0.4-0.4-0.3-0.6c0.1-0.3,0.4-0.4,0.6-0.3c1.5,0.6,3,1.1,4.6,1.6c0.3,0.1,0.4,0.4,0.3,0.6
				C116.5,178.1,116.3,178.2,116.1,178.2z M107.1,174.9c-0.1,0-0.1,0-0.2,0c-1.5-0.6-3-1.2-4.5-1.9c-0.2-0.1-0.4-0.4-0.2-0.6
				c0.1-0.2,0.4-0.4,0.6-0.2c1.5,0.7,3,1.3,4.4,1.9c0.2,0.1,0.4,0.4,0.3,0.6C107.4,174.8,107.3,174.9,107.1,174.9z M98.3,171
				c-0.1,0-0.1,0-0.2,0c-1.4-0.7-2.9-1.4-4.3-2.2c-0.2-0.1-0.3-0.4-0.2-0.7c0.1-0.2,0.4-0.3,0.7-0.2c1.4,0.8,2.9,1.5,4.3,2.2
				c0.2,0.1,0.3,0.4,0.2,0.6C98.6,170.9,98.4,171,98.3,171z M89.7,166.4c-0.1,0-0.2,0-0.2-0.1c-1.4-0.8-2.8-1.6-4.2-2.5
				c-0.2-0.1-0.3-0.4-0.2-0.7c0.1-0.2,0.4-0.3,0.7-0.2c1.4,0.8,2.8,1.7,4.1,2.5c0.2,0.1,0.3,0.4,0.2,0.7
				C90.1,166.3,89.9,166.4,89.7,166.4z M81.5,161.4c-0.1,0-0.2,0-0.3-0.1c-1.3-0.9-2.7-1.8-4-2.7c-0.2-0.1-0.3-0.4-0.1-0.7
				c0.1-0.2,0.5-0.3,0.7-0.1c1.3,0.9,2.7,1.8,4,2.7c0.2,0.1,0.3,0.4,0.1,0.7C81.8,161.3,81.6,161.4,81.5,161.4z"/>
			<path class="st4" d="M73.9,119.7c-7.6,0-13.7,6.1-13.7,13.7c0,7.6,13.7,24.3,13.7,24.3s13.7-16.7,13.7-24.3
				C87.6,125.8,81.5,119.7,73.9,119.7z M73.9,142.7c-5.2,0-9.4-4.2-9.4-9.4c0-5.2,4.2-9.4,9.4-9.4c5.2,0,9.4,4.2,9.4,9.4
				C83.3,138.6,79.1,142.7,73.9,142.7z"/>
			<path class="st4" d="M128.6,160c-4.2,0-7.7,3.4-7.7,7.7c0,4.2,7.7,13.6,7.7,13.6s7.7-9.3,7.7-13.6
				C136.3,163.4,132.8,160,128.6,160z M128.6,172.9c-2.9,0-5.2-2.3-5.2-5.2c0-2.9,2.3-5.2,5.2-5.2c2.9,0,5.2,2.3,5.2,5.2
				C133.9,170.5,131.5,172.9,128.6,172.9z"/>
			<path class="st4" d="M178.6,147.2c-6.2,0-11.3,5.1-11.3,11.3c0,6.2,11.3,20,11.3,20s11.3-13.7,11.3-20
				C189.9,152.2,184.8,147.2,178.6,147.2z M178.6,166.2c-4.3,0-7.7-3.5-7.7-7.7c0-4.3,3.5-7.7,7.7-7.7c4.3,0,7.7,3.5,7.7,7.7
				C186.3,162.7,182.9,166.2,178.6,166.2z"/>
		</g>
		<g>
			<g>
				<path class="st2" d="M315.8,427.3l-4.5-1.6c0.4-2.3,0.5-4.6,0.5-7l4.7-0.9l-3-15.8l-4.7,0.9c-0.8-2.2-1.9-4.3-3-6.3l3.6-3.1
					l-10.5-12.2l-3.6,3.1c-1.8-1.4-3.7-2.8-5.8-3.9l1.6-4.5l-15.2-5.3l-1.6,4.5c-2.3-0.4-4.6-0.5-7-0.5l-0.9-4.7l-15.8,3l0.9,4.7
					c-2.2,0.8-4.3,1.9-6.3,3l-3.1-3.6l-12.2,10.5l3.1,3.6c-1.4,1.8-2.8,3.7-3.9,5.8l-4.5-1.6h0l-5.3,15.2l4.5,1.6
					c-0.4,2.3-0.5,4.6-0.5,7l-4.7,0.9l3,15.8l4.7-0.9c0.8,2.2,1.9,4.3,3,6.3l-3.6,3.1l10.5,12.2h0l3.6-3.1c1.8,1.4,3.7,2.8,5.8,3.9
					l-1.6,4.5l15.2,5.3l1.6-4.5c2.3,0.4,4.6,0.5,7,0.5l0.9,4.7l0,0l15.8-3l-0.9-4.7c2.2-0.8,4.3-1.9,6.3-3l3.1,3.6l12.2-10.5
					l-3.1-3.6c1.4-1.8,2.8-3.7,3.9-5.8l4.5,1.6L315.8,427.3z M293.2,428.9c-5.2,13.4-20,20.6-33.7,16.3c-15.1-4.7-23.1-21.2-17.4-36
					c5.2-13.4,20-20.6,33.7-16.3C291,397.6,298.9,414.1,293.2,428.9z"/>
			</g>
			<path class="st8" d="M267.7,454.7c-3.9,0-7.9-0.6-11.8-2c-9-3.1-16.2-9.6-20.3-18.2c-4.1-8.6-4.7-18.2-1.5-27.2
				c2.8-8.1,8.5-14.9,15.9-19.2c7.4-4.2,16-5.7,24.3-4.1c0.3,0,0.4,0.3,0.4,0.6c0,0.3-0.3,0.4-0.6,0.4c-16.7-3.2-33.5,6.6-39.1,22.6
				c-3.1,8.7-2.5,18.1,1.5,26.5c4,8.3,11.1,14.6,19.8,17.7c14.9,5.2,31.5-0.3,40.2-13.4c0.1-0.2,0.4-0.3,0.7-0.1
				c0.2,0.1,0.3,0.4,0.1,0.7C290.5,448.9,279.3,454.7,267.7,454.7z"/>
		</g>
		<g>
			<g>
				<path class="st2" d="M380,259.9c-0.2,0-0.4-0.1-0.5-0.4l-0.3-1.3c-0.6,0-1.2,0-1.8,0l-0.4,1.3c0,0.1-0.1,0.2-0.2,0.3
					c-0.1,0.1-0.2,0.1-0.4,0l-5.6-1.6c-0.3-0.1-0.4-0.3-0.3-0.6l0.4-1.3c-0.5-0.3-1-0.6-1.5-0.9l-1,0.9c-0.1,0.1-0.2,0.1-0.3,0.1
					c-0.1,0-0.2-0.1-0.3-0.1l-4-4.2c-0.2-0.2-0.2-0.5,0-0.7l1-0.9c-0.3-0.5-0.6-1-0.9-1.6l-1.3,0.3c-0.1,0-0.3,0-0.4-0.1
					c-0.1-0.1-0.2-0.2-0.2-0.3l-1.4-5.6c-0.1-0.3,0.1-0.5,0.4-0.6l1.3-0.3c0-0.6,0-1.2,0-1.8l-1.3-0.4c-0.3-0.1-0.4-0.3-0.3-0.6
					l1.6-5.6c0-0.1,0.1-0.2,0.2-0.3c0.1-0.1,0.2-0.1,0.4,0l1.3,0.4c0.3-0.5,0.6-1,0.9-1.5l-0.9-1c-0.1-0.1-0.1-0.2-0.1-0.3
					c0-0.1,0.1-0.2,0.1-0.3l4.2-4c0.1-0.1,0.2-0.1,0.3-0.1c0.1,0,0.2,0.1,0.3,0.1l0.9,1c0.5-0.3,1-0.6,1.6-0.9l-0.3-1.3
					c-0.1-0.3,0.1-0.5,0.4-0.6l5.6-1.4c0.3-0.1,0.5,0.1,0.6,0.4l0.3,1.3c0.6,0,1.2,0,1.8,0l0.4-1.3c0.1-0.3,0.3-0.4,0.6-0.3l5.6,1.6
					c0.3,0.1,0.4,0.3,0.3,0.6l-0.4,1.3c0.5,0.3,1,0.6,1.5,0.9l1-0.9c0.1-0.1,0.2-0.1,0.3-0.1c0.1,0,0.2,0.1,0.3,0.1l4,4.2
					c0.2,0.2,0.2,0.5,0,0.7l-1,0.9c0.3,0.5,0.6,1,0.9,1.6l1.3-0.3c0.1,0,0.3,0,0.4,0.1c0.1,0.1,0.2,0.2,0.2,0.3l1.4,5.6
					c0.1,0.3-0.1,0.5-0.4,0.6l-1.3,0.3c0,0.6,0,1.2,0,1.8l1.3,0.4c0.3,0.1,0.4,0.3,0.3,0.6l-1.6,5.6c0,0.1-0.1,0.2-0.2,0.3
					c-0.1,0.1-0.2,0.1-0.4,0l-1.3-0.4c-0.3,0.5-0.6,1-0.9,1.5l0.9,1c0.1,0.1,0.1,0.2,0.1,0.3c0,0.1-0.1,0.2-0.1,0.3l-4.2,4
					c-0.1,0.1-0.2,0.1-0.3,0.1c-0.1,0-0.2-0.1-0.3-0.1l-0.9-1c-0.5,0.3-1,0.6-1.6,0.9l0.3,1.3c0,0.1,0,0.3-0.1,0.4
					c-0.1,0.1-0.2,0.2-0.3,0.2l-5.6,1.4C380.1,259.9,380,259.9,380,259.9z M379.6,257.2c0.2,0,0.4,0.2,0.5,0.4l0.3,1.2l4.7-1.2
					l-0.3-1.2c-0.1-0.2,0.1-0.5,0.3-0.6c0.7-0.3,1.5-0.7,2.1-1.2c0.2-0.1,0.5-0.1,0.6,0.1l0.9,0.9l3.5-3.4l-0.9-0.9
					c-0.2-0.2-0.2-0.4,0-0.6c0.5-0.7,0.9-1.4,1.3-2.1c0.1-0.2,0.3-0.3,0.6-0.2l1.2,0.3l1.3-4.7l-1.2-0.3c-0.2-0.1-0.4-0.3-0.3-0.5
					c0.1-0.8,0.1-1.6,0-2.4c0-0.2,0.1-0.4,0.4-0.5l1.2-0.3l-1.2-4.7l-1.2,0.3c-0.2,0.1-0.5-0.1-0.6-0.3c-0.3-0.7-0.7-1.5-1.2-2.1
					c-0.1-0.2-0.1-0.5,0.1-0.6l0.9-0.9l-3.4-3.5l-0.9,0.9c-0.2,0.2-0.4,0.2-0.6,0c-0.7-0.5-1.4-0.9-2.1-1.3
					c-0.2-0.1-0.3-0.3-0.2-0.6l0.3-1.2l-4.7-1.3l-0.3,1.2c-0.1,0.2-0.3,0.4-0.5,0.3c-0.8-0.1-1.6-0.1-2.4,0c-0.2,0-0.4-0.1-0.5-0.4
					l-0.3-1.2l-4.7,1.2l0.3,1.2c0.1,0.2-0.1,0.5-0.3,0.6c-0.7,0.3-1.5,0.7-2.1,1.2c-0.2,0.1-0.5,0.1-0.6-0.1l-0.9-0.9l-3.5,3.4
					l0.9,0.9c0.2,0.2,0.2,0.4,0,0.6c-0.5,0.7-0.9,1.4-1.3,2.1c-0.1,0.2-0.3,0.3-0.6,0.2l-1.2-0.3l-1.3,4.7l1.2,0.3
					c0.2,0.1,0.4,0.3,0.3,0.5c-0.1,0.8-0.1,1.6,0,2.4c0,0.2-0.1,0.4-0.4,0.5l-1.2,0.3l1.2,4.7l1.2-0.3c0.2-0.1,0.5,0.1,0.6,0.3
					c0.3,0.7,0.7,1.5,1.2,2.1c0.1,0.2,0.1,0.5-0.1,0.6l-0.9,0.9l3.4,3.5l0.9-0.9c0.2-0.2,0.4-0.2,0.6,0c0.7,0.5,1.4,0.9,2.1,1.3
					c0.2,0.1,0.3,0.3,0.2,0.6l-0.3,1.2l4.7,1.3l0.3-1.2c0.1-0.2,0.3-0.4,0.5-0.3C377.9,257.3,378.7,257.3,379.6,257.2
					C379.6,257.2,379.6,257.2,379.6,257.2z M378.6,252.5c-0.1,0-0.1,0-0.2,0c-3-0.1-5.7-1.3-7.7-3.5c-3.8-4.2-3.6-10.6,0.3-14.6
					c2.1-2.1,4.9-3.3,7.9-3.2c3,0.1,5.7,1.3,7.7,3.5c3.8,4.2,3.6,10.6-0.3,14.6C384.3,251.3,381.6,252.5,378.6,252.5z M378.6,232
					c-2.6,0-5.1,1-7,2.9c-3.6,3.7-3.7,9.5-0.3,13.3c1.8,2,4.3,3.2,7,3.2c2.7,0.1,5.3-1,7.2-2.9c3.6-3.7,3.7-9.5,0.3-13.3l0,0
					c-1.8-2-4.3-3.2-7-3.2C378.8,232,378.7,232,378.6,232z"/>
			</g>
		</g>
		<g>
			<g>
				<rect x="40.3" y="238.9" class="st6" width="71.5" height="35.6"/>
				<g>
					<path class="st9" d="M109.5,241.8h-67c-0.3,0-0.5-0.2-0.5-0.5c0-0.3,0.2-0.5,0.5-0.5h67c0.3,0,0.5,0.2,0.5,0.5
						C110,241.6,109.8,241.8,109.5,241.8z"/>
					<path class="st9" d="M109.5,272.6h-67c-0.3,0-0.5-0.2-0.5-0.5c0-0.3,0.2-0.5,0.5-0.5h67c0.3,0,0.5,0.2,0.5,0.5
						C110,272.4,109.8,272.6,109.5,272.6z"/>
				</g>
				<path class="st9" d="M42.5,271.6c-0.3,0-0.5-0.2-0.5-0.5V242c0-0.3,0.2-0.5,0.5-0.5s0.5,0.2,0.5,0.5v29.1
					C43,271.3,42.7,271.6,42.5,271.6z"/>
				<path class="st9" d="M47.3,271.6c-0.3,0-0.5-0.2-0.5-0.5V242c0-0.3,0.2-0.5,0.5-0.5c0.3,0,0.5,0.2,0.5,0.5v29.1
					C47.7,271.3,47.5,271.6,47.3,271.6z"/>
				<path class="st9" d="M52.1,271.6c-0.3,0-0.5-0.2-0.5-0.5V242c0-0.3,0.2-0.5,0.5-0.5c0.3,0,0.5,0.2,0.5,0.5v29.1
					C52.5,271.3,52.3,271.6,52.1,271.6z"/>
				<path class="st9" d="M56.8,271.6c-0.3,0-0.5-0.2-0.5-0.5V242c0-0.3,0.2-0.5,0.5-0.5c0.3,0,0.5,0.2,0.5,0.5v29.1
					C57.3,271.3,57.1,271.6,56.8,271.6z"/>
				<path class="st9" d="M61.6,271.6c-0.3,0-0.5-0.2-0.5-0.5V242c0-0.3,0.2-0.5,0.5-0.5c0.3,0,0.5,0.2,0.5,0.5v29.1
					C62.1,271.3,61.9,271.6,61.6,271.6z"/>
				<path class="st9" d="M66.4,271.6c-0.3,0-0.5-0.2-0.5-0.5V242c0-0.3,0.2-0.5,0.5-0.5s0.5,0.2,0.5,0.5v29.1
					C66.9,271.3,66.7,271.6,66.4,271.6z"/>
				<path class="st9" d="M71.2,271.6c-0.3,0-0.5-0.2-0.5-0.5V242c0-0.3,0.2-0.5,0.5-0.5c0.3,0,0.5,0.2,0.5,0.5v29.1
					C71.7,271.3,71.5,271.6,71.2,271.6z"/>
				<path class="st9" d="M76,271.6c-0.3,0-0.5-0.2-0.5-0.5V242c0-0.3,0.2-0.5,0.5-0.5c0.3,0,0.5,0.2,0.5,0.5v29.1
					C76.5,271.3,76.3,271.6,76,271.6z"/>
				<path class="st9" d="M80.8,271.6c-0.3,0-0.5-0.2-0.5-0.5V242c0-0.3,0.2-0.5,0.5-0.5c0.3,0,0.5,0.2,0.5,0.5v29.1
					C81.3,271.3,81,271.6,80.8,271.6z"/>
				<path class="st9" d="M85.6,271.6c-0.3,0-0.5-0.2-0.5-0.5V242c0-0.3,0.2-0.5,0.5-0.5c0.3,0,0.5,0.2,0.5,0.5v29.1
					C86.1,271.3,85.8,271.6,85.6,271.6z"/>
				<path class="st9" d="M90.4,271.6c-0.3,0-0.5-0.2-0.5-0.5V242c0-0.3,0.2-0.5,0.5-0.5s0.5,0.2,0.5,0.5v29.1
					C90.8,271.3,90.6,271.6,90.4,271.6z"/>
				<path class="st9" d="M95.1,271.6c-0.3,0-0.5-0.2-0.5-0.5V242c0-0.3,0.2-0.5,0.5-0.5c0.3,0,0.5,0.2,0.5,0.5v29.1
					C95.6,271.3,95.4,271.6,95.1,271.6z"/>
				<path class="st9" d="M99.9,271.6c-0.3,0-0.5-0.2-0.5-0.5V242c0-0.3,0.2-0.5,0.5-0.5s0.5,0.2,0.5,0.5v29.1
					C100.4,271.3,100.2,271.6,99.9,271.6z"/>
				<path class="st9" d="M104.7,271.6c-0.3,0-0.5-0.2-0.5-0.5V242c0-0.3,0.2-0.5,0.5-0.5c0.3,0,0.5,0.2,0.5,0.5v29.1
					C105.2,271.3,105,271.6,104.7,271.6z"/>
				<path class="st9" d="M109.5,271.6c-0.3,0-0.5-0.2-0.5-0.5V242c0-0.3,0.2-0.5,0.5-0.5c0.3,0,0.5,0.2,0.5,0.5v29.1
					C110,271.3,109.8,271.6,109.5,271.6z"/>
			</g>
			<g>
				<g>
					<g>
						
							<ellipse transform="matrix(0.3851 -0.9229 0.9229 0.3851 -227.6691 220.2148)" class="st7" cx="51.4" cy="281" rx="4.5" ry="4.5"/>
						<path class="st6" d="M51.4,283.8c-1.6,0-2.9-1.3-2.9-2.9c0-1.6,1.3-2.9,2.9-2.9c1.6,0,2.9,1.3,2.9,2.9
							C54.3,282.5,53,283.8,51.4,283.8z M51.4,279.1c-1,0-1.9,0.9-1.9,1.9c0,1,0.9,1.9,1.9,1.9c1,0,1.9-0.9,1.9-1.9
							C53.3,279.9,52.5,279.1,51.4,279.1z"/>
					</g>
					<g>
						
							<ellipse transform="matrix(0.3851 -0.9229 0.9229 0.3851 -221.4392 229.565)" class="st7" cx="61.6" cy="281" rx="4.5" ry="4.5"/>
						<path class="st6" d="M61.6,283.8c-1.6,0-2.9-1.3-2.9-2.9c0-1.6,1.3-2.9,2.9-2.9s2.9,1.3,2.9,2.9
							C64.4,282.5,63.1,283.8,61.6,283.8z M61.6,279.1c-1,0-1.9,0.9-1.9,1.9c0,1,0.9,1.9,1.9,1.9s1.9-0.9,1.9-1.9
							C63.5,279.9,62.6,279.1,61.6,279.1z"/>
					</g>
					<g>
						
							<ellipse transform="matrix(0.2913 -0.9566 0.9566 0.2913 -217.9691 267.6812)" class="st7" cx="71.7" cy="281" rx="4.5" ry="4.5"/>
						<path class="st6" d="M71.7,283.8c-1.6,0-2.9-1.3-2.9-2.9c0-1.6,1.3-2.9,2.9-2.9s2.9,1.3,2.9,2.9
							C74.6,282.5,73.3,283.8,71.7,283.8z M71.7,279.1c-1,0-1.9,0.9-1.9,1.9c0,1,0.9,1.9,1.9,1.9s1.9-0.9,1.9-1.9
							C73.6,279.9,72.7,279.1,71.7,279.1z"/>
					</g>
					<g>
						
							<ellipse transform="matrix(0.5293 -0.8484 0.8484 0.5293 -190.7181 218.1517)" class="st7" cx="101.2" cy="281" rx="4.5" ry="4.5"/>
						<path class="st6" d="M101.2,283.8c-1.6,0-2.9-1.3-2.9-2.9c0-1.6,1.3-2.9,2.9-2.9s2.9,1.3,2.9,2.9
							C104.1,282.5,102.8,283.8,101.2,283.8z M101.2,279.1c-1,0-1.9,0.9-1.9,1.9c0,1,0.9,1.9,1.9,1.9s1.9-0.9,1.9-1.9
							C103.1,279.9,102.3,279.1,101.2,279.1z"/>
					</g>
					<g>
						
							<ellipse transform="matrix(0.8528 -0.5222 0.5222 0.8528 -128.3465 106.5249)" class="st7" cx="124.8" cy="281" rx="4.5" ry="4.5"/>
						<path class="st6" d="M124.8,283.8c-1.6,0-2.9-1.3-2.9-2.9c0-1.6,1.3-2.9,2.9-2.9c1.6,0,2.9,1.3,2.9,2.9
							C127.7,282.5,126.4,283.8,124.8,283.8z M124.8,279.1c-1,0-1.9,0.9-1.9,1.9c0,1,0.9,1.9,1.9,1.9c1,0,1.9-0.9,1.9-1.9
							C126.7,279.9,125.9,279.1,124.8,279.1z"/>
					</g>
					<rect x="77.9" y="277.3" class="st7" width="17.6" height="3.7"/>
				</g>
				<path class="st9" d="M113.1,276.4H45.3c-0.3,0-0.5-0.2-0.5-0.5s0.2-0.5,0.5-0.5h67.3v-14.8c0-0.3,0.2-0.5,0.5-0.5
					c0.3,0,0.5,0.2,0.5,0.5v15.3C113.6,276.1,113.4,276.4,113.1,276.4z"/>
				<g>
					<polygon class="st7" points="129.6,263.1 129.6,254.2 114.5,250.4 114.5,275.9 128.3,275.9 129.6,275.9 137.4,275.9 
						137.4,265.1 					"/>
					<path class="st7" d="M129.6,253.2c0,0-0.1,0-0.1,0l-15.2-3.7c-0.3-0.1-0.4-0.3-0.4-0.6c0.1-0.3,0.3-0.4,0.6-0.4l15.2,3.7
						c0.3,0.1,0.4,0.3,0.4,0.6C130.1,253,129.9,253.2,129.6,253.2z"/>
					<path class="st10" d="M135.9,270c-0.3,0-0.5-0.2-0.5-0.5v-3.4c0-0.3,0.2-0.5,0.5-0.5c0.3,0,0.5,0.2,0.5,0.5v3.4
						C136.4,269.8,136.2,270,135.9,270z"/>
					<rect x="120.3" y="256.5" class="st6" width="8.6" height="6.6"/>
				</g>
			</g>
		</g>
		<g>
			<rect x="268.3" y="353.7" class="st6" width="125.2" height="92.8"/>
			<path class="st11" d="M299.3,441.7c-0.3,0-0.5-0.2-0.5-0.5v-82c0-0.3,0.2-0.5,0.5-0.5s0.5,0.2,0.5,0.5v82
				C299.7,441.4,299.5,441.7,299.3,441.7z"/>
			<path class="st11" d="M355.2,441.7c-0.3,0-0.5-0.2-0.5-0.5v-54.6c0-0.3,0.2-0.5,0.5-0.5s0.5,0.2,0.5,0.5v54.6
				C355.6,441.4,355.4,441.7,355.2,441.7z"/>
			<g>
				<path class="st3" d="M367,383.8c-0.1,0-0.2,0-0.3-0.1l-6.1-6.1l-5,5.1c-0.2,0.2-0.5,0.2-0.7,0l-5.2-5.2l-6,6
					c-0.1,0.1-0.3,0.2-0.5,0.1c-0.2-0.1-0.3-0.3-0.3-0.4V355c0-0.3,0.2-0.5,0.5-0.5s0.5,0.2,0.5,0.5v26.9l5.5-5.5
					c0.2-0.2,0.5-0.2,0.7,0l5.2,5.2l5-5.1c0.2-0.2,0.5-0.2,0.7,0l5.6,5.6V355c0-0.3,0.2-0.5,0.5-0.5s0.5,0.2,0.5,0.5v28.3
					c0,0.2-0.1,0.4-0.3,0.4C367.1,383.8,367.1,383.8,367,383.8z"/>
			</g>
		</g>
		<g>
			<rect x="302.3" y="293.7" class="st11" width="80.9" height="60"/>
			<path class="st6" d="M322.4,350.7c-0.3,0-0.5-0.2-0.5-0.5v-53c0-0.3,0.2-0.5,0.5-0.5s0.5,0.2,0.5,0.5v53
				C322.8,350.5,322.6,350.7,322.4,350.7z"/>
			<path class="st6" d="M358.5,350.7c-0.3,0-0.5-0.2-0.5-0.5V315c0-0.3,0.2-0.5,0.5-0.5c0.3,0,0.5,0.2,0.5,0.5v35.3
				C359,350.5,358.7,350.7,358.5,350.7z"/>
			<g>
				<path class="st3" d="M366.1,313.3c-0.1,0-0.2,0-0.3-0.1l-3.8-3.8l-3.1,3.1c-0.2,0.2-0.5,0.2-0.7,0l-3.2-3.3l-3.8,3.8
					c-0.1,0.1-0.3,0.2-0.5,0.1c-0.2-0.1-0.3-0.3-0.3-0.4v-18.1c0-0.3,0.2-0.5,0.5-0.5c0.3,0,0.5,0.2,0.5,0.5v17l3.3-3.3
					c0.2-0.2,0.5-0.2,0.7,0l3.2,3.3l3.1-3.1c0.1-0.1,0.2-0.1,0.3-0.1l0,0c0.1,0,0.3,0.1,0.3,0.1l3.3,3.3v-17.1
					c0-0.3,0.2-0.5,0.5-0.5s0.5,0.2,0.5,0.5v18.3c0,0.2-0.1,0.4-0.3,0.4C366.3,313.3,366.2,313.3,366.1,313.3z"/>
			</g>
			<path class="st4" d="M317.7,283.5c-9.8,0-17.7,7.9-17.7,17.7c0,9.8,17.7,31.4,17.7,31.4s17.7-21.6,17.7-31.4
				C335.4,291.4,327.5,283.5,317.7,283.5z M317.7,313.3c-6.7,0-12.1-5.4-12.1-12.1s5.4-12.1,12.1-12.1c6.7,0,12.1,5.4,12.1,12.1
				S324.4,313.3,317.7,313.3z"/>
		</g>
		<g>
			<g>
				<g>
					<g>
						<path class="st1" d="M285.9,169.3h6c0.5,2.9,1.3,5.7,2.3,8.5l-5.2,3l0,0l10.1,17.5l0,0l5.2-3c1.9,2.2,4,4.3,6.2,6.2l-3,5.2
							l17.6,10.1l0,0l3-5.2c2.7,1,5.6,1.7,8.5,2.3v6H357l0,0v-6c2.9-0.5,5.8-1.3,8.5-2.3l3,5.2h0l17.6-10.1l-3-5.2
							c2.2-1.9,4.3-4,6.2-6.2l5.2,3l0,0l10.1-17.5l0,0l-5.2-3c1-2.7,1.7-5.6,2.3-8.5h6v-20.2l0,0h-6c-0.5-2.9-1.3-5.7-2.3-8.5l5.2-3
							l0,0l-10.1-17.5l0,0l-5.2,3c-1.9-2.2-4-4.3-6.2-6.2l3-5.2l-17.6-10.1h0l-3,5.2c-2.7-1-5.6-1.7-8.5-2.3v-6l0,0h-20.3v6
							c-2.9,0.5-5.8,1.3-8.5,2.3l-3-5.2l0,0l-17.6,10.1l3,5.2c-2.2,1.9-4.3,4-6.2,6.2l-5.2-3l0,0L289,137.7l5.2,3
							c-1,2.7-1.7,5.6-2.3,8.5h-6V169.3z M366.6,112.2c12.7,4.8,22.8,14.8,27.6,27.5c16.3,42.9-23.9,83-67.1,66.7
							c-12.7-4.8-22.8-14.8-27.6-27.5C283.1,136,323.4,95.9,366.6,112.2z"/>
					</g>
				</g>
			</g>
			<g>
				<path class="st1" d="M407.7,169.8h-6c-0.3,0-0.5-0.2-0.5-0.5c0-0.3,0.2-0.5,0.5-0.5h5.5v-19.2l-5.5,0c-0.2,0-0.4-0.2-0.5-0.4
					c-0.5-2.8-1.3-5.7-2.3-8.4c-0.1-0.2,0-0.5,0.2-0.6l4.8-2.7l-9.7-16.6l-4.8,2.7c-0.2,0.1-0.5,0.1-0.6-0.1c-1.9-2.2-4-4.3-6.2-6.1
					c-0.2-0.2-0.2-0.4-0.1-0.6l2.8-4.8l-16.7-9.6l-2.8,4.7c-0.1,0.2-0.4,0.3-0.6,0.2c-2.7-1-5.6-1.7-8.4-2.2c-0.2,0-0.4-0.2-0.4-0.5
					v-5.5h-19.3v5.5c0,0.3-0.2,0.5-0.5,0.5s-0.5-0.2-0.5-0.5v-6c0-0.3,0.2-0.5,0.5-0.5H357c0.3,0,0.5,0.2,0.5,0.5v5.6
					c2.6,0.5,5.3,1.2,7.8,2.1l2.8-4.8c0.1-0.2,0.4-0.3,0.7-0.2l17.6,10.1c0.1,0.1,0.2,0.2,0.2,0.3c0,0.1,0,0.3,0,0.4l-2.8,4.8
					c2,1.8,4,3.7,5.7,5.7l4.9-2.8c0.2-0.1,0.5-0.1,0.7,0.2l10.1,17.5c0.1,0.1,0.1,0.2,0,0.4c0,0.1-0.1,0.2-0.2,0.3l-4.8,2.8
					c0.9,2.5,1.6,5.1,2.1,7.8h5.6c0.3,0,0.5,0.2,0.5,0.5v20.2C408.2,169.6,408,169.8,407.7,169.8z M397.9,159.7
					c-0.3,0-0.5-0.2-0.5-0.5c0-6.5-1.2-13.1-3.7-19.5c-4.8-12.5-14.7-22.4-27.3-27.2c-7-2.6-14.2-3.9-21.3-3.6
					c-0.3,0-0.5-0.2-0.5-0.5c0-0.3,0.2-0.5,0.5-0.5c7.2-0.2,14.5,1,21.6,3.7c12.9,4.8,23,14.9,27.9,27.7c2.5,6.5,3.7,13.2,3.7,19.8
					C398.4,159.5,398.2,159.7,397.9,159.7z"/>
			</g>
			<path class="st12" d="M301.1,159.3c0,13.8,6.2,26.1,15.9,34.4c7.1,6.1,16,10,25.9,10.8c1.3,0.1,2.6,0.2,3.9,0.2s2.6-0.1,3.9-0.2
				c8.5-0.7,16.4-3.8,22.9-8.5c11.4-8.3,18.9-21.7,18.9-36.8c0-25.1-20.5-45.4-45.7-45.4C321.6,113.8,301.1,134.2,301.1,159.3z"/>
		</g>
		<g>
			<path class="st12" d="M317,194.2c7.1,6.1,16,10.1,25.9,10.9h7.8c8.5-0.7,16.4-3.8,22.9-8.5v-26.1h-48.5L317,194.2z"/>
			<g>
				<g>
					<path class="st13" d="M329.9,150.2c-8.2,4.4-30.9,18.5-36.7,8.9c-4.8-8,17.9-20.7,25.8-25.6
						C322.6,139.1,326.2,144.7,329.9,150.2z"/>
					<g>
						<path class="st13" d="M303,143.9c-5.4-5.7-17.5-18.7-18.7-20.1c-2.3-2.5-13.5-14.5-15.3-12.9c-1.1,1,4.4,7.1,5.3,8.3
							c-1.4-1.1-7.5-7.6-8.6-6.7c-1.2,0.9,5.8,9.9,5.9,9.9c-0.9-0.9-7.1-7.4-8.1-6.4c-1.1,1.1,4.9,8.4,5.9,9.6c-0.2,0-4.5-5-5.7-4
							c-1.1,0.8,3.6,6.7,4.2,7.6c1.4,2.3,4.6,6.2,8,10.8c8,10.7,12,15.2,16.8,19.6c1.9,1.7,6.1,4.1,11.4,2
							C303.6,156,303.4,149.5,303,143.9z"/>
						<path class="st7" d="M277.8,127c-0.1,0-0.2,0-0.3-0.1c-6-5.9-5.4-6.8-5.1-7.2c0.3-0.4,0.9-1.3,7.4,2.1
							c0.2,0.1,0.3,0.4,0.2,0.6c-0.1,0.2-0.4,0.3-0.6,0.2c-4.8-2.5-6-2.4-6.2-2.3c0,0.2,0.3,1.5,4.9,6c0.2,0.2,0.2,0.5,0,0.7
							C278,126.9,277.9,127,277.8,127z"/>
					</g>
				</g>
				<path class="st13" d="M382.1,139.3c7.2,5.8,29.1,21.3,22.5,30.4c-5.5,7.5-26.1-8.5-33.6-13.8
					C374.6,150.4,378.4,144.8,382.1,139.3z"/>
				<path class="st6" d="M387.6,139.8c0,0-26.7-15.9-43.6-13.9c-17.9,2.2-18.3,3.8-37.3,13.7l10.2,20.1l3.1-2.3
					c0,1.4-3.8,24.7-3.8,24.7h68.3l-8.6-23l3.9,3.9L387.6,139.8z"/>
				<g>
					<polygon class="st7" points="302,196.5 365.7,196.5 355.7,152.9 292,152.9 					"/>
					
						<ellipse transform="matrix(0.9816 -0.1912 0.1912 0.9816 -27.544 65.9308)" class="st8" cx="328" cy="175.7" rx="3.3" ry="3.6"/>
				</g>
				<g>
					<path class="st13" d="M386.4,162.7c-7,5.6-24,17.9-25.6,19.1c-3,2.4-9.6,7.2-8.4,9.6c0.4,0.8,1.3,1.3,2.3,1.3
						c-0.3,1.1,0,2.2,0.9,2.9c1.1,0.9,2.4,0.5,2.5,0.5c-0.4,0.8-0.3,1.7,0.2,2.3c0.7,0.9,2.1,1.1,3.2,0.4c0,0.2,0.1,1.1,0.9,1.8
						c0.8,0.7,2,0.8,3.1,0.3c2.7-2.1,7.4-4.7,12.9-8.1c12.8-8.1,18.2-12.2,23.7-17.3c2.1-2,5.2-6.5,3.2-12.7
						C398.9,162.8,392.7,162.7,386.4,162.7z"/>
					<path class="st7" d="M383.8,165.2c-0.1,0-0.3-0.1-0.4-0.2c-0.2-0.2-0.1-0.5,0.1-0.7c1.5-1.2,2.8-2.2,3.5-2.7
						c0.2-0.2,0.5-0.1,0.7,0.1c0.2,0.2,0.1,0.5-0.1,0.7c-0.7,0.5-2,1.5-3.5,2.7C384,165.2,383.9,165.2,383.8,165.2z"/>
					<g>
						<path class="st7" d="M357.3,189.5c-0.1,0-0.3-0.1-0.4-0.2l-1.1-1.3c-0.2-0.2-0.2-0.5,0-0.7c0.2-0.2,0.5-0.2,0.7,0l1.1,1.3
							c0.2,0.2,0.2,0.5,0,0.7C357.6,189.5,357.4,189.5,357.3,189.5z"/>
						<path class="st7" d="M360.2,192.7c-0.1,0-0.3-0.1-0.4-0.2l-1.1-1.3c-0.2-0.2-0.2-0.5,0-0.7c0.2-0.2,0.5-0.2,0.7,0l1.1,1.3
							c0.2,0.2,0.2,0.5,0,0.7C360.4,192.7,360.3,192.7,360.2,192.7z"/>
						<path class="st7" d="M363.1,196c-0.1,0-0.3-0.1-0.4-0.2l-1.1-1.3c-0.2-0.2-0.2-0.5,0-0.7c0.2-0.2,0.5-0.2,0.7,0l1.1,1.3
							c0.2,0.2,0.2,0.5,0,0.7C363.3,195.9,363.2,196,363.1,196z"/>
						<path class="st7" d="M365.7,198.9c-0.1,0-0.3-0.1-0.4-0.2l-1.1-1.3c-0.2-0.2-0.2-0.5,0-0.7c0.2-0.2,0.5-0.2,0.7,0l1.1,1.3
							c0.2,0.2,0.2,0.5,0,0.7C366,198.9,365.8,198.9,365.7,198.9z"/>
					</g>
				</g>
			</g>
			<g>
				<g>
					<path class="st13" d="M349.1,136.6L349.1,136.6c-3.5,0.2-6.5-2.4-6.8-5.9l-1-14c-0.2-3.5,2.4-6.5,5.9-6.8l0,0
						c3.5-0.2,6.5,2.4,6.8,5.9l1,14C355.3,133.3,352.6,136.4,349.1,136.6z"/>
				</g>
				
					<ellipse transform="matrix(0.3827 -0.9239 0.9239 0.3827 113.7893 409.8026)" class="st14" cx="363.6" cy="119.8" rx="10.6" ry="10.6"/>
				<path class="st14" d="M363.6,127.2c-6.1,0-11.1-5-11.1-11.1c0-6.1,5-11.1,11.1-11.1c6.1,0,11.1,5,11.1,11.1
					C374.6,122.2,369.7,127.2,363.6,127.2z M363.6,106c-5.6,0-10.1,4.5-10.1,10.1c0,5.6,4.5,10.1,10.1,10.1
					c5.6,0,10.1-4.5,10.1-10.1C373.7,110.6,369.1,106,363.6,106z"/>
				<path class="st14" d="M366.8,129.4c-6.1,0-11.1-5-11.1-11.1c0-6.1,5-11.1,11.1-11.1c6.1,0,11.1,5,11.1,11.1
					C377.9,124.4,372.9,129.4,366.8,129.4z M366.8,108.2c-5.6,0-10.1,4.5-10.1,10.1s4.5,10.1,10.1,10.1c5.6,0,10.1-4.5,10.1-10.1
					S372.4,108.2,366.8,108.2z"/>
				<path class="st13" d="M355.3,96c-0.5-0.3-5.4-2.8-9.9-0.6c-3.3,1.7-5,4.9-6.9,10.6c-2.3,6.8-2.7,11.2-1.3,13.3
					c2.2,3.3,13.1,2.4,18.9-2c4.2-3.2,6.1-8.7,5.2-13.9C360.4,98.3,355.6,96.1,355.3,96z"/>
				<path class="st15" d="M342.5,122.3c-0.1,0-0.3,0-0.4,0c-0.3,0-0.5-0.2-0.5-0.5c0-0.3,0.2-0.5,0.5-0.5c4.3,0.1,10.3-1.8,13.6-4.3
					c0.2-0.2,0.5-0.1,0.7,0.1c0.2,0.2,0.1,0.5-0.1,0.7C353,120.3,347,122.3,342.5,122.3z"/>
				<g>
					<path class="st2" d="M350.8,108.1c0,0-1.6-1.3-3.7-1.7c-0.5-0.1-0.3,3.7,0.2,3.6C349.3,109.5,350.8,108.1,350.8,108.1z"/>
					<path class="st16" d="M345.6,106.3c0.5,0,1,0,1.4,0.1c0.7,1.1,0.7,2.5,0.2,3.6c-0.5,0.1-1,0.2-1.5,0.2
						c-2.8,0.1-5.1-1.8-5.1-1.8S342.8,106.4,345.6,106.3z"/>
				</g>
				<path class="st14" d="M341.1,115.3c-0.6,0-1.1-0.3-1.5-0.7c-0.2-0.2-0.1-0.5,0.1-0.7c0.2-0.2,0.5-0.1,0.7,0.1
					c0.3,0.3,0.7,0.5,1.1,0.3c0.4-0.2,0.5-0.7,0.5-0.7c0-0.3,0.3-0.4,0.5-0.4c0.3,0,0.4,0.3,0.4,0.5c0,0.1-0.2,1.1-1.1,1.5
					C341.6,115.2,341.3,115.3,341.1,115.3z"/>
				<path class="st7" d="M337.8,111.4c-0.1,0-0.3-0.1-0.4-0.2c-0.6-0.7-0.8-1.3-0.6-1.9c0.1-0.4,0.4-0.5,0.7-0.7
					c0.2-0.1,0.3-0.2,0.5-0.4c0.3-0.2,0.5-0.6,0.6-0.9c0.1-0.3,0.4-0.4,0.6-0.3c0.3,0.1,0.4,0.4,0.3,0.6c-0.2,0.5-0.5,1-0.8,1.3
					c-0.3,0.2-0.5,0.4-0.7,0.5c-0.1,0.1-0.2,0.1-0.3,0.2c0,0.1,0,0.4,0.5,0.9c0.2,0.2,0.1,0.5-0.1,0.7
					C338.1,111.3,338,111.4,337.8,111.4z"/>
				<path class="st14" d="M349.3,98.4l-4.1,4.1c-2.3-1-4.5-2-6.8-3c0.6-1,1.6-2.5,3.3-3.9c3.1-2.5,6.5-2.8,7.4-2.9
					c5.4-0.4,11.3,2.4,13.7,7.2c0.1,0.2,0.7,1.3,1,3c1.5,7.1-3.9,16.1-6.6,16c-0.8,0-1.6-1.9-3.6-12.6c-2.3-1-4.6-2-6.9-3.1
					L349.3,98.4z"/>
				<g>
					
						<ellipse transform="matrix(0.7395 -0.6732 0.6732 0.7395 16.8777 267.353)" class="st13" cx="353.8" cy="111.9" rx="4.5" ry="3.8"/>
					<path class="st7" d="M354.8,114.1c-0.2,0-0.3-0.1-0.4-0.2c-0.1-0.2-0.1-0.5,0.1-0.7c0.1-0.1,0.2-0.1,0.3-0.2
						c0.4-0.3,0.6-0.8,0.7-1.2c0.1-0.4-0.1-0.8-0.3-1.1c-0.1-0.1-0.3-0.2-0.5-0.3c-0.2-0.1-0.4-0.4-0.3-0.6c0.1-0.2,0.4-0.4,0.6-0.3
						c0.3,0.1,0.6,0.3,0.8,0.6c0.4,0.5,0.6,1.2,0.5,1.9c-0.1,0.7-0.4,1.3-1,1.8c-0.1,0.1-0.3,0.2-0.4,0.3
						C355,114.1,354.9,114.1,354.8,114.1z"/>
				</g>
				<g>
					<g>
						<path class="st7" d="M344.1,119.3c-1.9,0-3.6-0.7-5.1-2.2c-0.2-0.2-0.2-0.5,0-0.7c0.2-0.2,0.5-0.2,0.7,0c1.4,1.3,3,2,4.8,1.9
							c5.4-0.3,10.8-6.8,10.9-6.8c0.2-0.2,0.5-0.2,0.7-0.1c0.2,0.2,0.2,0.5,0.1,0.7c-0.2,0.3-5.8,6.9-11.6,7.2
							C344.4,119.3,344.3,119.3,344.1,119.3z"/>
						<path class="st7" d="M338,115.8c0.3-0.7,1.1-1,1.8-0.7c0.7,0.3,1,1.1,0.7,1.8c-0.3,0.7-1.1,1-1.8,0.7
							C338,117.4,337.6,116.5,338,115.8z"/>
					</g>
					
						<ellipse transform="matrix(0.2448 -0.9696 0.9696 0.2448 162.3625 429.371)" class="st7" cx="356.8" cy="110.5" rx="5.8" ry="4.9"/>
					<path class="st7" d="M356.8,109c-0.3,0-0.5-0.2-0.5-0.5v-5.2c0-4.8-1.1-8.3-3-9.6c-1-0.7-2.2-0.8-3.6-0.4
						c-0.3,0.1-0.5,0-0.6-0.3c-0.1-0.3,0-0.5,0.3-0.6c1.7-0.6,3.2-0.4,4.5,0.5c2.2,1.6,3.4,5.3,3.4,10.4v5.2
						C357.3,108.8,357.1,109,356.8,109z"/>
					<path class="st7" d="M357.4,114.4c-0.2,0-0.4-0.1-0.5-0.3c-0.1-0.3,0.1-0.5,0.3-0.6c1-0.3,1.8-1.2,2.1-2.4
						c0.4-1.7-0.4-3.4-1.7-3.7c-0.8-0.2-1.6,0-2.2,0.6c-0.2,0.2-0.5,0.2-0.7,0c-0.2-0.2-0.2-0.5,0-0.7c0.9-0.8,2-1.1,3.1-0.9
						c1.9,0.5,3,2.7,2.4,4.9c-0.4,1.5-1.4,2.6-2.7,3.1C357.5,114.4,357.5,114.4,357.4,114.4z"/>
				</g>
			</g>
		</g>
		<path class="st17" d="M72.1,491.5h114l11.5-14.7c10.7-13.8,0.8-34.1-16.7-34.1H47.4l-2.8,6.8C36.1,469.4,50.6,491.5,72.1,491.5z"
			/>
		<g>
			<path class="st7" d="M194,463.2h-64.4c-4.4,0-7.9-3.4-7.9-7.8l0,0H194V463.2z"/>
			<path class="st7" d="M194.7,463l19.6-61.6c1.3-4.2-1-8.6-5.2-10h0l-22,69.2L194.7,463z"/>
			<path class="st7" d="M187.4,452.5c0,0-0.1,0-0.1,0c-0.3-0.1-0.4-0.4-0.3-0.6l19.2-60.5c0.1-0.3,0.4-0.4,0.6-0.3
				c0.3,0.1,0.4,0.4,0.3,0.6l-19.2,60.5C187.8,452.3,187.6,452.5,187.4,452.5z"/>
		</g>
		<g>
			<g>
				<path class="st13" d="M167.9,392.2c0,0-14.9,8.3-45.1,11.8c-33.4,3.9-0.8-30.9-0.8-30.9s24.2-9.5,36.4-14.3
					C168.9,354.8,167.9,392.2,167.9,392.2z"/>
				<g>
					<path class="st13" d="M145.5,377.5c0,0,10.5-31,15.6-43.3c5.3-12.9,15-31.1,17.5-29.7c1.4,0.8,0.6,3.5-2,10.8
						c0.5-0.2,2.2-0.6,3.4,0.4c1.8,1.4,1.1,3.2,1.1,3.4c0.2-0.1,2.1-1,3.4-0.3c1.5,0.8,1.9,2.3,1.8,3.6c0.4-0.2,2.3-0.8,3.6-0.1
						c1.7,1,1.6,3.2,1,4.6c-1.2,2.7-4.5,10-5.8,14.1c-2.5,8-5.9,39.1-14.4,48.5C155.6,406.3,142.8,385.6,145.5,377.5z"/>
					<path class="st7" d="M175.2,340.1C175.2,340.1,175.2,340.1,175.2,340.1c-0.3,0-0.5-0.2-0.5-0.5c0.2-2.9-0.8-5.1-1.6-6.9
						c-0.8-1.8-1.5-3.4-0.2-4.8c0.8-0.8,1.3-2.1,1.6-3.9c0.1-0.5-0.3-0.7-0.4-0.8c-0.2-0.1-0.6-0.2-0.9,0.1l-6.9,5.8
						c-0.2,0.2-0.5,0.1-0.7-0.1c-0.2-0.2-0.1-0.5,0.1-0.7l6.9-5.8c0.6-0.5,1.3-0.6,2-0.2c0.6,0.4,1,1.1,0.9,1.8
						c-0.3,2-0.9,3.5-1.9,4.4c-0.8,0.8-0.5,1.8,0.4,3.7c0.8,1.8,1.8,4.2,1.7,7.4C175.7,339.9,175.5,340.1,175.2,340.1z"/>
					<path class="st7" d="M187.3,331.4c-0.1,0-0.1,0-0.2,0c-1.9-0.8-3.1-2.7-3-4.7l-0.1,0.2c-0.8,1.4-2.6,2-4.1,1.4
						c-0.9-0.3-1.5-1-1.9-1.8c-0.4-0.8-0.4-1.8,0-2.6l0.3-0.8c-0.8,0.4-1.7,0.4-2.5,0c-1.3-0.7-1.8-2.1-1.3-3.5l1.2-3.1
						c0.1-0.2,0.4-0.4,0.6-0.3c0.2,0.1,0.4,0.4,0.3,0.6l-1.2,3.1c-0.3,0.9,0,1.8,0.9,2.3c0.9,0.5,2,0.1,2.4-0.8l1.1-2
						c0.1-0.2,0.4-0.3,0.6-0.2c0.2,0.1,0.3,0.4,0.2,0.6l-1.8,4.4c-0.2,0.6-0.2,1.3,0,1.9c0.3,0.6,0.7,1.1,1.4,1.3
						c1.1,0.4,2.3,0,2.9-1l1.8-3c0.1-0.2,0.4-0.3,0.6-0.2c0.2,0.1,0.3,0.4,0.3,0.6l-0.6,1.7c-0.7,2,0.3,4.2,2.2,5
						c0.2,0.1,0.4,0.4,0.3,0.6C187.6,331.3,187.5,331.4,187.3,331.4z"/>
				</g>
			</g>
			<g>
				<path class="st4" d="M153.1,361c0,0-38.8,4.6-66.7,2.4c-13.2-1-37.9-1.1-46.2,4.3c-18.6,12.2-23.6,32.2-23.6,32.2l32.4,5.9
					L37,445.9c-4.1,13.9-1.4,25.9,6.9,37.7v0H64l-3.7-19.4l10.7,19.4l55.2-40.7l0.6-35.3l36.3-11.8L153.1,361z"/>
				<path class="st7" d="M126.3,405.7c-0.3,0-0.5-0.2-0.5-0.5v-9.3c0-0.3,0.2-0.5,0.5-0.5s0.5,0.2,0.5,0.5v9.3
					C126.8,405.5,126.5,405.7,126.3,405.7z"/>
			</g>
			<path class="st4" d="M147.6,365.2c0.3-1.3,9.6-25.5,9.6-25.5l27.7,10.5c0,0-1.4,41.2-21.6,45.7
				C143.1,400.5,147.6,365.2,147.6,365.2z"/>
			<g>
				<g>
					<path class="st13" d="M100.7,413.9c-2.8,1-15.1,3.2-16.8,8.8c-1.7,5.6,0.8,11.6,4.6,15.9c0,0,0,0,0.1,0c1.5,0.7,3.8,1.4,6.4,1
						c3-0.5,3.6-2,6.7-3c5.3-1.7,8.9,1.2,9.7-0.6c0.6-1.2-1.5-3-3.8-4.1c-2.3-1.2-4.3-0.9-4.4-1.3c0-0.5,2-0.4,4.6-0.7
						c1.2-0.1,4.6,1.7,5.7,0.1c0.8-1.2-2.3-4-5.9-4.5c-2.5-0.4-4.7,0.9-4.8,0.4c-0.1-0.3,1.2-1.1,2.5-1.4c2.1-0.5,5.7,1.2,6.6-0.2
						c0.9-1.4-1.9-3.7-5.1-4.5c-2.7-0.6-5,0.9-5.2,0.4c-0.1-0.4,0.7-1.3,3.1-2.6c2-1.1,6.4-1.9,5.6-4.1
						C109.7,411.7,105,412.5,100.7,413.9z"/>
					<path class="st13" d="M40.5,429c-6.2,2.2-10.3,8.2-9.8,14.7c0.3,4.3,2.5,8.6,9.3,11.1c16.4,6,52.1-18.3,52.1-18.3l3.6-21.1
						C74.8,419.8,57.5,422.9,40.5,429z"/>
				</g>
				<g>
					<path class="st4" d="M61.7,422.7l4.4,31.1l-27.5,5.5c-17.7,3.5-33.3-12-29.9-29.7c3-15.5,7.5-32.4,13.9-43.3l34,7.3l-8.9,30.3
						L61.7,422.7z"/>
					<path class="st7" d="M47.6,424.3c0,0-0.1,0-0.1,0c-0.3-0.1-0.4-0.3-0.3-0.6l4-13.7c0.1-0.3,0.3-0.4,0.6-0.3
						c0.3,0.1,0.4,0.3,0.3,0.6l-4,13.7C48,424.2,47.8,424.3,47.6,424.3z"/>
					<path class="st7" d="M33.5,460.3c-1.3,0-2.6-0.1-4-0.3c-0.3,0-0.4-0.3-0.4-0.6c0-0.3,0.3-0.4,0.6-0.4c2.9,0.5,5.8,0.4,8.7-0.2
						l27.1-5.4l-1-7c0-0.3,0.1-0.5,0.4-0.5c0.3,0,0.5,0.1,0.5,0.4l1.1,7.9l-28,5.6C36.9,460.1,35.2,460.3,33.5,460.3z"/>
					<path class="st7" d="M43.4,424.7c-0.2,0-0.5-0.2-0.5-0.4c0-0.3,0.2-0.5,0.4-0.5l18.3-1.5c0.3,0,0.5,0.2,0.5,0.4
						c0,0.3-0.2,0.5-0.4,0.5L43.4,424.7C43.4,424.7,43.4,424.7,43.4,424.7z"/>
				</g>
			</g>
			<path class="st7" d="M91.7,405.7c-0.3,0-0.5-0.2-0.5-0.5v-26.9c-15.4,0.1-18-10.2-18-10.3c-0.1-0.3,0.1-0.5,0.4-0.6
				c0.3-0.1,0.5,0.1,0.6,0.4c0.1,0.4,2.5,9.9,17.5,9.6l0.5,0v27.8C92.1,405.5,91.9,405.7,91.7,405.7z"/>
		</g>
		<g>
			<path class="st13" d="M89.4,372.2l-3.8-1.1c-3.5-1-5.6-4.6-4.6-8.2l8-29.1c1-3.5,4.6-5.6,8.2-4.6l3.8,1.1c3.5,1,5.6,4.6,4.6,8.2
				l-8,29.1C96.6,371.1,93,373.1,89.4,372.2z"/>
			<g>
				<g>
					<path class="st13" d="M114.5,351.3c-2.4,4.9-17.6,1.8-17.6,1.8l-13.5-8.2c-3.7-6.8-1.2-15.2,5.6-18.9
						c6.8-3.7,15.2-1.2,18.9,5.6C107.8,331.6,116.9,346.3,114.5,351.3z"/>
					<path class="st13" d="M108.1,335.6c0,0,5.4,1.7,5.7,2.8c0.4,1.3-3,4-3,4S108.2,335.5,108.1,335.6z"/>
					<g>
						<path class="st2" d="M96.3,338.3c0,0,1.6-1.7,4-2.4c0.5-0.2,0.8,4.1,0.3,4.1C98.1,339.6,96.3,338.3,96.3,338.3z"/>
						<g>
							<defs>
								<path id="SVGID_00000083780647323215796930000012307594043929205650_" d="M96.3,338.3c0,0,2.4-2.4,5.6-2.7
									c3.2-0.3,5.9,1.7,5.9,1.7s-2.4,2.4-5.6,2.7C99.1,340.3,96.3,338.3,96.3,338.3z"/>
							</defs>
							<clipPath id="SVGID_00000110441471673165012950000016555677295391659695_">
								<use xlink:href="#SVGID_00000083780647323215796930000012307594043929205650_"  style="overflow:visible;"/>
							</clipPath>
							<path style="clip-path:url(#SVGID_00000110441471673165012950000016555677295391659695_);fill:#363E44;" d="M100.3,335.7
								c1.1-2,3.6-2.8,5.6-1.8c2,1.1,2.8,3.6,1.8,5.6c-1.1,2-3.6,2.8-5.6,1.8C100,340.3,99.3,337.8,100.3,335.7z"/>
						</g>
					</g>
					<g>
						<path class="st7" d="M74.3,332.4c0,0,1.2,16.1,12.6,16.6l1.4-3.2l6.7-0.2l-5.4-5.7c-1.8-2.3-1-5.7,1.6-7l11.5-5.7l-3.4-6
							C89.4,320.6,80.8,323.6,74.3,332.4z"/>
						<path class="st7" d="M86.1,324.2c-1.1,1-2.8,0.8-3.7-0.3c-1-1.1-1.3-3.4-0.2-4.3c1.1-1,3.3-0.2,4.2,0.9
							C87.3,321.5,87.2,323.2,86.1,324.2z"/>
						<path class="st7" d="M88.2,323.9c-1.4,0.3-2.8-0.6-3.1-2.1c-0.3-1.4,0.5-3.6,1.9-3.9c1.4-0.3,3,1.4,3.3,2.8
							C90.5,322.2,89.6,323.6,88.2,323.9z"/>
						<path class="st7" d="M92.7,323.4c-2,0-3.6-1.5-3.7-3.5c0-2,1.5-4.7,3.5-4.7c2,0,3.7,2.6,3.7,4.6S94.7,323.4,92.7,323.4z"/>
						<path class="st7" d="M82.4,326.4c-1.1,1-2.8,0.9-3.8-0.2c-1-1.1-1.4-3.3-0.3-4.3c1.1-1,3.3-0.3,4.3,0.7
							C83.6,323.7,83.5,325.4,82.4,326.4z"/>
						<path class="st7" d="M96,322.5c-1.4-1.1-1.6-3.1-0.5-4.5c1.1-1.4,3.7-2.3,5.1-1.2c1.4,1.1,1,3.8-0.1,5.2
							C99.4,323.4,97.4,323.6,96,322.5z"/>
						<path class="st7" d="M79.9,328.8c-1.1,1.5-3.2,1.7-4.6,0.6c-1.5-1.1-2.5-3.8-1.4-5.2c1.1-1.5,3.9-1.2,5.4-0.1
							C80.7,325.2,81,327.3,79.9,328.8z"/>
						<path class="st7" d="M77.2,330.7c-0.3,1.4-1.6,2.3-3,2.1c-1.4-0.3-3.1-1.8-2.8-3.2c0.3-1.4,2.4-2.2,3.8-1.9
							C76.6,328,77.5,329.3,77.2,330.7z"/>
						<path class="st7" d="M98.5,325.7c-1.2-1.8-0.7-4.2,1.1-5.4c1.8-1.2,5.2-1.3,6.4,0.5c1.2,1.8-0.3,4.8-2.1,6
							C102.1,328,99.7,327.5,98.5,325.7z"/>
					</g>
					<path class="st13" d="M81,346.3c0.3,2.6,2.6,4.6,5.3,4.3c2.6-0.3,4.6-2.6,4.3-5.3c-0.3-2.6-2.6-4.6-5.3-4.3
						C82.6,341.3,80.7,343.6,81,346.3z"/>
					<path class="st7" d="M112.6,340.7l4.3,10.9c0.6,1.5-0.2,3.2-1.7,3.7c-0.4,0.1-0.8,0.3-1.3,0.4c-7.8,2.4-16.3,0.7-22.5-4.6h0
						c-2.1-1.8-2.8-4.7-1.9-7.2l0.3-0.8l2.6,0c0,0,4.5,4.8,6.8,4.1C101.5,346.6,104.5,342.8,112.6,340.7z"/>
					<path class="st13" d="M108,346.9c-0.1,0-0.1,0-0.2,0c-0.9-0.1-1.7-0.7-2.1-1.5c-0.1-0.2,0-0.5,0.3-0.6c0.2-0.1,0.5,0,0.6,0.3
						c0.2,0.5,0.7,0.9,1.3,0.9c0.6,0,1.1-0.3,1.4-0.8c0.1-0.2,0.4-0.3,0.7-0.2c0.2,0.1,0.3,0.4,0.2,0.7
						C109.7,346.4,108.9,346.9,108,346.9z"/>
					<path class="st13" d="M88.4,335.3C88.4,335.3,88.3,335.3,88.4,335.3l-7-1.3c-0.3-0.1-0.4-0.3-0.4-0.6c0.1-0.3,0.3-0.4,0.6-0.4
						l6.9,1.3c0.3,0.1,0.4,0.3,0.4,0.6C88.8,335.2,88.6,335.3,88.4,335.3z"/>
				</g>
			</g>
		</g>
	</g>
</g>
</svg>
